<?xml version="1.0" encoding="utf-8"?>
<!-- Generator: Adobe Illustrator 21.1.0, SVG Export Plug-In . SVG Version: 6.00 Build 0)  -->
<svg version="1.1" xmlns="http://www.w3.org/2000/svg" xmlns:xlink="http://www.w3.org/1999/xlink" x="0px" y="0px"
	 viewBox="0 0 1200 1200" style="enable-background:new 0 0 1200 1200;" xml:space="preserve">
<style type="text/css">
	.st0{fill:url(#SVGID_1_);}
	.st1{fill:url(#SVGID_2_);}
</style>
<g id="Pattern_x5F__x2014_ÎÓÈ_x5F_7">
	<g>
		<linearGradient id="SVGID_1_" gradientUnits="userSpaceOnUse" x1="0" y1="600" x2="1200" y2="600">
			<stop  offset="0" style="stop-color:#BE965D"/>
			<stop  offset="0.2784" style="stop-color:#976F40"/>
			<stop  offset="0.4259" style="stop-color:#C99B61"/>
			<stop  offset="0.5584" style="stop-color:#F0BE7B"/>
			<stop  offset="0.6275" style="stop-color:#FFCB85"/>
			<stop  offset="0.7085" style="stop-color:#EEBC79"/>
			<stop  offset="0.8693" style="stop-color:#C0935B"/>
			<stop  offset="1" style="stop-color:#976F40"/>
		</linearGradient>
		<path class="st0" d="M196.4,0l-89.5,59.7L74.5,0H70l33.5,61.9L68.1,85.5l1.6-2.1L8.2,36.6L43.9,0h-5.6L5,34.2l-5-3.8v5l66.9,50.9
			L0.4,130.7L0,130.4v5.7l0.6-0.4l73.8,49L0,296.4v174.5L59.7,581l-1.5-1.4L5,634.2l-5-3.8v5l66.9,50.9L0.4,730.7L0,730.4v5.7
			l0.6-0.4l73.8,49L0,896.4v174.5L59.7,1181l-1.5-1.4L38.3,1200h5.6l16.8-17.2L70,1200h4.5L5.6,1072.8L196.4,1200l0,0h7.2l0,0
			l190.8-127.2L325.5,1200h4.5l6.8-12.6l16.6,12.6h6.6l-21.2-16.2l61.2-113l59.7,110.2l-1.5-1.4l-19.9,20.4h5.6l16.8-17.2l9.3,17.2
			h4.5l-68.9-127.2L596.4,1200l0,0h7.2l0,0l190.8-127.2L725.5,1200h4.6l6.8-12.6l16.6,12.6h6.6l-21.2-16.2l61.2-113l59.7,110.2
			l-1.5-1.4l-19.9,20.4h5.6l16.8-17.2l9.3,17.2h4.6l-68.9-127.2L996.4,1200h7.2l0,0l190.8-127.2l-68.9,127.2h4.6l6.8-12.6l16.6,12.6
			h6.6l-21.2-16.2l61.2-113V896.4l-73.9-110.9l73.9-49.4v-5.7l-103.4-68.7l40.3-74.3l63.1,48v-5l-61.2-46.6l61.2-113V296.4
			l-73.9-110.9l73.9-49.4v-5.7l-103.4-68.7L1130,0h-4.5l-32.3,59.5L1003.6,0h-7.2l-89.5,59.7L874.5,0H870l33.5,61.9l-35.4,23.6
			l1.6-2.1l-61.5-46.8L843.9,0h-5.6L805,34.2L760,0h-6.6l113.5,86.3l-66.6,44.4L696.6,61.7L730,0h-4.6l-32.3,59.5L603.6,0h-7.2l0,0
			l-89.5,59.7L474.5,0H470l33.5,61.9l-35.4,23.6l1.6-2.1l-61.5-46.8L443.9,0h-5.6L405,34.2L360,0h-6.6l113.5,86.3l-66.6,44.4
			L296.6,61.7L330,0h-4.5l-32.3,59.5L203.6,0L196.4,0L196.4,0z M4.2,133.3l188.5-126L76.7,181.4L4.2,133.3z M194.4,172.8L93.2,359.5
			L3.6,300L194.4,172.8z M14.1,288.2L198,96.6v69L14.1,288.2z M594.4,172.8L493.2,359.5L403.6,300L594.4,172.8z M414.1,288.2
			L598,96.6v69L414.1,288.2z M994.4,172.8L893.2,359.5L803.6,300L994.4,172.8z M814.1,288.2L998,96.6v69L814.1,288.2z M396.4,900
			l-89.5,59.7L205.6,772.8L396.4,900L396.4,900L396.4,900z M96.6,961.7l40.3-74.3l130.1,98.9l-66.6,44.4L96.6,961.7z M196.7,1033.5
			l-72.8,48.7L7.2,907.2L196.7,1033.5z M200.6,435.7l73.8,49L200,596.4l-73.9-110.9L200.6,435.7z M123.9,482.2L7.2,307.2
			l189.5,126.3L123.9,482.2z M204.2,433.3l188.5-126L276.7,481.4L204.2,433.3z M214.1,588.2L398,396.6v69L214.1,588.2z M394.4,472.8
			L293.2,659.5L203.6,600L394.4,472.8z M259.7,881l-1.5-1.4L205,934.2l-66.2-50.3l61.2-113L259.7,881z M208.2,936.6l52.5-53.8
			l42.9,79.1l-35.4,23.6l1.6-2.1L208.2,936.6z M392.8,907.2l-116.1,174.1l-72.4-48.1L392.8,907.2z M202,765.6v-69l183.9,191.6
			L202,765.6z M202,690.9v-84.3l183.8,275.7L202,690.9z M207.2,607.2l189.5,126.3l-72.8,48.7L207.2,607.2z M296.6,661.7l40.3-74.3
			l130.1,98.9l-66.6,44.4L296.6,661.7z M600.6,435.7l73.8,49L600,596.4l-73.9-110.9L600.6,435.7z M523.9,482.2l-116.7-175
			l189.5,126.3L523.9,482.2z M604.2,433.3l188.5-126L676.7,481.4L604.2,433.3z M614.1,588.2L798,396.6v69L614.1,588.2z M794.4,472.8
			L693.2,659.5L603.6,600L794.4,472.8z M608.2,936.6l52.5-53.8l42.9,79.1l-35.4,23.6l1.6-2.1L608.2,936.6z M658.2,879.6L605,934.2
			l-66.2-50.3l61.2-113L659.7,881L658.2,879.6z M596.4,600l-89.5,59.7L405.6,472.8L596.4,600L596.4,600L596.4,600z M503.5,661.9
			l-35.4,23.6l1.6-2.1l-61.5-46.8l52.5-53.8L503.5,661.9z M592.8,607.2L476.7,781.4l-72.4-48.1L592.8,607.2z M598,606.6v84.3
			L414.2,882.4L598,606.6z M598,696.6v69L414.1,888.2L598,696.6z M594.4,772.8L493.2,959.5L403.6,900L594.4,772.8z M407.2,907.2
			l189.5,126.3l-72.8,48.7L407.2,907.2z M585.8,1182.4L402,990.9v-84.3L585.8,1182.4z M496.6,961.7l40.3-74.3l130.1,98.9l-66.6,44.4
			L496.6,961.7z M792.8,907.2l-116.1,174.1l-72.4-48.1L792.8,907.2z M706.9,959.7L605.6,772.8L796.4,900L706.9,959.7z M602,765.6
			v-69l183.9,191.6L602,765.6z M602,690.9v-84.3l183.8,275.8L602,690.9z M607.2,607.2l189.5,126.3l-72.8,48.7L607.2,607.2z
			 M696.6,661.7l40.3-74.3l130.1,98.9l-66.6,44.4L696.6,661.7z M903.5,661.9l-35.4,23.6l1.6-2.1l-61.5-46.8l52.5-53.8L903.5,661.9z
			 M805.6,472.8L996.4,600l-89.5,59.7L805.6,472.8z M992.8,607.2L876.7,781.4l-72.4-48.1L992.8,607.2z M998,606.6v84.3L814.2,882.4
			L998,606.6z M998,696.6v69L814.1,888.2L998,696.6z M994.4,772.8L893.2,959.5L803.6,900L994.4,772.8z M807.2,907.2l189.5,126.3
			l-72.8,48.7L807.2,907.2z M985.8,1182.4L802,990.9v-84.3L985.8,1182.4z M896.6,961.7l40.3-74.3l130.1,98.9l-66.6,44.4L896.6,961.7
			z M1192.8,907.2l-116.1,174.1l-72.4-48.1L1192.8,907.2z M1068.1,985.5l1.6-2.1l-61.5-46.8l52.5-53.8l42.9,79.1L1068.1,985.5z
			 M1058.2,879.6l-53.3,54.6l-66.2-50.3l61.2-113l59.7,110.2L1058.2,879.6z M1000,596.4l-73.9-110.9l74.6-49.8l73.8,49L1000,596.4z
			 M923.9,482.2l-116.7-175l189.5,126.3L923.9,482.2z M1004.2,433.3l188.5-126l-116.1,174.1L1004.2,433.3z M1068.1,385.5l1.6-2.1
			l-61.5-46.8l52.5-53.8l42.9,79.1L1068.1,385.5z M1066.9,386.3l-66.6,44.4l-103.8-68.9l40.3-74.3L1066.9,386.3z M985.8,582.4
			L802,390.9v-84.3L985.8,582.4z M985.9,588.2L802,465.6v-69L985.9,588.2z M859.7,581l-1.5-1.4L805,634.2l-66.2-50.3l61.2-113
			L859.7,581z M798,390.9L614.2,582.4L798,306.6V390.9z M706.9,359.7L605.6,172.8L796.4,300L706.9,359.7z M703.5,361.9l-35.4,23.6
			l1.6-2.1l-61.5-46.8l52.5-53.8L703.5,361.9z M666.9,386.3l-66.6,44.4l-103.8-68.9l40.3-74.3L666.9,386.3z M585.8,582.4L402,390.9
			v-84.3L585.8,582.4z M585.9,588.2L402,465.6v-69L585.9,588.2z M459.7,581l-1.5-1.4L405,634.2l-66.2-50.3l61.2-113L459.7,581z
			 M398,390.9L214.2,582.4L398,306.6V390.9z M396.4,300l-89.5,59.7L205.6,172.8L396.4,300L396.4,300L396.4,300z M303.5,361.9
			l-35.4,23.6l1.6-2.1l-61.5-46.8l52.5-53.8L303.5,361.9z M266.9,386.3l-66.6,44.4L96.6,361.7l40.3-74.3L266.9,386.3z M2,306.6
			l183.8,275.7L2,390.9V306.6z M2,396.6l183.9,191.5L2,465.6V396.6z M5.6,472.8L196.4,600l0,0l0,0l-89.5,59.7L5.6,472.8z M8.2,636.6
			l52.5-53.8l42.9,79.1l-35.4,23.6l1.6-2.1L8.2,636.6z M4.2,733.3l188.5-126L76.7,781.4L4.2,733.3z M198,606.6v84.3L14.2,882.4
			L198,606.6z M198,696.6v69L14.1,888.2L198,696.6z M194.4,772.8L93.2,959.5L3.6,900L194.4,772.8z M2,906.6l183.8,275.7L2,990.9
			V906.6z M2,1065.6v-69l183.9,191.6L2,1065.6z M200,1196.4l-73.9-110.9l74.6-49.8l73.8,49L200,1196.4z M398,1065.6l-183.9,122.6
			L398,996.6V1065.6z M398,990.9l-183.8,191.5L398,906.6V990.9z M326.1,785.5l74.6-49.8l73.8,49L400,896.4L326.1,785.5z M402,1065.6
			v-69l183.9,191.6L402,1065.6z M600,1196.4l-73.9-110.9l74.6-49.8l73.8,49L600,1196.4z M798,1065.6l-183.9,122.6L798,996.6V1065.6z
			 M798,990.9l-183.8,191.5L798,906.6V990.9z M800,896.4l-73.9-110.9l74.6-49.8l73.8,49L800,896.4z M802,1065.6v-69l183.9,191.6
			L802,1065.6z M1000,1196.4l-73.9-110.9l74.6-49.8l73.8,49L1000,1196.4z M1198,1065.6l-183.9,122.6L1198,996.6V1065.6z M1198,990.9
			l-183.8,191.5L1198,906.6V990.9z M1106.9,959.7l-101.3-186.9L1196.4,900L1106.9,959.7z M1002,765.6v-69l183.9,191.6L1002,765.6z
			 M1185.8,882.4L1002,690.9v-84.3L1185.8,882.4z M1196.7,733.5l-72.8,48.7l-116.7-175L1196.7,733.5z M1093.2,659.5l-89.6-59.5
			l190.8-127.2L1093.2,659.5z M1198,465.6l-183.9,122.6L1198,396.6V465.6z M1198,390.9l-183.8,191.5L1198,306.6V390.9z
			 M1106.9,359.7l-101.3-186.9L1196.4,300L1106.9,359.7z M1196.7,133.5l-72.8,48.7l-116.7-175L1196.7,133.5z M1002,6.6l183.8,275.8
			L1002,90.9V6.6z M1002,96.6l183.9,191.6L1002,165.6V96.6z M1059.7,281l-1.5-1.4l-53.3,54.6l-66.2-50.3l61.2-113L1059.7,281z
			 M998,6.6v84.3L814.2,282.4L998,6.6z M992.8,7.2L876.7,181.4l-72.4-48.1L992.8,7.2z M800.6,135.7l73.8,49L800,296.4l-73.9-110.9
			L800.6,135.7z M796.7,133.5l-72.8,48.7L607.2,7.2L796.7,133.5z M602,6.6l183.8,275.8L602,90.9V6.6z M602,96.6l183.9,191.6
			L602,165.6V96.6z M659.7,281l-1.5-1.4L605,334.2l-66.2-50.3l61.2-113L659.7,281z M598,6.6v84.3L414.2,282.4L598,6.6z M592.8,7.2
			L476.7,181.4l-72.4-48.1L592.8,7.2z M400.6,135.7l73.8,49L400,296.4l-73.9-110.9L400.6,135.7z M396.7,133.5l-72.8,48.7L207.2,7.2
			L396.7,133.5z M202,6.6l183.8,275.7L202,90.9V6.6z M202,96.6l183.9,191.5L202,165.6V96.6z M259.7,281l-1.5-1.4L205,334.2
			l-66.2-50.3l61.2-113L259.7,281z M198,90.9L14.2,282.4L198,6.6V90.9z"/>
		<linearGradient id="SVGID_2_" gradientUnits="userSpaceOnUse" x1="1153.4209" y1="17.7107" x2="1200" y2="17.7107">
			<stop  offset="0" style="stop-color:#BE965D"/>
			<stop  offset="0.2784" style="stop-color:#976F40"/>
			<stop  offset="0.4259" style="stop-color:#C99B61"/>
			<stop  offset="0.5584" style="stop-color:#F0BE7B"/>
			<stop  offset="0.6275" style="stop-color:#FFCB85"/>
			<stop  offset="0.7085" style="stop-color:#EEBC79"/>
			<stop  offset="0.8693" style="stop-color:#C0935B"/>
			<stop  offset="1" style="stop-color:#976F40"/>
		</linearGradient>
		<polygon class="st1" points="1200,30.4 1160,0 1153.4,0 1200,35.4 		"/>
	</g>
</g>
<g id="_x2014_ÎÓÈ_x5F_4">
</g>
</svg>
