<?xml version="1.0" encoding="utf-8"?>
<!-- Generator: Adobe Illustrator 21.1.0, SVG Export Plug-In . SVG Version: 6.00 Build 0)  -->
<svg version="1.1" id="Layer_1" xmlns="http://www.w3.org/2000/svg" xmlns:xlink="http://www.w3.org/1999/xlink" x="0px" y="0px"
	 viewBox="0 0 800 800" style="enable-background:new 0 0 800 800;" xml:space="preserve">
<style type="text/css">
	.st0{fill:#00AFCC;}
	.st1{fill:#D0D2D3;}
	.st2{fill:#FFFFFF;}
	.st3{fill:#B9DEEE;}
	.st4{fill:#004264;}
	.st5{fill:#00527A;}
	.st6{fill:#F6CB99;}
	.st7{fill:#00486C;}
	.st8{fill:#003350;}
	.st9{fill:#99BACA;}
	.st10{fill:#003452;}
	.st11{fill:#E6E7E8;}
	.st12{fill:#DADBDC;}
	.st13{fill:#00263D;}
	.st14{fill:#003351;}
	.st15{fill:#A6A8AB;}
	.st16{fill:#337595;}
	.st17{fill:#D1D3D4;}
	.st18{fill:#004062;}
	.st19{fill:#6E99B1;}
	.st20{fill:#002A45;}
	.st21{fill:#00314E;}
	.st22{fill:#003856;}
	.st23{fill:#003A5A;}
	.st24{fill:#004366;}
	.st25{fill:#929497;}
	.st26{fill:#404041;}
	.st27{fill:#F1F2F2;}
	.st28{fill:#2F6282;}
	.st29{font-family:'WatchwordRegularDemo';}
	.st30{font-size:50px;}
</style>
<g id="BACKGROUND">
	<rect class="st0" width="800" height="800"/>
</g>
<g id="OBJECTS">
	<polygon class="st1" points="385.7,458.9 419.6,458.9 436.6,527.4 368.7,527.4 	"/>
	<path class="st2" d="M463.2,527.6c0,1-0.8,1.8-1.9,1.8h-115c-1,0-1.9-0.8-1.9-1.8v-4.8c0-1,0.8-1.8,1.9-1.8h114.9
		c1,0,1.9,0.8,1.9,1.8v4.8H463.2z"/>
	<path class="st2" d="M566.6,254.7c0-6.1-3.2-8.8-9.1-8.8H250.2c-5.9,0-11.5,2.7-11.5,8.8v185.7v5.5v22.9c0,5.9,5.6,13.3,11.5,13.3
		h307.3c5.9,0,9.1-7.4,9.1-13.3v-22.9v-5.5V254.7z"/>
	<rect x="253.2" y="260.4" class="st3" width="299" height="207.3"/>
	<g>
		<path class="st4" d="M326.5,427.9h32.1c3.9,0,7.1,3.2,7.1,7.1l0,0c0,3.9-3.2,7.1-7.1,7.1h-32.1c-3.9,0-7.1-3.2-7.1-7.1l0,0
			C319.4,431.1,322.6,427.9,326.5,427.9z"/>
		<path class="st4" d="M389.3,427.9h32.1c3.9,0,7.1,3.2,7.1,7.1l0,0c0,3.9-3.2,7.1-7.1,7.1h-32.1c-3.9,0-7.1-3.2-7.1-7.1l0,0
			C382.1,431.1,385.3,427.9,389.3,427.9z"/>
		<path class="st4" d="M452,427.9h32.1c3.9,0,7.1,3.2,7.1,7.1l0,0c0,3.9-3.2,7.1-7.1,7.1H452c-3.9,0-7.1-3.2-7.1-7.1l0,0
			C444.9,431.1,448.1,427.9,452,427.9z"/>
	</g>
	<g>
		<g>
			<path class="st4" d="M451.5,580.4c0.1-0.4,1.2-2.9,1.4-4.5c0.5-4.1-24.4-9-24.9-4.8l-0.4,3.9L451.5,580.4z"/>
			<path class="st4" d="M340.8,581.4c-0.1-0.4-1.2-2.8-1.5-4.5c-0.5-4.1,24.3-9.3,24.8-5.1l0.5,3.9L340.8,581.4z"/>
			<path class="st1" d="M396.4,579.3c-3.6,0-16.9-0.2-19-1c-2.4-1-8.3-4.9-10.2-5.3c-7-1.7-26.3,1.4-29.5,7.2
				c0,0-9.8,21.1-13.9,42.9c-4,21.8-2.8,36.2-0.5,42.2c2.2,6,4.7,8.5,8.5,8.8c3.7,0.3,8.1-0.9,16.4-6.3c8.3-5.4,12.3-12.1,22.7-16.1
				c7.6-2.9,19.8-3.2,25.9-3.2c6.1-0.1,18.4,0.1,26,2.8c10.4,3.8,14.6,10.4,23,15.7c8.3,5.3,12.7,6.5,16.5,6.1
				c3.7-0.4,6.2-2.9,8.3-8.9c2.1-6,3.2-20.5-1.1-42.2c-4.4-21.7-14.5-42.7-14.5-42.7c-3.3-5.7-22.7-8.6-29.6-6.8
				c-1.8,0.5-7.7,4.4-10.1,5.5C413.2,578.9,399.9,579.3,396.4,579.3z"/>
			<path class="st2" d="M396.4,579.3c-3.6,0-16.9-0.2-19-1c-2.4-1-8.3-4.9-10.2-5.3c-7-1.7-26.3,1.4-29.5,7.2
				c0,0-9.8,21.1-13.9,42.9c-1.7,8.9-2.4,16.6-2.6,22.9c0.3,5.7,1,9.9,2,12.5c2.2,6,4.7,8.5,8.5,8.8c3.7,0.3,8.1-0.9,16.4-6.3
				c8.3-5.4,12.3-12.1,22.7-16.1c7.6-2.9,19.9-3.2,25.9-3.2c6.1-0.1,18.4,0.1,26,2.8c10.4,3.8,14.6,10.4,23,15.7s12.7,6.5,16.5,6.1
				c3.7-0.4,6.2-2.9,8.3-8.9c0.9-2.6,1.7-6.8,1.8-12.5c-0.3-6.4-1.1-14-2.9-22.9c-4.4-21.7-14.5-42.7-14.5-42.7
				c-3.3-5.7-22.7-8.6-29.6-6.8c-1.8,0.5-7.7,4.4-10.1,5.5C413.2,578.9,399.9,579.3,396.4,579.3z"/>
			<path class="st4" d="M356,610.7c6.1,0,11.1-5.1,11-11.2c0-6.1-5.1-11.1-11.2-11c-6.1,0-11.1,5.1-11,11.2
				C344.9,605.8,349.9,610.8,356,610.7z"/>
			<path class="st5" d="M356,607.4c4.3,0,7.7-3.5,7.7-7.8s-3.5-7.7-7.8-7.7s-7.7,3.5-7.7,7.8C348.2,603.9,351.7,607.4,356,607.4z"/>
			<path class="st4" d="M419.3,638.4c6.2,0,11.2-5.1,11.2-11.3s-5.1-11.2-11.3-11.2c-6.2,0-11.2,5.1-11.2,11.3
				S413.1,638.4,419.3,638.4z"/>
			<path class="st5" d="M419.3,635c4.3,0,7.8-3.6,7.8-7.9c0-4.3-3.6-7.8-7.9-7.8s-7.8,3.6-7.8,7.9C411.4,631.5,414.9,635,419.3,635z
				"/>
			<path class="st4" d="M378.6,638.7c6.4,0,11.6-5.3,11.6-11.8c0-6.4-5.3-11.6-11.8-11.6c-6.4,0-11.6,5.3-11.6,11.8
				C366.8,633.5,372.1,638.8,378.6,638.7z"/>
			<path class="st4" d="M378.5,636.5c5.2,0,9.4-4.3,9.4-9.5s-4.3-9.4-9.5-9.4s-9.4,4.3-9.4,9.5C369.1,632.3,373.3,636.5,378.5,636.5
				z"/>
			<path class="st5" d="M381.7,618.2c-0.1,5.3,0.1,5.4,5.4,5.2c0.5,1.1,0.7,2.3,0.7,3.6c0,1.2-0.2,2.4-0.6,3.5
				c-5.5-0.1-5.6,0-5.4,5.4c-1,0.4-2.2,0.6-3.3,0.6c-1.3,0-2.6-0.3-3.8-0.7c0.1-5.1-0.1-5.3-5.1-5.2c-0.4-1.1-0.7-2.2-0.7-3.5
				s0.2-2.5,0.7-3.6c4.9,0.1,5.1-0.1,4.9-5.1c1.1-0.5,2.4-0.8,3.7-0.8C379.6,617.6,380.7,617.8,381.7,618.2z"/>
			<g>
				<path class="st5" d="M438.5,591.4c-2.7-0.7-4.5-3.1-4.6-5.8c0-3.3,2.7-6.1,6-6.1c0.5,0,1,0.1,1.5,0.2c2.7,0.7,4.5,3.1,4.6,5.8
					c0,1.6-0.6,3.1-1.7,4.3s-2.6,1.8-4.3,1.8C439.5,591.6,439,591.6,438.5,591.4z"/>
				<path class="st5" d="M440,591.2c3.1,0,5.6-2.5,5.5-5.6c0-3.1-2.5-5.6-5.6-5.5c-3.1,0-5.6,2.5-5.5,5.6
					C434.4,588.7,436.9,591.2,440,591.2z"/>
				<path class="st5" d="M426.1,603c-2.7-0.7-4.5-3.1-4.6-5.8c0-3.3,2.7-6.1,6-6.1c0.5,0,1,0.1,1.5,0.2c2.7,0.7,4.5,3.1,4.6,5.8
					c0,3.3-2.7,6.1-6,6.1C427.1,603.2,426.6,603.2,426.1,603L426.1,603z"/>
				<path class="st5" d="M427.7,602.8c3.1,0,5.6-2.5,5.5-5.6c0-3.1-2.5-5.6-5.6-5.5c-3.1,0-5.6,2.5-5.5,5.6
					C422.1,600.3,424.6,602.8,427.7,602.8z"/>
				<path class="st5" d="M438.6,615.1c-2.7-0.7-4.5-3.1-4.6-5.8c0-1.6,0.6-3.1,1.7-4.3s2.6-1.8,4.3-1.8c0.5,0,1,0.1,1.5,0.2
					c2.7,0.7,4.5,3.1,4.5,5.8c0,1.6-0.6,3.1-1.7,4.3c-1.1,1.1-2.6,1.8-4.3,1.8C439.7,615.3,439.1,615.2,438.6,615.1z"/>
				<path class="st5" d="M440.2,614.8c3.1,0,5.6-2.5,5.5-5.6c0-3.1-2.5-5.6-5.6-5.5c-3.1,0-5.6,2.5-5.5,5.6
					C434.6,612.4,437.1,614.8,440.2,614.8z"/>
				<path class="st5" d="M450.2,602.9c-2.7-0.7-4.5-3.1-4.6-5.8c0-3.3,2.7-6.1,6-6.1c0.5,0,1,0.1,1.5,0.2c2.7,0.7,4.5,3.1,4.6,5.8
					c0,3.3-2.7,6.1-6,6.1C451.3,603.1,450.7,603,450.2,602.9z"/>
				<path class="st5" d="M451.8,602.6c3.1,0,5.6-2.5,5.5-5.6c0-3.1-2.5-5.6-5.6-5.5c-3.1,0-5.6,2.5-5.5,5.6
					C446.2,600.1,448.7,602.6,451.8,602.6z"/>
			</g>
			<g>
				
					<ellipse transform="matrix(1 -6.713765e-03 6.713765e-03 1 -4.0404 2.6105)" class="st4" cx="386.8" cy="603.1" rx="3.1" ry="3.1"/>
				
					<ellipse transform="matrix(1 -7.176254e-03 7.176254e-03 1 -4.3169 2.9306)" class="st4" cx="406.2" cy="603" rx="3.2" ry="3.2"/>
			</g>
		</g>
		<path class="st6" d="M297.3,694.4c-2.2-22.4-8.5-53.8-0.5-62.9c2-5.9,8.9-35.3,27.9-58.8c3.8-4.7,12.4-12.4,21.5-14.6
			c4.4-0.3,10,11.7-3.9,16.4c-14.8,12.8-27.8,62.7-11.1,72c4,2.2,10.8,2.6,20-2.7l15.8,15.1c-17.5,30.2-6.1,11.7-21.8,36.6
			c-1.8,2.8-9.5,54.5-13.1,98h-51.4C293.3,744.3,295.2,708.5,297.3,694.4z"/>
		<path class="st6" d="M378.2,635.5c-0.1,5.6-18.3,35.4-19.2,35.8c-3.5,1.7-21.1-2.4-25.4-21.9c1.9-1.4,23.2-7.4,26.2-15.3
			C365,620.3,384.6,616.2,378.2,635.5z"/>
		<polygon class="st5" points="337.6,799.4 347.2,715.6 287.9,707.9 264.3,799.4 		"/>
		<polygon class="st7" points="337.6,799.4 347.2,715.6 320.1,712.1 304.2,799.4 		"/>
		<path class="st6" d="M503.9,694.1c0.3-22.5,3.9-54.3-4.9-62.7c-2.5-5.7-9.2-37.9-30.1-59.8c-4.1-4.3-13.4-11.3-22.7-12.7
			c-4.4,0.1-8.9,12.5,5.3,16c12.5,13.3,30.3,63.6,14.4,74.3c-3.8,2.6-10.5,3.5-20.1-1l-14.4,16.4c20,28.6,7.1,11.1,24.8,34.6
			c2,2.6,14.1,53.5,21.4,96.5l51.2-4.4C512.2,743.6,507.2,708.1,503.9,694.1z"/>
		<path class="st6" d="M418.4,637.9c0.5,5.5,19.1,36.4,20.1,36.8c3.7,1.3,22.5-4.3,25.1-24.2c-2-1.3-23.3-8-26.9-15.6
			C430.3,621.7,410.4,619.2,418.4,637.9z"/>
		<polygon class="st5" points="462.4,800 452.8,716.2 512.1,708.5 535.7,800 		"/>
		<polygon class="st7" points="461.2,800 451.6,716.2 478.7,712.7 494.6,800 		"/>
	</g>
	<g>
		<path class="st4" d="M130.5,391.8c0.8,3.1,6,24,8.6,34.8c0.9,3.5-1.8,6.1-6.4,6.1c-3.8,0-6.7-0.1-6.7-0.1l-10.3-41.7
			c0,0,3.1-0.9,7.3-2.2C127.2,387.5,129.8,388.7,130.5,391.8z"/>
		<path class="st2" d="M113.7,425.4c2.5,3.4,5.4,6.3,8.7,8.5l-11.4-46c-2,3-3.3,6.5-4,10.4L113.7,425.4z"/>
		<path class="st4" d="M197.5,391.8c-0.8,3.1-6,24-8.6,34.8c-0.9,3.5,1.8,6.1,6.4,6.1c3.8,0,6.7-0.1,6.7-0.1l10.3-41.7
			c0,0-3.1-0.9-7.3-2.2C200.8,387.5,198.3,388.7,197.5,391.8z"/>
		<path class="st2" d="M165.2,449.8c0,0,33.3-4.6,36.9-22.6l4.1,1.8c0,0-4.7,20.8-40.5,24.2L165.2,449.8z"/>
		<ellipse class="st5" cx="161.3" cy="450.9" rx="10.1" ry="9.1"/>
		<path class="st2" d="M213.6,425.6c-2.5,3.3-5.4,6-8.7,8.2l11.5-44c2,2.8,3.3,6.2,4,9.9L213.6,425.6z"/>
		<path class="st8" d="M216.8,389.3l-0.6-0.1c0.2-1.5,0.5-4,0.5-5.3c0-0.7-0.3-1.1-0.6-1.3c0-0.4,0-0.8,0-1.3
			c0-20.8-23.4-37.8-52.3-37.8s-52.3,16.9-52.3,37.8c0,0.4,0,0.8,0,1.1c-0.5,0.2-0.8,0.6-0.8,1.5c-0.1,1.4,0.2,3.8,0.5,5.3
			c-0.4,0.1-0.6,0.1-0.6,0.1l0,0l11.4,46l0,0c0,0,2-0.3,3.3-0.5s2.1-1,1.8-2c-0.3-1.1-10.4-42-10.7-43c-0.1-0.4-0.3-0.7-0.6-0.8
			c-0.4-2-0.2-4.3,0.1-5.9c0.1-0.6,0-1.2-1.2-1.2c0.1-18.9,22-33.1,49-33.1s48.9,14.2,49,33.1c-0.1,0-0.1,0-0.2,0
			c-1.2,0-1.4,0.6-1.2,1.2c0.3,1.5,0.5,3.9,0.1,5.9c-0.3,0.2-0.5,0.4-0.6,0.8c-0.2,1-10.4,41.9-10.7,43s0.5,1.8,1.8,2
			s3.3,0.5,3.3,0.5l0,0L216.8,389.3L216.8,389.3z"/>
		<path class="st5" d="M196.9,354.1c1.9-2,2.3-2.7,2.3-2.7c-8.9-6.3-21.5-10.1-35.5-10.1c-13.3,0-25.3,3.4-34.2,9.2
			c0,0,0.7,1.2,2.7,3.2c2,2.1,5.2,2.4,8.5,1.2c6.9-2.4,14.6-4,23-4c8.8,0,17,1.6,24,4.5C192.5,357,195,356.1,196.9,354.1z"/>
	</g>
	<g>
		<rect x="640.1" y="300.6" class="st2" width="76.8" height="185"/>
		<path class="st5" d="M716.9,447.5v38.1h-76.8v-38.1c8.3-13.7,22.4-22.7,38.4-22.7S708.5,433.8,716.9,447.5z"/>
		<rect x="646.7" y="395.9" class="st9" width="63.6" height="14.3"/>
		<rect x="646.7" y="305.3" class="st9" width="63.6" height="85"/>
		<rect x="651.2" y="312.7" class="st2" width="53.8" height="14.6"/>
		<rect x="651.2" y="329.4" class="st2" width="53.8" height="14.6"/>
		<rect x="651.2" y="346.2" class="st2" width="53.8" height="14.6"/>
		<rect x="651.2" y="363" class="st2" width="53.8" height="14.6"/>
		<g>
			<g>
				<rect x="663.6" y="398.7" class="st10" width="8.3" height="2.5"/>
				<rect x="673.9" y="398.7" class="st10" width="8.3" height="2.5"/>
				<rect x="685" y="398.7" class="st10" width="8.3" height="2.5"/>
			</g>
			<circle class="st10" cx="676.3" cy="405.8" r="0.9"/>
			<circle class="st10" cx="680.5" cy="405.8" r="0.9"/>
		</g>
		<g>
			<circle class="st5" cx="652.5" cy="419" r="4.1"/>
			<circle class="st5" cx="704.4" cy="419" r="4.1"/>
		</g>
		<g>
			<rect x="644.2" y="485.6" class="st11" width="14.9" height="6.9"/>
			<rect x="697.7" y="485.6" class="st11" width="14.9" height="6.9"/>
		</g>
	</g>
	<g>
		<path class="st12" d="M592.7,599.4H667c2.4,0,4.3,1.9,4.3,4.3v119.1c0,2.4-1.9,4.3-4.3,4.3h-74.4c-2.4,0-4.3-1.9-4.3-4.3V603.6
			C588.4,601.3,590.3,599.4,592.7,599.4z"/>
		<path class="st2" d="M592.7,592.3H667c2.4,0,4.3,1.9,4.3,4.3v119.1c0,2.4-1.9,4.3-4.3,4.3h-74.4c-2.4,0-4.3-1.9-4.3-4.3V596.6
			C588.4,594.2,590.3,592.3,592.7,592.3z"/>
		<rect x="597.9" y="608.1" class="st13" width="63.8" height="55.3"/>
		<rect x="597.9" y="610.5" class="st14" width="63.8" height="55.3"/>
		<path class="st14" d="M608.8,673.7h2.5c1.7,0,3,1.3,3,3v1.9c0,1.7,1.3,3,3,3h1.9c1.7,0,3,1.3,3,3v2.5c0,1.7-1.3,3-3,3h-1.9
			c-1.7,0-3,1.3-3,3v1.9c0,1.7-1.3,3-3,3h-2.5c-1.7,0-3-1.3-3-3v-1.9c0-1.7-1.3-3-3-3h-1.9c-1.7,0-3-1.3-3-3v-2.5c0-1.7,1.3-3,3-3
			h1.9c1.7,0,3-1.3,3-3v-1.9C605.8,675.1,607.2,673.7,608.8,673.7z"/>
		<g>
			<g>
				<g>
					<circle class="st14" cx="648.6" cy="676.7" r="4.1"/>
					<circle class="st14" cx="648.6" cy="694.6" r="4.1"/>
				</g>
				<g>
					<circle class="st14" cx="639.7" cy="685.7" r="4.1"/>
					<circle class="st14" cx="657.6" cy="685.7" r="4.1"/>
				</g>
			</g>
		</g>
		<g>
			<g>
				<rect x="616.6" y="704.9" class="st14" width="5.3" height="2"/>
				<rect x="627.2" y="704.9" class="st14" width="5.3" height="2"/>
				<rect x="637.9" y="704.9" class="st14" width="5.3" height="2"/>
			</g>
		</g>
	</g>
	<g>
		<g>
			<rect x="77.4" y="495.3" class="st1" width="106.2" height="145.9"/>
			<rect x="93.2" y="495.3" class="st11" width="106.2" height="145.9"/>
			<polygon class="st15" points="77.4,641.2 93.2,641.2 99.5,648.8 71.1,648.8 			"/>
			<polygon class="st1" points="93.2,641.2 199.4,641.2 205.7,648.8 99.5,648.8 			"/>
			<rect x="83.6" y="495.3" class="st5" width="1.8" height="145.9"/>
			<rect x="77.4" y="560.3" class="st5" width="122" height="1.8"/>
		</g>
		<g>
			<g>
				<path class="st2" d="M151.7,651.4c6.8,0,12.3-5.5,12.3-12.3s-5.5-12.3-12.3-12.3s-12.3,5.5-12.3,12.3S144.9,651.4,151.7,651.4z"
					/>
				<path class="st2" d="M204,651.4c6.8,0,12.3-5.5,12.3-12.3s-5.5-12.3-12.3-12.3s-12.3,5.5-12.3,12.3S197.2,651.4,204,651.4z"/>
			</g>
			<path class="st11" d="M156.3,608.1c-4.1-5-23.4-10.7-30.2,0.3l6.1,2.7L156.3,608.1z"/>
			<path class="st11" d="M199.4,608.1c4.1-5,23.4-10.7,30.2,0.3l-6.1,2.7L199.4,608.1z"/>
			<path class="st2" d="M127.5,606.6c-7,7.6-11.9,24.5-13.8,42.6c-2.2,21.2-1.2,30.4,8.9,31.1c10.1,0.7,14.6-21.5,20.5-27.6
				c9.7-10.1,21.7-8.3,34.7-8.3l0,0c13,0.1,25-1.8,34.7,8.3c5.9,6.2,10.4,28.4,20.5,27.6c10.1-0.7,11.1-9.9,8.9-31.1
				c-1.9-18.1-6.8-35-13.8-42.6H127.5z"/>
			<path class="st1" d="M135.8,635.1c8.3,0,15.1-6.8,15.1-15.1s-6.8-15.1-15.1-15.1s-15.1,6.8-15.1,15.1
				C120.7,628.3,127.5,635.1,135.8,635.1z"/>
			<path class="st1" d="M219.4,635.1c8.3,0,15.1-6.8,15.1-15.1s-6.8-15.1-15.1-15.1s-15.1,6.8-15.1,15.1
				C204.4,628.3,211.1,635.1,219.4,635.1z"/>
			<path class="st5" d="M131.9,611.3c0-0.8,0.7-1.5,1.5-1.5h2.2h2.2c0.8,0,1.5,0.7,1.5,1.5v4.7c-4.4,4-3,4-7.4,0V611.3z"/>
			<path class="st5" d="M126,624.6c-0.9,0-1.6-0.7-1.6-1.6v-2.1v-2.1c0-0.9,0.7-1.6,1.6-1.6h4.7c4,4.4,4,3,0,7.4L126,624.6
				L126,624.6z"/>
			<path class="st5" d="M139.3,630.5c0,0.9-0.7,1.6-1.6,1.6h-2.1h-2.1c-0.9,0-1.6-0.7-1.6-1.6v-4.7c4.4-4,3-4,7.4,0L139.3,630.5
				L139.3,630.5z"/>
			<path class="st5" d="M145.1,617.2c0.9,0,1.6,0.7,1.6,1.6v2.1v2.1c0,0.9-0.7,1.6-1.6,1.6h-4.6c-4-4.4-4-3,0-7.4L145.1,617.2
				L145.1,617.2z"/>
			<g>
				<g>
					<circle class="st5" cx="219.4" cy="612.2" r="3.9"/>
					<circle class="st5" cx="219.4" cy="627.9" r="3.9"/>
				</g>
				<g>
					<circle class="st5" cx="211.6" cy="620" r="3.9"/>
					<circle class="st5" cx="227.3" cy="620" r="3.9"/>
				</g>
			</g>
			<g>
				<path class="st5" d="M152.2,647.7c4.5,0,8.2-3.7,8.2-8.2s-3.7-8.2-8.2-8.2s-8.2,3.7-8.2,8.2S147.7,647.7,152.2,647.7z"/>
				<circle class="st16" cx="152.2" cy="639.4" r="4.5"/>
			</g>
			<g>
				<path class="st5" d="M201.8,647.7c4.5,0,8.2-3.7,8.2-8.2s-3.7-8.2-8.2-8.2s-8.2,3.7-8.2,8.2C193.5,644,197.2,647.7,201.8,647.7z
					"/>
				<circle class="st16" cx="201.8" cy="639.4" r="4.5"/>
			</g>
			<path class="st5" d="M153.4,605h48.8v20.1c0,1.4-1.2,2.5-2.6,2.5H156c-1.4,0-2.6-1.1-2.6-2.5V605z"/>
		</g>
	</g>
	<g>
		<path class="st17" d="M126,221.4L126,221.4c17.6-5.2,36.3,4.9,41.6,22.5l8.7,29.1c5.2,17.6-4.9,36.3-22.5,41.6l0,0
			c-17.6,5.2-36.3-4.9-41.6-22.5l-8.7-29.1C98.2,245.3,108.4,226.6,126,221.4z"/>
		<path class="st11" d="M123.7,213.8L123.7,213.8c17.6-5.2,36.3,4.9,41.6,22.5l8.7,29.1c5.2,17.6-4.9,36.3-22.5,41.6l0,0
			c-17.6,5.2-36.3-4.9-41.6-22.5l-8.7-29.1C96,237.7,106.1,219,123.7,213.8z"/>
		<path class="st17" d="M127.5,210.5c32.7-6.9,37.7,25.5,45.4,51.3l-27.7,8.2L127.5,210.5L127.5,210.5z M136.4,272.6l-27.7,8.2
			c-7.7-25.8-21.2-55.7,10-67.8L136.4,272.6z"/>
		
			<rect x="128.2" y="216.1" transform="matrix(0.9585 -0.2851 0.2851 0.9585 -64.1418 47.9863)" class="st18" width="9.1" height="56.4"/>
		
			<rect x="125" y="220.2" transform="matrix(0.9585 -0.2851 0.2851 0.9585 -61.2242 46.6296)" class="st19" width="9.1" height="26.8"/>
		<g>
			
				<rect x="123.2" y="222.8" transform="matrix(0.9585 -0.2851 0.2851 0.9585 -58.5321 45.4087)" class="st20" width="7" height="1.9"/>
			
				<rect x="124.3" y="226.8" transform="matrix(0.9585 -0.2851 0.2851 0.9585 -59.6295 45.8881)" class="st20" width="7" height="1.9"/>
			
				<rect x="125.5" y="230.7" transform="matrix(0.9585 -0.2851 0.2851 0.9585 -60.691 46.3927)" class="st20" width="7" height="1.9"/>
			
				<rect x="126.7" y="234.6" transform="matrix(0.9585 -0.2851 0.2851 0.9585 -61.7523 46.8971)" class="st20" width="7" height="1.9"/>
			
				<rect x="127.8" y="238.5" transform="matrix(0.9585 -0.2851 0.2851 0.9585 -62.8188 47.371)" class="st20" width="7" height="1.9"/>
			
				<rect x="129" y="242.4" transform="matrix(0.9585 -0.2851 0.2851 0.9585 -63.8804 47.8759)" class="st20" width="7" height="1.9"/>
		</g>
		
			<rect x="107.5" y="271.3" transform="matrix(0.9585 -0.2851 0.2851 0.9585 -71.6582 51.452)" class="st21" width="66.8" height="1.1"/>
		<path class="st5" d="M122,213.2c-0.6-1.8-1.3-4.1-1.8-6.1s-0.8-3.8-0.9-5.1l0,0c-0.8-13.5-7.8-15.5-14.4-17.4
			c-8.9-2.5-17.4-5-14-27.3l3,0.5c-3,19.7,4.2,21.7,11.8,23.9c7.7,2.2,15.7,4.5,16.6,20.1l0,0c0.1,1.1,0.4,2.8,0.8,4.6
			c0.5,2,1.1,4.1,1.7,5.8L122,213.2z"/>
		
			<rect x="120.3" y="208" transform="matrix(0.9585 -0.2851 0.2851 0.9585 -55.5216 43.9939)" class="st5" width="6.1" height="9.4"/>
		<path class="st21" d="M131.7,250.5l5.4-1.6c0.6-0.2,1.2,0.2,1.4,0.7l1.1,3.8c0.2,0.6-0.2,1.2-0.7,1.4l-5.4,1.6
			c-0.6,0.2-1.2-0.2-1.4-0.7l-1.1-3.8C130.8,251.3,131.1,250.6,131.7,250.5z"/>
		<path class="st21" d="M133.9,257.8l5.4-1.6c0.6-0.2,1.2,0.2,1.4,0.7l1.1,3.8c0.2,0.6-0.2,1.2-0.7,1.4l-5.4,1.6
			c-0.6,0.2-1.2-0.2-1.4-0.7l-1.1-3.8C133,258.6,133.3,258,133.9,257.8z"/>
		<path class="st21" d="M136.1,265.2l5.4-1.6c0.6-0.2,1.2,0.2,1.4,0.7l1.1,3.8c0.2,0.6-0.2,1.2-0.7,1.4l-5.4,1.6
			c-0.6,0.2-1.2-0.2-1.4-0.7l-1.1-3.8C135.2,266,135.5,265.4,136.1,265.2z"/>
	</g>
	<g>
		<path class="st5" d="M770.5,552.9c0,2.7-2.2,4.8-4.8,4.8L604.5,558c-2.7,0-4.8-2.2-4.8-4.8l-0.1-47.3c0-2.7,2.2-4.8,4.8-4.8
			l161.1-0.2c2.7,0,4.8,2.2,4.8,4.8L770.5,552.9z"/>
		<g>
			<rect x="602.6" y="507.5" class="st9" width="6.3" height="5.7"/>
			
				<rect x="614" y="507.5" transform="matrix(1 -1.009332e-03 1.009332e-03 1 -0.5148 0.6232)" class="st9" width="6.3" height="5.7"/>
			<rect x="621.8" y="507.5" class="st9" width="6.3" height="5.7"/>
			
				<rect x="629.5" y="507.4" transform="matrix(1 -1.040988e-03 1.040988e-03 1 -0.5308 0.6589)" class="st9" width="6.3" height="5.7"/>
			<rect x="637.3" y="507.4" class="st9" width="6.3" height="5.7"/>
			<rect x="647.9" y="507.4" class="st9" width="6.3" height="5.7"/>
			
				<rect x="655.7" y="507.4" transform="matrix(1 -1.197904e-03 1.197904e-03 1 -0.6108 0.7896)" class="st9" width="6.3" height="5.7"/>
			<rect x="663.4" y="507.4" class="st9" width="6.3" height="5.7"/>
			<rect x="671.2" y="507.4" class="st9" width="6.3" height="5.7"/>
			
				<rect x="680.3" y="507.4" transform="matrix(1 -1.025153e-03 1.025153e-03 1 -0.5227 0.7009)" class="st9" width="6.3" height="5.7"/>
			
				<rect x="688" y="507.4" transform="matrix(1 -1.009527e-03 1.009527e-03 1 -0.5148 0.698)" class="st9" width="6.3" height="5.7"/>
			<rect x="695.8" y="507.4" class="st9" width="6.3" height="5.7"/>
			<rect x="703.5" y="507.4" class="st9" width="6.3" height="5.7"/>
			
				<rect x="713.1" y="507.4" transform="matrix(1 -1.009332e-03 1.009332e-03 1 -0.5146 0.7232)" class="st9" width="6.3" height="5.7"/>
			<rect x="720.9" y="507.4" class="st9" width="6.3" height="5.7"/>
			
				<rect x="728.6" y="507.4" transform="matrix(1 -1.025105e-03 1.025105e-03 1 -0.5227 0.7504)" class="st9" width="6.3" height="5.7"/>
			<rect x="602.9" y="516.8" class="st9" width="6.3" height="5.7"/>
			
				<rect x="610.2" y="516.8" transform="matrix(1 -1.009575e-03 1.009575e-03 1 -0.5243 0.6195)" class="st9" width="6.3" height="5.7"/>
			<rect x="617.4" y="516.8" class="st9" width="6.3" height="5.7"/>
			
				<rect x="624.7" y="516.8" transform="matrix(1 -1.009352e-03 1.009352e-03 1 -0.5242 0.634)" class="st9" width="6.3" height="5.7"/>
			
				<rect x="631.9" y="516.8" transform="matrix(1 -1.230417e-03 1.230417e-03 1 -0.6389 0.7818)" class="st9" width="6.3" height="5.7"/>
			<rect x="639.2" y="516.8" class="st9" width="6.3" height="5.7"/>
			<rect x="646.5" y="516.8" class="st9" width="6.3" height="5.7"/>
			<rect x="653.7" y="516.8" class="st9" width="6.3" height="5.7"/>
			
				<rect x="661" y="516.8" transform="matrix(1 -1.198584e-03 1.198584e-03 1 -0.6224 0.7964)" class="st9" width="6.3" height="5.7"/>
			<rect x="668.2" y="516.7" class="st9" width="6.3" height="5.7"/>
			
				<rect x="675.5" y="516.7" transform="matrix(1 -1.324873e-03 1.324873e-03 1 -0.6877 0.8996)" class="st9" width="6.3" height="5.7"/>
			<rect x="682.7" y="516.7" class="st9" width="6.3" height="5.7"/>
			<rect x="690" y="516.7" class="st9" width="6.3" height="5.7"/>
			<rect x="697.4" y="516.8" class="st9" width="12.3" height="5.7"/>
			<rect x="603.1" y="523.8" class="st9" width="7.9" height="5.7"/>
			<rect x="612" y="523.8" class="st9" width="6.3" height="5.7"/>
			
				<rect x="619.2" y="523.8" transform="matrix(1 -1.198603e-03 1.198603e-03 1 -0.6308 0.7463)" class="st9" width="6.3" height="5.7"/>
			<rect x="626.5" y="523.8" class="st9" width="6.3" height="5.7"/>
			<rect x="633.7" y="523.8" class="st9" width="6.3" height="5.7"/>
			<rect x="641" y="523.8" class="st9" width="6.3" height="5.7"/>
			<rect x="648.3" y="523.8" class="st9" width="6.3" height="5.7"/>
			<rect x="655.5" y="523.8" class="st9" width="6.3" height="5.7"/>
			
				<rect x="662.8" y="523.8" transform="matrix(1 -1.056660e-03 1.056660e-03 1 -0.5561 0.704)" class="st9" width="6.3" height="5.7"/>
			<rect x="670" y="523.8" class="st9" width="6.3" height="5.7"/>
			<rect x="677.3" y="523.8" class="st9" width="6.3" height="5.7"/>
			
				<rect x="684.5" y="523.8" transform="matrix(1 -1.198660e-03 1.198660e-03 1 -0.6308 0.8246)" class="st9" width="6.3" height="5.7"/>
			<rect x="691.8" y="523.7" class="st9" width="6.3" height="5.7"/>
			<rect x="602.8" y="531.1" class="st9" width="9.6" height="5.7"/>
			<rect x="613.5" y="531.1" class="st9" width="6.3" height="5.7"/>
			
				<rect x="620.7" y="531.1" transform="matrix(1 -1.198716e-03 1.198716e-03 1 -0.6396 0.7482)" class="st9" width="6.3" height="5.7"/>
			<rect x="628" y="531.1" class="st9" width="6.3" height="5.7"/>
			
				<rect x="635.3" y="531.1" transform="matrix(1 -1.182832e-03 1.182832e-03 1 -0.6311 0.7556)" class="st9" width="6.3" height="5.7"/>
			<rect x="642.5" y="531" class="st9" width="6.3" height="5.7"/>
			<rect x="649.8" y="531" class="st9" width="6.3" height="5.7"/>
			
				<rect x="657" y="531" transform="matrix(1 -1.198603e-03 1.198603e-03 1 -0.6394 0.7916)" class="st9" width="6.3" height="5.7"/>
			<rect x="664.3" y="531" class="st9" width="6.3" height="5.7"/>
			
				<rect x="671.6" y="531" transform="matrix(1 -1.198698e-03 1.198698e-03 1 -0.6394 0.8092)" class="st9" width="6.3" height="5.7"/>
			<rect x="678.8" y="531" class="st9" width="6.3" height="5.7"/>
			<rect x="686.1" y="531" class="st9" width="6.3" height="5.7"/>
			<rect x="693.3" y="531" class="st9" width="6.3" height="5.7"/>
			<path class="st9" d="M699.2,529.3c1.2,0,0.6,0,1.5,0.1c0,1.3-0.1,5.6,0,7.3l9.1-0.1l0.1-12.8l-10.7-0.1
				C699.2,525.6,699.2,527,699.2,529.3z"/>
			<rect x="602.6" y="538" class="st9" width="12.7" height="5.7"/>
			<rect x="696.3" y="537.9" class="st9" width="13.4" height="5.7"/>
			<rect x="616.2" y="538" class="st9" width="6.3" height="5.7"/>
			<rect x="623.5" y="538" class="st9" width="6.3" height="5.7"/>
			<rect x="630.7" y="538" class="st9" width="6.3" height="5.7"/>
			<rect x="638" y="538" class="st9" width="6.3" height="5.7"/>
			<rect x="645.3" y="538" class="st9" width="6.3" height="5.7"/>
			<rect x="652.5" y="537.9" class="st9" width="6.3" height="5.7"/>
			
				<rect x="659.8" y="537.9" transform="matrix(1 -1.056760e-03 1.056760e-03 1 -0.5711 0.7009)" class="st9" width="6.3" height="5.7"/>
			<rect x="667" y="537.9" class="st9" width="6.3" height="5.7"/>
			<rect x="674.3" y="537.9" class="st9" width="6.3" height="5.7"/>
			<rect x="681.6" y="537.9" class="st9" width="6.3" height="5.7"/>
			<rect x="688.8" y="537.9" class="st9" width="6.3" height="5.7"/>
			<rect x="630.8" y="545" class="st9" width="52.5" height="5.7"/>
			<rect x="602.5" y="545" class="st9" width="9.8" height="5.7"/>
			<rect x="613.4" y="545" class="st9" width="7.4" height="5.7"/>
			
				<rect x="621.8" y="545" transform="matrix(1 -1.017123e-03 1.017123e-03 1 -0.5569 0.6367)" class="st9" width="7.9" height="5.7"/>
			<rect x="684.1" y="545" class="st9" width="9.8" height="5.7"/>
			
				<rect x="695" y="545" transform="matrix(1 -1.183275e-03 1.183275e-03 1 -0.6478 0.8268)" class="st9" width="6.9" height="5.7"/>
			
				<rect x="703.1" y="545" transform="matrix(1 -1.084139e-03 1.084139e-03 1 -0.5935 0.7662)" class="st9" width="6.6" height="5.7"/>
			
				<rect x="720.7" y="538.6" transform="matrix(1 -1.451351e-03 1.451351e-03 1 -0.7851 1.0511)" class="st9" width="6.3" height="5.7"/>
			
				<rect x="713.5" y="545.4" transform="matrix(1 -1.198206e-03 1.198206e-03 1 -0.6564 0.8591)" class="st9" width="6.3" height="5.7"/>
			<rect x="720.8" y="545.4" class="st9" width="6.3" height="5.7"/>
			
				<rect x="728" y="545.4" transform="matrix(1 -1.055947e-03 1.055947e-03 1 -0.5785 0.7724)" class="st9" width="6.3" height="5.7"/>
			
				<rect x="713.6" y="516.8" transform="matrix(1 -1.009002e-03 1.009002e-03 1 -0.524 0.7235)" class="st9" width="6.3" height="5.7"/>
			<rect x="720.9" y="516.8" class="st9" width="6.3" height="5.7"/>
			<rect x="728.1" y="516.8" class="st9" width="6.3" height="5.7"/>
			<rect x="713.7" y="523.4" class="st9" width="6.3" height="5.7"/>
			<rect x="720.9" y="523.4" class="st9" width="6.3" height="5.7"/>
			
				<rect x="728.2" y="523.4" transform="matrix(1 -1.245916e-03 1.245916e-03 1 -0.6551 0.9116)" class="st9" width="6.3" height="5.7"/>
			<rect x="739.1" y="517.3" class="st9" width="6.3" height="5.7"/>
			<rect x="746.5" y="517.3" class="st9" width="6.3" height="5.7"/>
			<rect x="753.8" y="517.3" class="st9" width="6.3" height="5.7"/>
			
				<rect x="761.2" y="517.3" transform="matrix(1 -1.182798e-03 1.182798e-03 1 -0.6147 0.9044)" class="st9" width="6.3" height="5.7"/>
			
				<rect x="739.2" y="507.3" transform="matrix(1 -1.040531e-03 1.040531e-03 1 -0.5304 0.7727)" class="st9" width="6.3" height="5.7"/>
			<rect x="746.6" y="507.3" class="st9" width="6.3" height="5.7"/>
			<rect x="753.9" y="507.3" class="st9" width="6.3" height="5.7"/>
			<rect x="761.3" y="507.3" class="st9" width="6.3" height="5.7"/>
			
				<rect x="739.1" y="524.2" transform="matrix(1 -1.198584e-03 1.198584e-03 1 -0.6312 0.89)" class="st9" width="6.3" height="5.7"/>
			<rect x="746.5" y="524.2" class="st9" width="6.3" height="5.7"/>
			
				<rect x="753.8" y="524.2" transform="matrix(1 -1.199397e-03 1.199397e-03 1 -0.6316 0.9083)" class="st9" width="6.3" height="5.7"/>
			
				<rect x="761.2" y="524.4" transform="matrix(1 -1.056660e-03 1.056660e-03 1 -0.5602 0.808)" class="st9" width="6.3" height="12.4"/>
			
				<rect x="739.1" y="531.1" transform="matrix(1 -1.198565e-03 1.198565e-03 1 -0.6394 0.89)" class="st9" width="6.3" height="5.7"/>
			<rect x="746.5" y="531.1" class="st9" width="6.3" height="5.7"/>
			
				<rect x="753.8" y="531.1" transform="matrix(1 -1.198924e-03 1.198924e-03 1 -0.6396 0.9079)" class="st9" width="6.3" height="5.7"/>
			
				<rect x="739.1" y="538.2" transform="matrix(1 -1.198599e-03 1.198599e-03 1 -0.648 0.89)" class="st9" width="6.3" height="5.7"/>
			
				<rect x="746.5" y="538.2" transform="matrix(1 -1.009336e-03 1.009336e-03 1 -0.5457 0.7569)" class="st9" width="6.3" height="5.7"/>
			
				<rect x="753.8" y="538.2" transform="matrix(1 -1.183205e-03 1.183205e-03 1 -0.6396 0.896)" class="st9" width="6.3" height="5.7"/>
			<rect x="739.4" y="545.1" class="st9" width="13.3" height="5.7"/>
			<rect x="753.9" y="545.1" class="st9" width="6.3" height="5.7"/>
			<rect x="761.2" y="538.4" class="st9" width="6.3" height="12.1"/>
		</g>
	</g>
	<g>
		<path class="st4" d="M438.1,106.4c0-0.3,0.4-2.4,0.2-3.6c-0.4-3.2-20-2-19.6,1.2l0.4,3L438.1,106.4z"/>
		<path class="st4" d="M355.4,128.3c-0.2-0.3-1.5-1.9-1.9-3.1c-1.2-3,16.4-11.6,17.6-8.6l1.1,2.8L355.4,128.3z"/>
		<path class="st12" d="M396.6,116.1c-2.7,0.7-12.7,3.1-14.4,2.8c-2-0.3-7.2-2.1-8.6-2c-5.5,0.1-19.4,6.1-20.7,11
			c0,0-3.3,17.7-2.2,34.7c1.1,17.1,4.8,27.6,7.7,31.7c2.8,4.1,5.2,5.4,8,5c2.9-0.5,5.9-2.2,11.1-7.9s6.9-11.5,14-16.4
			c5.1-3.6,14.3-6.2,18.8-7.3c4.5-1.2,13.8-3.4,20-2.8c8.5,0.8,12.9,5,20.2,7.4c7.3,2.4,10.8,2.4,13.5,1.4s4.1-3.3,4.5-8.3
			c0.5-4.9-1.5-16-8.9-31.4s-19-29.2-19-29.2c-3.6-3.7-18.6-2.1-23.5,0.6c-1.3,0.7-4.9,4.8-6.5,6
			C409.1,112.6,399.2,115.4,396.6,116.1z"/>
		<path class="st2" d="M396.6,116.1c-2.7,0.7-12.7,3.1-14.4,2.8c-2-0.3-7.2-2.1-8.6-2c-5.5,0.1-19.4,6.1-20.7,11
			c0,0-3.3,17.7-2.2,34.7c0.5,7,1.4,12.9,2.4,17.7c1.3,4.2,2.7,7.2,3.9,9c2.8,4.1,5.2,5.4,8,5c2.9-0.5,5.9-2.2,11.1-7.9
			s6.9-11.5,14-16.4c5.1-3.6,14.3-6.2,18.8-7.3c4.5-1.2,13.8-3.4,20-2.8c8.5,0.8,12.9,5,20.2,7.4c7.3,2.4,10.8,2.4,13.5,1.4
			s4.1-3.3,4.5-8.3c0.2-2.1-0.1-5.4-1-9.7c-1.4-4.7-3.5-10.3-6.6-16.6c-7.4-15.4-19-29.2-19-29.2c-3.6-3.7-18.6-2.1-23.5,0.6
			c-1.3,0.7-4.9,4.8-6.5,6C409.1,112.6,399.2,115.4,396.6,116.1z"/>
		<path class="st4" d="M372.4,147.3c4.6-1.2,7.3-5.9,6.1-10.5c-1.2-4.6-5.9-7.3-10.5-6.1s-7.3,5.9-6.1,10.5
			C363.1,145.8,367.8,148.5,372.4,147.3z"/>
		<path class="st5" d="M371.7,144.8c3.2-0.8,5.1-4.1,4.3-7.3c-0.8-3.2-4.1-5.1-7.3-4.3c-3.2,0.8-5.1,4.1-4.3,7.3
			C365.2,143.8,368.5,145.7,371.7,144.8z"/>
		<path class="st4" d="M425,156c4.6-1.2,7.4-6,6.2-10.6c-1.2-4.6-6-7.4-10.6-6.2s-7.4,6-6.2,10.6C415.6,154.4,420.4,157.2,425,156z"
			/>
		<path class="st5" d="M424.4,153.4c3.2-0.9,5.2-4.2,4.3-7.4c-0.9-3.2-4.2-5.2-7.4-4.3c-3.2,0.9-5.2,4.2-4.3,7.4
			C417.8,152.3,421.1,154.3,424.4,153.4z"/>
		<path class="st22" d="M394.6,164c4.8-1.3,7.7-6.2,6.4-11c-1.3-4.8-6.2-7.7-11-6.4s-7.7,6.2-6.4,11
			C384.8,162.4,389.8,165.3,394.6,164z"/>
		<path class="st4" d="M394.1,162.3c3.9-1,6.2-5,5.2-8.9s-5-6.2-8.9-5.2s-6.2,5-5.2,8.9C386.3,161,390.3,163.4,394.1,162.3z"/>
		<path class="st5" d="M393,148c0.9,4,1.1,4,5,2.8c0.6,0.7,1,1.6,1.2,2.6c0.2,0.9,0.3,1.8,0.2,2.7c-4.1,1-4.2,1-3,5.1
			c-0.7,0.5-1.5,0.9-2.4,1.1c-1,0.3-2,0.3-3,0.2c-0.9-3.9-1.1-4-4.8-2.9c-0.5-0.7-0.9-1.5-1.2-2.5c-0.2-1-0.3-1.9-0.2-2.8
			c3.7-0.9,3.8-1.1,2.7-4.8c0.8-0.6,1.7-1.1,2.6-1.3C391.3,148,392.2,147.9,393,148z"/>
		<g>
			<g>
				<path class="st5" d="M430.4,117.2c-2.1,0-4-1.4-4.5-3.5c-0.7-2.5,0.8-5.1,3.3-5.7c0.4-0.1,0.8-0.2,1.2-0.2c2.1,0,4,1.4,4.5,3.5
					c0.3,1.2,0.1,2.5-0.5,3.5c-0.6,1.1-1.6,1.8-2.8,2.2C431.2,117.1,430.8,117.2,430.4,117.2z"/>
				
					<ellipse transform="matrix(0.9673 -0.2538 0.2538 0.9673 -14.4607 112.9184)" class="st5" cx="430.4" cy="112.5" rx="4.3" ry="4.3"/>
				<path class="st5" d="M423.4,128.2c-2.1,0-4-1.4-4.5-3.5c-0.7-2.5,0.8-5,3.3-5.7c0.4-0.1,0.8-0.2,1.2-0.2c2.1,0,4,1.4,4.5,3.5
					c0.7,2.5-0.8,5.1-3.3,5.7C424.2,128.2,423.8,128.2,423.4,128.2L423.4,128.2z"/>
				
					<ellipse transform="matrix(0.9673 -0.2538 0.2538 0.9673 -17.4808 111.5023)" class="st5" cx="423.4" cy="123.5" rx="4.3" ry="4.3"/>
				<path class="st5" d="M435.1,134.9c-2.1,0-4-1.4-4.5-3.5c-0.3-1.2-0.1-2.5,0.5-3.5c0.6-1.1,1.6-1.8,2.8-2.2
					c0.4-0.1,0.8-0.2,1.2-0.2c2.1,0,4,1.4,4.5,3.5c0.3,1.2,0.1,2.5-0.5,3.5c-0.6,1.1-1.6,1.8-2.8,2.2
					C435.9,134.8,435.5,134.9,435.1,134.9z"/>
				
					<ellipse transform="matrix(0.9673 -0.2538 0.2538 0.9673 -18.7987 114.6922)" class="st5" cx="435.1" cy="130.2" rx="4.3" ry="4.3"/>
				<path class="st5" d="M441.4,123.5c-2.1,0-4-1.4-4.5-3.5c-0.7-2.5,0.8-5,3.3-5.7c0.4-0.1,0.8-0.2,1.2-0.2c2.1,0,4,1.4,4.5,3.5
					c0.7,2.5-0.8,5-3.3,5.7C442.2,123.4,441.8,123.5,441.4,123.5z"/>
				
					<ellipse transform="matrix(0.9673 -0.2538 0.2538 0.9673 -15.6994 115.916)" class="st5" cx="441.4" cy="118.8" rx="4.3" ry="4.3"/>
			</g>
		</g>
		<g>
			
				<ellipse transform="matrix(0.9673 -0.2538 0.2538 0.9673 -21.5694 104.4182)" class="st4" cx="393.9" cy="135.8" rx="2.4" ry="2.4"/>
			
				<ellipse transform="matrix(0.9672 -0.2541 0.2541 0.9672 -20.1342 108.1324)" class="st4" cx="408.5" cy="132" rx="2.5" ry="2.5"/>
		</g>
	</g>
	<g>
		<g>
			<rect x="213.9" y="94.2" class="st23" width="86.4" height="84"/>
			<rect x="215.6" y="95.8" class="st24" width="83.1" height="80.7"/>
			<path class="st15" d="M257.1,173.7c20.7,0,37.5-16.9,37.5-37.5c0-20.7-16.9-37.5-37.5-37.5c-20.7,0-37.5,16.9-37.5,37.5
				S236.5,173.7,257.1,173.7z"/>
			<path class="st1" d="M257.1,98.6c5.5,0,10.8,1.2,15.5,3.3l-8.3,24h-14.4l-8.3-24C246.4,99.8,251.6,98.6,257.1,98.6z"/>
			<path class="st1" d="M257.1,173.9c5.5,0,10.8-1.2,15.5-3.3l-8.3-24h-14.4l-8.3,24C246.4,172.7,251.6,173.9,257.1,173.9z"/>
			<path class="st25" d="M257.1,149c7.1,0,12.9-5.8,12.9-12.9c0-7.1-5.8-12.9-12.9-12.9s-12.9,5.8-12.9,12.9
				C244.3,143.2,250.1,149,257.1,149z"/>
			<ellipse class="st26" cx="257.1" cy="136.2" rx="4.1" ry="4.1"/>
		</g>
		<g>
			
				<rect x="210" y="118.1" transform="matrix(0.4919 -0.8707 0.8707 0.4919 -10.694 301.8145)" class="st23" width="86.4" height="84"/>
			
				<rect x="211.7" y="119.7" transform="matrix(0.4919 -0.8707 0.8707 0.4919 -10.7094 301.8469)" class="st5" width="83.1" height="80.7"/>
			<path class="st17" d="M285.9,178.6c10.2-18,3.8-41-14.2-51.2s-41-3.8-51.2,14.2s-3.8,41,14.2,51.2S275.7,196.6,285.9,178.6z"/>
			<path class="st27" d="M220.5,141.6c2.7-4.8,6.3-8.8,10.6-11.9l16.8,19.1l-7.1,12.5l-25-4.6C216.2,151.6,217.8,146.5,220.5,141.6z
				"/>
			<path class="st27" d="M286,178.7c2.7-4.8,4.3-10,4.7-15.2l-25-4.6l-7.1,12.5l16.8,19C279.7,187.5,283.3,183.5,286,178.7z"/>
			<path class="st25" d="M264.4,166.4c3.5-6.2,1.3-14.1-4.9-17.6c-6.2-3.5-14.1-1.3-17.6,4.9s-1.3,14.1,4.9,17.6
				C253,174.8,260.9,172.6,264.4,166.4z"/>
			
				<ellipse transform="matrix(0.4919 -0.8707 0.8707 0.4919 -10.6915 301.8123)" class="st26" cx="253.2" cy="160.1" rx="4.1" ry="4.1"/>
		</g>
	</g>
	<g>
		<path class="st2" d="M577.7,135l108.8,38.9c9.2,3.3,14,13.5,10.7,22.7l-13.8,38.6c-3.3,9.2-13.5,14-22.7,10.7L551.9,207
			c-9.2-3.3-14-13.5-10.7-22.7l13.8-38.6C558.3,136.5,568.5,131.7,577.7,135z"/>
		
			<rect x="590.1" y="136.2" transform="matrix(0.3369 -0.9415 0.9415 0.3369 234.4065 708.3525)" class="st14" width="60.1" height="103.2"/>
		<path class="st5" d="M555.8,156.6c-0.3-0.1-0.5-0.5-0.3-0.8l1.3-3.3c0.1-0.1,0.2-0.3,0.3-0.3c0.1-0.1,0.3-0.1,0.5,0l4.3,1.7
			c0.3,0.1,0.6,0.1,0.9,0c0.3-0.1,0.5-0.4,0.7-0.7l1.7-4.3c0.1-0.1,0.2-0.3,0.3-0.3c0.1-0.1,0.3-0.1,0.5,0l3.3,1.3
			c0.1,0.1,0.3,0.2,0.3,0.3c0.1,0.1,0.1,0.3,0,0.5l-1.7,4.3c-0.1,0.3-0.1,0.6,0,0.9s0.4,0.5,0.7,0.7l4.3,1.7
			c0.3,0.1,0.5,0.5,0.3,0.8l-1.3,3.3c-0.1,0.1-0.2,0.3-0.3,0.3c-0.1,0.1-0.3,0.1-0.5,0l-4.3-1.7c-0.3-0.1-0.6-0.1-0.9,0
			c-0.3,0.1-0.5,0.4-0.7,0.7l-1.7,4.3c-0.1,0.1-0.2,0.3-0.3,0.3c-0.1,0.1-0.3,0.1-0.5,0l-3.3-1.3c-0.1-0.1-0.3-0.2-0.3-0.3
			c-0.1-0.1-0.1-0.3,0-0.5l1.7-4.3c0.1-0.3,0.1-0.6,0-0.9c-0.1-0.3-0.4-0.5-0.7-0.7L555.8,156.6z"/>
		<path class="st5" d="M554.1,189.1c3.3,1.2,6.9-0.5,8.1-3.8c1.2-3.3-0.5-6.9-3.8-8.1c-3.3-1.2-6.9,0.5-8.1,3.8
			C549.1,184.3,550.8,188,554.1,189.1z"/>
		<g>
			<g>
				<path class="st5" d="M677.1,200.5c1.7,0.6,3.7-0.3,4.3-2s-0.3-3.7-2-4.3s-3.7,0.3-4.3,2C674.5,198,675.4,199.9,677.1,200.5z"/>
				
					<ellipse transform="matrix(0.3369 -0.9415 0.9415 0.3369 267.8146 784.1136)" class="st5" cx="690.6" cy="201.9" rx="3.3" ry="3.3"/>
			</g>
		</g>
		<g>
			<g>
				<path class="st5" d="M685.9,195.5c1.7,0.6,3.7-0.3,4.3-2s-0.3-3.7-2-4.3s-3.7,0.3-4.3,2C683.3,193,684.2,194.9,685.9,195.5z"/>
				<path class="st5" d="M680.7,210c1.7,0.6,3.7-0.3,4.3-2s-0.3-3.7-2-4.3s-3.7,0.3-4.3,2C678.1,207.4,679,209.4,680.7,210z"/>
			</g>
		</g>
		<path class="st5" d="M671.4,231.1c3.3,1.2,6.9-0.5,8.1-3.8c1.2-3.3-0.5-6.9-3.8-8.1c-3.3-1.2-6.9,0.5-8.1,3.8
			C666.4,226.3,668.1,229.9,671.4,231.1z"/>
	</g>
	<text transform="matrix(1 0 0 1 305.4051 336.9796)" class="st28 st29 st30">ARCADE</text>
	<text transform="matrix(1 0 0 1 327.4051 396.9796)" class="st28 st29 st30">GAME</text>
</g>
<g id="DESIGNED_BY_FREEPIK">
</g>
</svg>
