<?xml version="1.0" encoding="utf-8"?>
<!-- Generator: Adobe Illustrator 21.1.0, SVG Export Plug-In . SVG Version: 6.00 Build 0)  -->
<svg version="1.1" xmlns="http://www.w3.org/2000/svg" xmlns:xlink="http://www.w3.org/1999/xlink" x="0px" y="0px"
	 viewBox="0 0 800 800" style="enable-background:new 0 0 800 800;" xml:space="preserve">
<style type="text/css">
	.st0{fill:#009B95;}
	.st1{fill:#363738;}
	.st2{fill:none;stroke:#373730;stroke-miterlimit:10;}
	.st3{fill:#A5C330;}
	.st4{fill:#5C4130;}
	.st5{fill:#FFF0E3;}
	.st6{fill:#373739;}
	.st7{fill:#414042;}
	.st8{fill:#081928;}
	.st9{fill:#FDBE31;}
	.st10{fill:#0F3041;}
	.st11{fill:#906E15;}
	.st12{fill:#F3DBBD;}
	.st13{fill:#664B3A;}
	.st14{fill:#CE9034;}
	.st15{fill:#F26C2F;}
	.st16{fill:#DBC7AC;}
	.st17{fill:#8D3B11;}
	.st18{fill:#F68E21;}
	.st19{fill:#8F5104;}
	.st20{fill:#AFCD3A;}
	.st21{fill:#E74424;}
	.st22{fill:#042636;}
	.st23{clip-path:url(#SVGID_2_);}
	.st24{fill:#417685;}
	.st25{fill:none;}
	.st26{fill:#804F2A;}
	.st27{fill:#FF7845;}
	.st28{fill:#FFFFFF;}
</style>
<g id="background">
	<rect y="-0.3" class="st0" width="809.6" height="809.6"/>
	<g>
		<g>
			<g>
				<path class="st1" d="M285,790.4v-0.3c-0.3,0.4-0.7,0.7-1,1c-0.3,0.3-0.7,0.4-1.1,0.6c-0.4,0.1-0.8,0.2-1.3,0.2
					c-0.6,0-1.2-0.1-1.7-0.4c-0.5-0.3-1-0.6-1.4-1.1c-0.4-0.5-0.7-1.1-0.9-1.7c-0.2-0.7-0.3-1.4-0.3-2.1c0-1.6,0.4-2.9,1.2-3.8
					c0.8-0.9,1.8-1.4,3.1-1.4c0.7,0,1.4,0.1,1.9,0.4c0.5,0.3,1,0.7,1.5,1.2v-3.8c0-0.5,0.1-0.9,0.3-1.2c0.2-0.3,0.5-0.4,0.9-0.4
					c0.4,0,0.7,0.1,0.9,0.4c0.2,0.3,0.3,0.6,0.3,1.1v11.4c0,0.5-0.1,0.9-0.3,1.1c-0.2,0.2-0.5,0.4-0.9,0.4c-0.4,0-0.6-0.1-0.9-0.4
					C285.1,791.3,285,790.9,285,790.4z M279.9,786.6c0,0.7,0.1,1.3,0.3,1.8c0.2,0.5,0.5,0.9,0.9,1.1c0.4,0.2,0.8,0.4,1.2,0.4
					c0.5,0,0.9-0.1,1.2-0.4c0.4-0.2,0.7-0.6,0.9-1.1c0.2-0.5,0.3-1.1,0.3-1.8c0-0.7-0.1-1.3-0.3-1.8c-0.2-0.5-0.5-0.9-0.9-1.1
					c-0.4-0.3-0.8-0.4-1.3-0.4c-0.5,0-0.9,0.1-1.3,0.4c-0.4,0.3-0.7,0.7-0.9,1.2C280,785.4,279.9,786,279.9,786.6z"/>
				<path class="st1" d="M296.4,787.3h-5.1c0,0.6,0.1,1.1,0.4,1.6c0.2,0.4,0.5,0.8,0.9,1c0.4,0.2,0.8,0.3,1.3,0.3
					c0.3,0,0.6,0,0.9-0.1c0.3-0.1,0.5-0.2,0.7-0.3c0.2-0.2,0.5-0.3,0.7-0.5c0.2-0.2,0.5-0.4,0.8-0.7c0.1-0.1,0.3-0.2,0.6-0.2
					c0.3,0,0.5,0.1,0.6,0.2c0.2,0.1,0.2,0.3,0.2,0.6c0,0.2-0.1,0.5-0.3,0.8c-0.2,0.3-0.5,0.6-0.8,0.9c-0.4,0.3-0.8,0.5-1.4,0.7
					c-0.6,0.2-1.2,0.3-1.9,0.3c-1.7,0-3-0.5-3.9-1.4c-0.9-0.9-1.4-2.2-1.4-3.9c0-0.8,0.1-1.5,0.3-2.1c0.2-0.7,0.6-1.2,1-1.7
					c0.4-0.5,1-0.8,1.6-1.1c0.6-0.2,1.3-0.4,2.1-0.4c1,0,1.9,0.2,2.6,0.6c0.7,0.4,1.3,1,1.6,1.7c0.4,0.7,0.5,1.4,0.5,2.1
					c0,0.7-0.2,1.1-0.6,1.3C297.6,787.2,297.1,787.3,296.4,787.3z M291.4,785.8h4.7c-0.1-0.9-0.3-1.6-0.7-2c-0.4-0.4-1-0.7-1.6-0.7
					c-0.6,0-1.2,0.2-1.6,0.7C291.7,784.3,291.4,784.9,291.4,785.8z"/>
				<path class="st1" d="M308.2,788.5c0,0.7-0.2,1.3-0.5,1.8c-0.3,0.5-0.9,0.9-1.5,1.2c-0.7,0.3-1.5,0.4-2.5,0.4
					c-0.9,0-1.7-0.1-2.4-0.4c-0.7-0.3-1.2-0.6-1.5-1.1c-0.3-0.4-0.5-0.9-0.5-1.3c0-0.3,0.1-0.5,0.3-0.7c0.2-0.2,0.5-0.3,0.8-0.3
					c0.3,0,0.5,0.1,0.6,0.2c0.1,0.1,0.3,0.3,0.4,0.6c0.3,0.5,0.6,0.8,1,1c0.4,0.2,0.9,0.3,1.5,0.3c0.5,0,0.9-0.1,1.3-0.3
					c0.3-0.2,0.5-0.5,0.5-0.8c0-0.5-0.2-0.8-0.5-1c-0.3-0.2-0.9-0.4-1.7-0.6c-0.9-0.2-1.6-0.5-2.2-0.7c-0.6-0.2-1-0.6-1.3-1
					c-0.3-0.4-0.5-0.9-0.5-1.5c0-0.5,0.2-1,0.5-1.5c0.3-0.5,0.8-0.8,1.4-1.1c0.6-0.3,1.3-0.4,2.2-0.4c0.7,0,1.3,0.1,1.8,0.2
					c0.5,0.1,1,0.3,1.3,0.6c0.4,0.2,0.6,0.5,0.8,0.8c0.2,0.3,0.3,0.6,0.3,0.8c0,0.3-0.1,0.5-0.3,0.7c-0.2,0.2-0.5,0.3-0.9,0.3
					c-0.3,0-0.5-0.1-0.7-0.2c-0.2-0.2-0.4-0.4-0.6-0.7c-0.2-0.3-0.4-0.5-0.7-0.6c-0.3-0.2-0.6-0.2-1.1-0.2c-0.5,0-0.9,0.1-1.2,0.3
					c-0.3,0.2-0.5,0.4-0.5,0.7c0,0.3,0.1,0.5,0.3,0.7c0.2,0.2,0.5,0.3,0.9,0.4c0.4,0.1,0.9,0.3,1.6,0.4c0.8,0.2,1.5,0.4,2,0.7
					c0.5,0.3,0.9,0.6,1.2,1C308.1,787.6,308.2,788,308.2,788.5z"/>
				<path class="st1" d="M310.9,780.2c-0.4,0-0.7-0.1-0.9-0.3c-0.3-0.2-0.4-0.5-0.4-0.9c0-0.4,0.1-0.7,0.4-0.9
					c0.3-0.2,0.6-0.4,0.9-0.4c0.3,0,0.6,0.1,0.9,0.3c0.3,0.2,0.4,0.5,0.4,0.9c0,0.4-0.1,0.7-0.4,0.9
					C311.5,780.1,311.2,780.2,310.9,780.2z M312.2,782.8v7.5c0,0.5-0.1,0.9-0.4,1.2c-0.2,0.3-0.6,0.4-0.9,0.4
					c-0.4,0-0.7-0.1-0.9-0.4c-0.2-0.3-0.4-0.7-0.4-1.2v-7.4c0-0.5,0.1-0.9,0.4-1.2c0.2-0.3,0.5-0.4,0.9-0.4c0.4,0,0.7,0.1,0.9,0.4
					C312.1,782,312.2,782.4,312.2,782.8z"/>
				<path class="st1" d="M323.5,783.3v7.5c0,0.9-0.1,1.6-0.3,2.2c-0.2,0.6-0.5,1.1-0.9,1.5c-0.4,0.4-0.9,0.7-1.6,0.9
					c-0.7,0.2-1.5,0.3-2.4,0.3c-0.9,0-1.7-0.1-2.4-0.4c-0.7-0.3-1.2-0.6-1.6-1c-0.4-0.4-0.6-0.8-0.6-1.2c0-0.3,0.1-0.6,0.3-0.8
					c0.2-0.2,0.5-0.3,0.8-0.3c0.4,0,0.7,0.2,1,0.5c0.1,0.2,0.3,0.3,0.4,0.5c0.1,0.2,0.3,0.3,0.5,0.4c0.2,0.1,0.4,0.2,0.7,0.3
					c0.3,0.1,0.5,0.1,0.9,0.1c0.7,0,1.2-0.1,1.6-0.3c0.4-0.2,0.6-0.4,0.8-0.8c0.1-0.3,0.2-0.7,0.3-1.1c0-0.4,0-1,0.1-1.8
					c-0.4,0.6-0.9,1-1.4,1.3c-0.5,0.3-1.1,0.4-1.9,0.4c-0.9,0-1.6-0.2-2.3-0.7c-0.6-0.4-1.1-1.1-1.5-1.9c-0.3-0.8-0.5-1.7-0.5-2.8
					c0-0.8,0.1-1.5,0.3-2.1c0.2-0.6,0.5-1.2,0.9-1.6c0.4-0.4,0.8-0.8,1.4-1c0.5-0.2,1.1-0.3,1.7-0.3c0.7,0,1.4,0.1,1.9,0.4
					c0.5,0.3,1,0.7,1.5,1.3v-0.4c0-0.4,0.1-0.8,0.3-1c0.2-0.2,0.5-0.4,0.9-0.4c0.5,0,0.8,0.2,1,0.5
					C323.5,782.2,323.5,782.7,323.5,783.3z M316,786.6c0,1.1,0.2,1.8,0.7,2.4c0.5,0.5,1.1,0.8,1.8,0.8c0.4,0,0.8-0.1,1.2-0.3
					c0.4-0.2,0.7-0.6,0.9-1c0.2-0.5,0.4-1,0.4-1.7c0-1.1-0.2-1.9-0.7-2.5c-0.5-0.6-1.1-0.9-1.8-0.9c-0.7,0-1.3,0.3-1.8,0.8
					C316.2,784.7,316,785.5,316,786.6z"/>
				<path class="st1" d="M327.7,782.8v0.3c0.5-0.6,1-1,1.5-1.3s1.2-0.4,1.9-0.4c0.7,0,1.3,0.2,1.8,0.4c0.5,0.3,0.9,0.7,1.2,1.3
					c0.2,0.3,0.3,0.7,0.3,1c0.1,0.4,0.1,0.8,0.1,1.4v4.8c0,0.5-0.1,0.9-0.4,1.2c-0.2,0.3-0.5,0.4-0.9,0.4c-0.4,0-0.7-0.1-0.9-0.4
					c-0.2-0.3-0.4-0.7-0.4-1.2V786c0-0.9-0.1-1.5-0.4-2c-0.2-0.5-0.7-0.7-1.4-0.7c-0.5,0-0.9,0.1-1.3,0.4c-0.4,0.3-0.7,0.7-0.8,1.1
					c-0.1,0.4-0.2,1.1-0.2,2.2v3.2c0,0.5-0.1,0.9-0.4,1.2c-0.2,0.3-0.6,0.4-0.9,0.4c-0.4,0-0.7-0.1-0.9-0.4
					c-0.2-0.3-0.4-0.7-0.4-1.2v-7.5c0-0.5,0.1-0.9,0.3-1.1c0.2-0.2,0.5-0.4,0.9-0.4c0.2,0,0.4,0.1,0.6,0.2c0.2,0.1,0.3,0.3,0.4,0.5
					C327.6,782.2,327.7,782.5,327.7,782.8z"/>
				<path class="st1" d="M343.4,787.3h-5.1c0,0.6,0.1,1.1,0.4,1.6c0.2,0.4,0.5,0.8,0.9,1c0.4,0.2,0.8,0.3,1.3,0.3
					c0.3,0,0.6,0,0.9-0.1c0.3-0.1,0.5-0.2,0.7-0.3c0.2-0.2,0.5-0.3,0.7-0.5c0.2-0.2,0.5-0.4,0.8-0.7c0.1-0.1,0.3-0.2,0.6-0.2
					c0.3,0,0.5,0.1,0.6,0.2c0.2,0.1,0.2,0.3,0.2,0.6c0,0.2-0.1,0.5-0.3,0.8c-0.2,0.3-0.5,0.6-0.8,0.9c-0.4,0.3-0.8,0.5-1.4,0.7
					c-0.6,0.2-1.2,0.3-1.9,0.3c-1.7,0-3-0.5-3.9-1.4c-0.9-0.9-1.4-2.2-1.4-3.9c0-0.8,0.1-1.5,0.3-2.1c0.2-0.7,0.6-1.2,1-1.7
					c0.4-0.5,1-0.8,1.6-1.1c0.6-0.2,1.3-0.4,2.1-0.4c1,0,1.9,0.2,2.6,0.6c0.7,0.4,1.3,1,1.6,1.7c0.4,0.7,0.5,1.4,0.5,2.1
					c0,0.7-0.2,1.1-0.6,1.3C344.6,787.2,344.1,787.3,343.4,787.3z M338.4,785.8h4.7c-0.1-0.9-0.3-1.6-0.7-2c-0.4-0.4-1-0.7-1.6-0.7
					c-0.6,0-1.2,0.2-1.6,0.7C338.7,784.3,338.4,784.9,338.4,785.8z"/>
				<path class="st1" d="M354,790.4v-0.3c-0.3,0.4-0.7,0.7-1,1c-0.3,0.3-0.7,0.4-1.1,0.6c-0.4,0.1-0.8,0.2-1.3,0.2
					c-0.6,0-1.2-0.1-1.7-0.4c-0.5-0.3-1-0.6-1.4-1.1c-0.4-0.5-0.7-1.1-0.9-1.7c-0.2-0.7-0.3-1.4-0.3-2.1c0-1.6,0.4-2.9,1.2-3.8
					c0.8-0.9,1.8-1.4,3.1-1.4c0.7,0,1.4,0.1,1.9,0.4s1,0.7,1.5,1.2v-3.8c0-0.5,0.1-0.9,0.3-1.2c0.2-0.3,0.5-0.4,0.9-0.4
					c0.4,0,0.7,0.1,0.9,0.4c0.2,0.3,0.3,0.6,0.3,1.1v11.4c0,0.5-0.1,0.9-0.3,1.1c-0.2,0.2-0.5,0.4-0.9,0.4c-0.4,0-0.6-0.1-0.9-0.4
					C354.1,791.3,354,790.9,354,790.4z M348.9,786.6c0,0.7,0.1,1.3,0.3,1.8c0.2,0.5,0.5,0.9,0.9,1.1c0.4,0.2,0.8,0.4,1.2,0.4
					c0.5,0,0.9-0.1,1.2-0.4c0.4-0.2,0.7-0.6,0.9-1.1c0.2-0.5,0.3-1.1,0.3-1.8c0-0.7-0.1-1.3-0.3-1.8c-0.2-0.5-0.5-0.9-0.9-1.1
					c-0.4-0.3-0.8-0.4-1.3-0.4c-0.5,0-0.9,0.1-1.3,0.4c-0.4,0.3-0.7,0.7-0.9,1.2C349,785.4,348.9,786,348.9,786.6z"/>
				<path class="st1" d="M364.6,779v4c0.5-0.5,1-0.9,1.5-1.2c0.5-0.3,1.1-0.4,1.9-0.4c0.9,0,1.6,0.2,2.3,0.6c0.6,0.4,1.2,1,1.5,1.8
					c0.4,0.8,0.5,1.7,0.5,2.8c0,0.8-0.1,1.5-0.3,2.2c-0.2,0.7-0.5,1.2-0.9,1.7c-0.4,0.5-0.8,0.9-1.4,1.1c-0.5,0.3-1.1,0.4-1.8,0.4
					c-0.4,0-0.8,0-1.1-0.1c-0.4-0.1-0.7-0.2-0.9-0.4c-0.2-0.2-0.5-0.3-0.6-0.5c-0.2-0.2-0.4-0.4-0.7-0.7v0.3c0,0.5-0.1,0.9-0.4,1.1
					c-0.2,0.2-0.5,0.4-0.9,0.4c-0.4,0-0.7-0.1-0.9-0.4c-0.2-0.3-0.3-0.6-0.3-1.1v-11.3c0-0.5,0.1-0.9,0.3-1.2
					c0.2-0.3,0.5-0.4,0.9-0.4c0.4,0,0.7,0.1,0.9,0.4C364.5,778.2,364.6,778.5,364.6,779z M364.7,786.7c0,1,0.2,1.8,0.7,2.4
					c0.5,0.6,1.1,0.8,1.9,0.8c0.7,0,1.2-0.3,1.7-0.9c0.5-0.6,0.7-1.4,0.7-2.4c0-0.7-0.1-1.3-0.3-1.8c-0.2-0.5-0.5-0.9-0.8-1.1
					c-0.4-0.3-0.8-0.4-1.3-0.4c-0.5,0-0.9,0.1-1.3,0.4c-0.4,0.3-0.7,0.7-0.9,1.2C364.8,785.4,364.7,786,364.7,786.7z"/>
				<path class="st1" d="M375.6,792.2l0.2-0.6l-3.2-8c-0.2-0.5-0.3-0.8-0.3-1c0-0.2,0.1-0.4,0.2-0.6c0.1-0.2,0.3-0.3,0.5-0.5
					c0.2-0.1,0.4-0.2,0.6-0.2c0.4,0,0.7,0.1,0.8,0.4c0.2,0.2,0.4,0.6,0.5,1l2.2,6.4l2.1-5.9c0.2-0.5,0.3-0.9,0.4-1.1
					c0.1-0.3,0.3-0.5,0.4-0.5c0.1-0.1,0.4-0.1,0.6-0.1c0.2,0,0.4,0.1,0.6,0.2c0.2,0.1,0.3,0.2,0.4,0.4c0.1,0.2,0.1,0.4,0.1,0.6
					c0,0.1-0.1,0.3-0.1,0.5c-0.1,0.2-0.1,0.4-0.2,0.7l-3.4,8.9c-0.3,0.8-0.6,1.4-0.9,1.8c-0.3,0.4-0.6,0.8-1.1,1
					c-0.5,0.2-1.1,0.4-1.9,0.4c-0.8,0-1.3-0.1-1.7-0.2c-0.4-0.2-0.6-0.5-0.6-0.9c0-0.3,0.1-0.5,0.3-0.7c0.2-0.2,0.4-0.2,0.8-0.2
					c0.1,0,0.3,0,0.4,0.1c0.2,0,0.3,0.1,0.4,0.1c0.3,0,0.5,0,0.7-0.1c0.2-0.1,0.3-0.2,0.5-0.5C375.3,793,375.5,792.7,375.6,792.2z"
					/>
			</g>
			<g>
				<path class="st1" d="M413.2,781.6h0.6v-0.8c0-0.8,0.1-1.5,0.3-1.9c0.2-0.5,0.6-0.8,1-1c0.5-0.2,1.2-0.3,2-0.3
					c1.5,0,2.3,0.4,2.3,1.1c0,0.2-0.1,0.4-0.2,0.6c-0.2,0.2-0.3,0.3-0.6,0.3c-0.1,0-0.3,0-0.5-0.1c-0.2,0-0.5-0.1-0.6-0.1
					c-0.5,0-0.8,0.1-0.9,0.4c-0.1,0.3-0.2,0.7-0.2,1.2v0.6h0.6c1,0,1.5,0.3,1.5,0.9c0,0.4-0.1,0.7-0.4,0.8c-0.3,0.1-0.6,0.2-1.1,0.2
					h-0.6v6.9c0,0.5-0.1,0.9-0.4,1.2c-0.2,0.3-0.6,0.4-0.9,0.4c-0.4,0-0.7-0.1-0.9-0.4c-0.2-0.3-0.4-0.7-0.4-1.2v-6.9h-0.7
					c-0.4,0-0.7-0.1-0.9-0.3c-0.2-0.2-0.3-0.4-0.3-0.7C411.9,781.9,412.3,781.6,413.2,781.6"/>
				<path class="st1" d="M421.7,788.2v2.2c0,0.5-0.1,0.9-0.4,1.2c-0.2,0.3-0.6,0.4-0.9,0.4c-0.4,0-0.7-0.1-0.9-0.4
					c-0.2-0.3-0.4-0.7-0.4-1.2v-7.2c0-1.2,0.4-1.7,1.3-1.7c0.4,0,0.7,0.1,0.9,0.4c0.2,0.3,0.3,0.7,0.3,1.2c0.3-0.5,0.6-0.9,0.9-1.2
					c0.3-0.3,0.8-0.4,1.3-0.4c0.5,0,1.1,0.1,1.6,0.4c0.5,0.3,0.8,0.6,0.8,1.1c0,0.3-0.1,0.6-0.3,0.8c-0.2,0.2-0.5,0.3-0.7,0.3
					c-0.1,0-0.3-0.1-0.7-0.2c-0.4-0.1-0.7-0.2-1-0.2c-0.4,0-0.7,0.1-0.9,0.3c-0.2,0.2-0.4,0.5-0.6,0.9c-0.1,0.4-0.2,0.9-0.3,1.4
					C421.7,786.7,421.7,787.4,421.7,788.2"/>
				<path class="st1" d="M433.6,787.3h-5.1c0,0.6,0.1,1.1,0.4,1.6c0.2,0.4,0.5,0.8,0.9,1c0.4,0.2,0.8,0.3,1.3,0.3
					c0.3,0,0.6,0,0.8-0.1c0.3-0.1,0.5-0.2,0.7-0.3c0.2-0.2,0.5-0.3,0.7-0.5c0.2-0.2,0.5-0.4,0.8-0.7c0.1-0.1,0.3-0.2,0.6-0.2
					c0.3,0,0.5,0.1,0.6,0.2c0.2,0.1,0.2,0.3,0.2,0.6c0,0.2-0.1,0.5-0.3,0.8c-0.2,0.3-0.5,0.6-0.8,0.9c-0.4,0.3-0.8,0.5-1.4,0.7
					c-0.6,0.2-1.2,0.3-1.9,0.3c-1.7,0-3-0.5-3.9-1.4c-0.9-1-1.4-2.2-1.4-3.9c0-0.8,0.1-1.5,0.3-2.1c0.2-0.7,0.6-1.2,1-1.7
					c0.4-0.5,1-0.8,1.6-1.1c0.6-0.2,1.3-0.4,2.1-0.4c1,0,1.9,0.2,2.6,0.6c0.7,0.4,1.3,1,1.6,1.7c0.4,0.7,0.5,1.4,0.5,2.1
					c0,0.6-0.2,1.1-0.6,1.3C434.8,787.2,434.3,787.3,433.6,787.3 M428.5,785.8h4.7c-0.1-0.9-0.3-1.5-0.7-2c-0.4-0.4-1-0.7-1.6-0.7
					c-0.6,0-1.2,0.2-1.6,0.7C428.9,784.3,428.6,784.9,428.5,785.8"/>
				<path class="st1" d="M444.4,787.3h-5.1c0,0.6,0.1,1.1,0.4,1.6c0.2,0.4,0.5,0.8,0.9,1c0.4,0.2,0.8,0.3,1.3,0.3
					c0.3,0,0.6,0,0.8-0.1c0.3-0.1,0.5-0.2,0.8-0.3c0.2-0.2,0.5-0.3,0.7-0.5c0.2-0.2,0.5-0.4,0.8-0.7c0.1-0.1,0.3-0.2,0.6-0.2
					c0.3,0,0.5,0.1,0.7,0.2c0.2,0.1,0.2,0.3,0.2,0.6c0,0.2-0.1,0.5-0.3,0.8c-0.2,0.3-0.5,0.6-0.8,0.9c-0.4,0.3-0.8,0.5-1.4,0.7
					c-0.6,0.2-1.2,0.3-1.9,0.3c-1.7,0-3-0.5-3.9-1.4c-0.9-1-1.4-2.2-1.4-3.9c0-0.8,0.1-1.5,0.3-2.1c0.2-0.7,0.6-1.2,1-1.7
					c0.4-0.5,1-0.8,1.6-1.1c0.6-0.2,1.4-0.4,2.1-0.4c1,0,1.9,0.2,2.6,0.6c0.7,0.4,1.3,1,1.6,1.7c0.4,0.7,0.5,1.4,0.5,2.1
					c0,0.6-0.2,1.1-0.6,1.3C445.6,787.2,445.1,787.3,444.4,787.3 M439.3,785.8h4.7c-0.1-0.9-0.3-1.5-0.7-2c-0.4-0.4-1-0.7-1.6-0.7
					c-0.6,0-1.2,0.2-1.6,0.7C439.7,784.3,439.4,784.9,439.3,785.8"/>
				<path class="st1" d="M450.1,782.8v0.3c0.5-0.6,1-1,1.5-1.3c0.5-0.3,1.1-0.4,1.8-0.4c0.8,0,1.5,0.2,2.2,0.6
					c0.7,0.4,1.2,1,1.6,1.8c0.4,0.8,0.6,1.7,0.6,2.8c0,0.8-0.1,1.5-0.3,2.2c-0.2,0.7-0.5,1.2-0.9,1.7c-0.4,0.4-0.9,0.8-1.4,1
					c-0.5,0.2-1.1,0.4-1.7,0.4c-0.7,0-1.4-0.1-1.9-0.4c-0.5-0.3-1-0.7-1.4-1.3v3.9c0,1.1-0.4,1.7-1.2,1.7c-0.5,0-0.8-0.1-1-0.4
					c-0.2-0.3-0.2-0.7-0.2-1.3v-11.2c0-0.5,0.1-0.9,0.3-1.1c0.2-0.2,0.5-0.4,0.9-0.4c0.4,0,0.7,0.1,0.9,0.4
					C450,782,450.1,782.4,450.1,782.8 M455.2,786.6c0-0.7-0.1-1.3-0.3-1.8c-0.2-0.5-0.5-0.9-0.9-1.1c-0.4-0.3-0.8-0.4-1.2-0.4
					c-0.7,0-1.3,0.3-1.8,0.8c-0.5,0.6-0.7,1.4-0.7,2.5c0,1,0.2,1.8,0.7,2.4c0.5,0.6,1.1,0.9,1.8,0.9c0.4,0,0.8-0.1,1.2-0.4
					c0.4-0.3,0.7-0.6,0.9-1.1C455.1,787.9,455.2,787.3,455.2,786.6"/>
				<path class="st1" d="M460.4,780.2c-0.4,0-0.7-0.1-0.9-0.3c-0.3-0.2-0.4-0.5-0.4-0.9c0-0.4,0.1-0.7,0.4-0.9
					c0.3-0.2,0.6-0.4,0.9-0.4c0.3,0,0.6,0.1,0.9,0.3c0.3,0.2,0.4,0.5,0.4,0.9c0,0.4-0.1,0.7-0.4,0.9
					C461,780,460.7,780.2,460.4,780.2 M461.7,782.8v7.5c0,0.5-0.1,0.9-0.4,1.2c-0.2,0.3-0.6,0.4-0.9,0.4c-0.4,0-0.7-0.1-0.9-0.4
					c-0.2-0.3-0.4-0.7-0.4-1.2v-7.4c0-0.5,0.1-0.9,0.4-1.2c0.2-0.3,0.5-0.4,0.9-0.4c0.4,0,0.7,0.1,0.9,0.4
					C461.5,782,461.7,782.4,461.7,782.8"/>
				<path class="st1" d="M470,790.7l-2.3-3.8l-1.4,1.3v2.1c0,0.5-0.1,0.9-0.4,1.1c-0.3,0.3-0.6,0.4-0.9,0.4c-0.4,0-0.7-0.1-0.9-0.4
					c-0.2-0.3-0.3-0.7-0.3-1.2v-11.1c0-0.6,0.1-1,0.3-1.3c0.2-0.3,0.5-0.5,1-0.5c0.4,0,0.7,0.1,0.9,0.4c0.2,0.3,0.4,0.7,0.4,1.2v6.3
					l2.9-3.1c0.4-0.4,0.6-0.6,0.8-0.8c0.2-0.1,0.4-0.2,0.7-0.2c0.3,0,0.6,0.1,0.8,0.3c0.2,0.2,0.3,0.5,0.3,0.8
					c0,0.4-0.4,0.9-1.1,1.5l-1.4,1.3l2.7,4.2c0.2,0.3,0.3,0.5,0.4,0.7c0.1,0.2,0.1,0.3,0.1,0.5c0,0.4-0.1,0.7-0.3,1
					c-0.2,0.2-0.5,0.4-0.9,0.4c-0.3,0-0.6-0.1-0.7-0.3C470.6,791.5,470.3,791.2,470,790.7"/>
				<path class="st1" d="M475.7,791.9c-0.4,0-0.7-0.1-1-0.4c-0.3-0.2-0.4-0.6-0.4-1.1c0-0.4,0.1-0.7,0.4-1c0.3-0.3,0.6-0.4,1-0.4
					c0.4,0,0.7,0.1,1,0.4c0.3,0.3,0.4,0.6,0.4,1c0,0.5-0.1,0.8-0.4,1.1C476.4,791.8,476,791.9,475.7,791.9"/>
				<path class="st1" d="M488.6,788.7c0,0.3-0.1,0.7-0.3,1c-0.2,0.4-0.5,0.7-0.9,1.1c-0.4,0.3-0.9,0.6-1.5,0.8
					c-0.6,0.2-1.3,0.3-2,0.3c-1.6,0-2.9-0.5-3.8-1.4c-0.9-0.9-1.3-2.2-1.3-3.8c0-1.1,0.2-2,0.6-2.8c0.4-0.8,1-1.4,1.8-1.9
					c0.8-0.4,1.7-0.7,2.8-0.7c0.7,0,1.3,0.1,1.9,0.3c0.6,0.2,1,0.5,1.4,0.8c0.4,0.3,0.7,0.6,0.9,1c0.2,0.4,0.3,0.7,0.3,1
					c0,0.3-0.1,0.6-0.3,0.8c-0.2,0.2-0.5,0.3-0.8,0.3c-0.2,0-0.4-0.1-0.5-0.2c-0.1-0.1-0.3-0.3-0.5-0.5c-0.3-0.5-0.6-0.8-1-1.1
					c-0.3-0.2-0.8-0.4-1.3-0.4c-0.8,0-1.4,0.3-1.9,0.9c-0.5,0.6-0.7,1.4-0.7,2.5c0,0.5,0.1,0.9,0.2,1.3c0.1,0.4,0.3,0.8,0.5,1
					c0.2,0.3,0.5,0.5,0.8,0.7c0.3,0.2,0.7,0.2,1.1,0.2c0.5,0,1-0.1,1.3-0.4c0.4-0.2,0.7-0.6,1-1.1c0.2-0.3,0.3-0.5,0.5-0.7
					c0.2-0.2,0.4-0.2,0.7-0.2c0.3,0,0.6,0.1,0.8,0.4C488.5,788.2,488.6,788.4,488.6,788.7"/>
				<path class="st1" d="M499.8,786.6c0,0.8-0.1,1.5-0.4,2.1c-0.2,0.7-0.6,1.2-1,1.7c-0.5,0.5-1,0.8-1.6,1.1
					c-0.6,0.2-1.3,0.4-2.1,0.4c-0.8,0-1.5-0.1-2.1-0.4c-0.6-0.2-1.2-0.6-1.6-1.1c-0.5-0.5-0.8-1-1.1-1.7c-0.2-0.6-0.3-1.4-0.3-2.1
					c0-0.8,0.1-1.5,0.4-2.2c0.2-0.7,0.6-1.2,1-1.7c0.5-0.5,1-0.8,1.6-1.1c0.6-0.2,1.3-0.4,2.1-0.4c0.8,0,1.5,0.1,2.1,0.4
					c0.6,0.3,1.2,0.6,1.6,1.1c0.5,0.5,0.8,1,1,1.7C499.6,785.2,499.8,785.9,499.8,786.6 M497.1,786.6c0-1.1-0.2-1.9-0.7-2.5
					c-0.5-0.6-1.1-0.9-1.9-0.9c-0.5,0-1,0.1-1.3,0.4c-0.4,0.3-0.7,0.6-0.9,1.2c-0.2,0.5-0.3,1.1-0.3,1.8c0,0.7,0.1,1.3,0.3,1.8
					c0.2,0.5,0.5,0.9,0.9,1.2c0.4,0.3,0.8,0.4,1.4,0.4c0.8,0,1.4-0.3,1.9-0.9C496.9,788.5,497.1,787.7,497.1,786.6"/>
				<path class="st1" d="M509.6,786.8v3.4c0,0.5-0.1,1-0.4,1.2c-0.2,0.3-0.6,0.4-1,0.4c-0.4,0-0.7-0.1-1-0.4
					c-0.2-0.3-0.4-0.7-0.4-1.2v-4.1c0-0.7,0-1.2-0.1-1.5c0-0.4-0.2-0.7-0.4-0.9c-0.2-0.2-0.5-0.4-0.9-0.4c-0.8,0-1.4,0.3-1.7,0.9
					c-0.3,0.6-0.4,1.4-0.4,2.5v3.5c0,0.5-0.1,0.9-0.4,1.2c-0.2,0.3-0.6,0.4-1,0.4c-0.4,0-0.7-0.1-1-0.4c-0.3-0.3-0.4-0.7-0.4-1.2
					v-7.4c0-0.5,0.1-0.9,0.3-1.1c0.2-0.3,0.5-0.4,0.9-0.4c0.4,0,0.7,0.1,0.9,0.4c0.2,0.2,0.4,0.6,0.4,1v0.2c0.5-0.5,0.9-0.9,1.4-1.2
					c0.5-0.3,1.1-0.4,1.7-0.4c0.7,0,1.2,0.1,1.7,0.4c0.5,0.3,0.9,0.7,1.2,1.2c0.4-0.5,0.9-0.9,1.4-1.2c0.5-0.3,1.1-0.4,1.7-0.4
					c0.7,0,1.3,0.1,1.8,0.4c0.5,0.3,0.9,0.7,1.1,1.2c0.2,0.5,0.3,1.2,0.3,2.2v5.1c0,0.5-0.1,1-0.4,1.2c-0.2,0.3-0.6,0.4-1,0.4
					c-0.4,0-0.7-0.1-1-0.4c-0.2-0.3-0.4-0.7-0.4-1.2v-4.4c0-0.6,0-1-0.1-1.3c0-0.3-0.2-0.6-0.4-0.8c-0.2-0.2-0.5-0.3-1-0.3
					c-0.3,0-0.7,0.1-1,0.3c-0.3,0.2-0.5,0.5-0.7,0.8C509.7,784.9,509.6,785.7,509.6,786.8"/>
			</g>
			<g>
				<path class="st1" d="M388.9,786C388.9,786,388.9,786,388.9,786C388.9,786,388.9,786,388.9,786z"/>
				<path class="st1" d="M389.1,786.8C389.1,786.8,389.1,786.8,389.1,786.8c0-0.2-0.1-0.5-0.1-0.7C389,786.4,389,786.6,389.1,786.8z
					"/>
				<path class="st1" d="M389.9,789.2C389.9,789.2,389.9,789.2,389.9,789.2C389.9,789.2,389.9,789.2,389.9,789.2z"/>
				<path class="st1" d="M389.8,789.1c0,0,0-0.1-0.1-0.1C389.8,789,389.8,789,389.8,789.1z"/>
				<path class="st1" d="M389.3,787.8c0.1,0.4,0.3,0.8,0.5,1.2C389.6,788.6,389.4,788.2,389.3,787.8
					C389.3,787.8,389.3,787.8,389.3,787.8z"/>
				<path class="st1" d="M399,776.1c0.5,0,0.9,0,1.3,0.1l0.1-0.8c0,0-1.2-0.4-2.7-0.2l-0.1-0.4c0.5-0.1,0.8-0.5,0.8-1
					c0-0.6-0.5-1.1-1.1-1.1c-0.6,0-1.1,0.5-1.1,1.1c0,0.5,0.4,0.9,0.8,1l0.1,0.5c-1.6,0.2-2.9,0.9-2.9,0.9l0.2,0.7
					c1-0.3,1.8-0.5,2.6-0.6C397.9,776.1,398.5,776.1,399,776.1z"/>
				<path class="st1" d="M389.9,779.9L389.9,779.9c0-0.1,0.1-0.1,0.1-0.2l-0.3-0.2l-0.5-0.4c0,0-0.8,0.7-1.4,2c0,0-0.1-0.1-0.1-0.1
					c-0.2-0.2-0.4-0.3-0.8-0.3c0,0,0,0,0,0c-0.2,0-0.3-0.1-0.4-0.1c0.1-0.1,0.1-0.3,0.1-0.4c0-0.4-0.3-0.7-0.7-0.7
					c-0.4,0-0.7,0.3-0.7,0.7c0,0.4,0.3,0.7,0.7,0.7c0.1,0,0.1,0,0.2,0c0.2,0.2,0.4,0.3,0.8,0.3c0.2,0,0.3,0,0.4,0.2
					c0.1,0.1,0.1,0.3,0.2,0.4c0,0,0,0,0,0c-0.4,1.2-0.3,2.7-0.3,2.7l1.1,0c0-0.5,0.1-1.5,0.4-2.2C389.2,780.9,389.9,780,389.9,779.9
					z"/>
				<path class="st1" d="M408.2,777c-0.4,0-0.7,0.3-0.7,0.7c0,0.1,0,0.1,0,0.2c-0.2,0.2-0.3,0.4-0.3,0.8c0,0.2,0,0.3-0.2,0.4
					c-0.1,0.1-0.2,0.1-0.3,0.1c-0.8-1.1-1.8-1.8-1.8-1.8l-0.8,0.8c0.6,0.5,1.2,1.2,1.7,2c0.4,0.6,0.8,1.3,1.1,2l1-0.5
					c0,0-0.5-1.2-1.1-2.2c0.1,0,0.2-0.1,0.3-0.2c0.2-0.2,0.3-0.4,0.3-0.8c0-0.2,0.1-0.3,0.1-0.4c0.1,0.1,0.3,0.1,0.4,0.1
					c0.4,0,0.7-0.3,0.7-0.7C408.8,777.3,408.5,777,408.2,777z"/>
				<path class="st1" d="M405.5,786.2c-1.4,0.7-3.7,1.6-6.8,2c-1.2,0.2-2.4,0.2-3.4,0.2c-1.4,0-2.6-0.1-3.6-0.2
					c-1.1-0.1-1.9-0.3-2.4-0.4c0.1,0.4,0.3,0.8,0.5,1.2c0,0,0,0,0,0c0,0,0,0.1,0.1,0.1c0,0,0,0.1,0.1,0.1c0,0,0,0,0,0
					c0.3,0.6,0.7,1.1,1.1,1.5c1.4,1.6,2.9,1.8,2.9,1.8l0,0l0,0c0,0,1.3,0.4,3.3,0.4c1.9,0,3.9-0.4,5.7-1.2c1.3-0.7,2.6-1.7,3.3-2.7
					c0.5-0.7,0.8-1.5,1.1-2.3c0.1-0.4,0.2-1.1,0.1-1.8C407,785.4,406.4,785.8,405.5,786.2z"/>
				<path class="st1" d="M390.4,780.3c0,0.1-0.7,0.9-1.1,2.3c-0.4,1-0.3,2.4-0.3,2.5v0c0,0.3,0,0.7,0.1,1c0,0,0,0,0,0
					c0,0,0,0.1,0,0.1c0,0.2,0.1,0.5,0.1,0.7c0.7,0.2,4.9,1.2,9.5,0.5c2.9-0.4,5.2-1.3,6.5-1.9c1.1-0.5,1.8-1,2.1-1.2
					c-0.3-1-1-2.6-1.7-3.6c-2-2.9-4.2-3.6-5.3-3.8c-0.4-0.1-0.8-0.1-1.2-0.1c-0.4,0-1,0-1.7,0.1c-0.7,0.1-1.6,0.3-2.5,0.6
					c-1.3,0.5-2.6,1.2-3.5,2l0,0C391,779.6,390.7,779.8,390.4,780.3z M402.6,779.6c1,0,1.7,0.8,1.7,1.7c0,1-0.8,1.7-1.7,1.7
					c-1,0-1.7-0.8-1.7-1.7C400.9,780.4,401.7,779.6,402.6,779.6z M394.4,779.5c1.6,0,2.8,1.3,2.8,2.8c0,1.6-1.3,2.8-2.8,2.8
					c-1.6,0-2.8-1.3-2.8-2.8C391.6,780.8,392.8,779.5,394.4,779.5z"/>
			</g>
		</g>
	</g>
</g>
<g id="object">
	<path class="st2" d="M527,816.8"/>
	<g>
		<g>
			<path class="st3" d="M658.2,517.8c-14.2,0.9-28.4-11-36.3-21.3c-4.8-6.3-7.6-13.1-8.7-20.6c-0.3-2.1-2.4-8,0.7-9
				c1.8-0.5,5.7,4.2,7.7,4.8c2.6-8.1-3.3-16.9-2.8-25.3c0.4-6.3,3.9-20,9.1-23.9c0.7,2.3,0.8,5,1.8,7.4c4.9-4.5,3.9-17,6.2-23.2
				c2.8-7.2,9-22.3,15.7-26.9c14.8-9.9,24.5,28.2,30.2,35.7c4.3-2.4,2.5-8.6,2.8-12.9c6-0.2,11.6,15.2,12.9,20.3
				c1.5,5.7-0.4,23.1,2.7,26.3c0.8-1.5,2.7-2.7,3-4.8c16.1,10.5,10.1,38,1.4,50.9c-10.2,15.1-25.1,22.7-43.7,22.5H658.2z"/>
			<path class="st4" d="M660.5,521.8c3,7.9-1.1,19.9-1.9,28c-0.9,8.2-2.6,16.5-2.2,24.7c6.4,1,13.7-1,20.2-1.1
				c-4.9-12.6-4.3-25.9-5.4-39c-0.3-2.9-1.9-6.9-1.1-9.8c1-3.5,4.5-4.2,7-6.9c3.2-3.5,8-11.2,7.2-16c-3.1,0.7-4.9,6-7.5,6.4
				c-5,0.9-1.6-6-0.9-8.8c1.2-4.7,6.2-16.5,1.3-20.2c-3.5,3-3.7,10.6-4.9,15c-1.3-1.7-1.3-4.2-3.5-5.8c-1.9,1.8,5,26.2-6,21.5
				c-7-3-6.9-22.9-16.6-21.3c0,2.8,2.6,3,2.2,6c-1.8-0.6-4,0-5.8-0.3c0.1,3.4,2.8,2.1,4.8,3.8c2,1.6,3.3,3.6,4.6,5.9
				c2.2,3.7,5.7,8.9,5.3,13.1c-5.4,0.9-10.2-6.6-15.9-6.7C639.4,518.8,655.5,520,660.5,521.8L660.5,521.8z"/>
		</g>
		<g>
			<path class="st3" d="M110.1,527.3c-15.6,0.8-31.1-10.6-39.8-20.5c-5.3-6.1-8.3-12.7-9.6-19.9c-0.4-2-2.6-7.7,0.8-8.6
				c1.9-0.5,6.2,4.1,8.5,4.6c2.8-7.8-3.6-16.3-3.1-24.4c0.4-6.1,4.3-19.2,10-23.1c0.8,2.2,0.9,4.8,1.9,7.1
				c5.4-4.3,4.2-16.4,6.9-22.4c3-6.9,9.8-21.5,17.2-25.9c16.2-9.5,26.9,27.2,33.1,34.4c4.7-2.3,2.8-8.3,3.1-12.4
				c6.6-0.2,12.7,14.7,14.2,19.6c1.6,5.5-0.4,22.3,3,25.4c0.9-1.4,2.9-2.6,3.3-4.6c17.6,10.1,11.1,36.6,1.6,49
				c-11.2,14.5-27.5,21.8-48,21.7H110.1z"/>
			<path class="st4" d="M112.6,531.1c3.3,7.6-1.2,19.2-2.1,27c-1,7.9-2.8,15.9-2.4,23.8c7,1,15-1,22.1-1.1
				c-5.3-12.2-4.7-24.9-6-37.5c-0.3-2.8-2.1-6.6-1.2-9.4c1.1-3.3,5-4,7.7-6.6c3.5-3.4,8.8-10.8,7.9-15.4c-3.5,0.7-5.4,5.7-8.2,6.2
				c-5.4,0.8-1.8-5.8-1-8.4c1.3-4.5,6.8-15.9,1.5-19.4c-3.9,2.9-4.1,10.2-5.4,14.4c-1.4-1.6-1.4-4.1-3.8-5.5
				c-2.1,1.7,5.5,25.2-6.6,20.7c-7.6-2.9-7.6-22.1-18.3-20.5c0,2.7,2.9,2.9,2.4,5.8c-1.9-0.6-4.4,0-6.4-0.3c0.1,3.3,3,2,5.3,3.7
				c2.2,1.6,3.6,3.5,5.1,5.7c2.4,3.6,6.2,8.6,5.8,12.6c-6,0.9-11.2-6.3-17.5-6.5C89.5,528.3,107.1,529.4,112.6,531.1L112.6,531.1z"
				/>
		</g>
		<g>
			<path class="st3" d="M354.6,444.9c-15,0.8-29.9-10.2-38.2-19.7c-5.1-5.9-8-12.2-9.2-19.1c-0.3-2-2.5-7.4,0.7-8.3
				c1.9-0.5,6,3.9,8.2,4.4c2.7-7.5-3.4-15.6-2.9-23.4c0.4-5.8,4.1-18.5,9.6-22.2c0.8,2.1,0.9,4.6,1.9,6.8c5.2-4.1,4.1-15.7,6.6-21.5
				c2.9-6.7,9.4-20.7,16.6-24.9c15.6-9.2,25.8,26.2,31.8,33c4.6-2.2,2.7-8,2.9-11.9c6.3-0.2,12.2,14.1,13.6,18.8
				c1.6,5.3-0.4,21.4,2.9,24.4c0.8-1.4,2.8-2.5,3.2-4.5c17,9.7,10.7,35.2,1.5,47.1c-10.7,13.9-26.4,21-46.1,20.9H354.6z"/>
			<path class="st4" d="M357,448.6c3.2,7.3-1.1,18.4-2,26c-0.9,7.6-2.7,15.3-2.3,22.9c6.7,0.9,14.4-1,21.3-1.1
				c-5.1-11.7-4.5-23.9-5.7-36.1c-0.3-2.6-2-6.4-1.1-9c1.1-3.2,4.8-3.9,7.4-6.4c3.4-3.2,8.4-10.4,7.6-14.8c-3.3,0.7-5.2,5.5-7.9,5.9
				c-5.2,0.8-1.7-5.6-0.9-8.1c1.3-4.4,6.5-15.3,1.4-18.7c-3.7,2.8-3.9,9.8-5.2,13.9c-1.4-1.6-1.3-3.9-3.7-5.3
				c-2,1.7,5.3,24.3-6.3,19.9c-7.3-2.8-7.3-21.2-17.5-19.8c0,2.6,2.8,2.8,2.3,5.6c-1.9-0.6-4.2,0-6.1-0.3c0.1,3.2,2.9,1.9,5.1,3.5
				c2.1,1.5,3.5,3.3,4.9,5.4c2.3,3.4,6,8.2,5.6,12.2c-5.7,0.8-10.8-6.1-16.8-6.2C334.7,445.9,351.7,446.9,357,448.6L357,448.6z"/>
		</g>
		<path class="st5" d="M623.8,317.4c0,9,7.3,16.3,16.3,16.3c1.8,0,3.6-0.3,5.3-0.9c0,0.3,0,0.6,0,0.9c0,10.4,8.4,18.8,18.8,18.8
			c6.1,0,11.5-2.9,14.9-7.3c4.1,7.5,12,12.6,21.1,12.6c9.7,0,18.1-5.8,21.9-14c2.6,1.7,5.7,2.7,9,2.7c9,0,16.3-7.3,16.3-16.3
			c0-7.7-5.4-14.2-12.6-15.9c0.5-1.6,0.8-3.3,0.8-5.1c0-9-7.3-16.3-16.3-16.3c-7.3,0-13.4,4.7-15.5,11.3
			c-2.1-6.6-8.3-11.3-15.5-11.3c-1,0-1.9,0.1-2.8,0.2c-2.1-11.2-11.9-19.7-23.6-19.7c-13.3,0-24.1,10.8-24.1,24.1
			c0,1.3,0.1,2.5,0.3,3.8C629.9,302.2,623.8,309.1,623.8,317.4z M674.4,318C674.4,317.9,674.4,317.9,674.4,318
			C674.4,317.9,674.4,317.9,674.4,318C674.4,317.9,674.4,317.9,674.4,318z"/>
		<polygon class="st6" points="730.6,590.4 393.6,639.2 608.4,697 		"/>
		<polygon class="st7" points="749.9,573.6 68.2,573.6 167.9,682.1 385.5,637.1 394.3,639.4 730.6,590.4 		"/>
		<g>
			<rect x="632.2" y="387.5" class="st8" width="15.7" height="40.3"/>
			<polygon class="st9" points="662.4,574.7 547.9,574.7 547.9,466.4 604.5,387.5 662.4,466.4 			"/>
			<polygon class="st10" points="540.2,480.1 519.4,480.1 605.4,369.2 691,480.2 670,480.3 604.9,394.6 			"/>
			<g>
				<g>
					<g>
						<rect x="562.9" y="473.4" class="st11" width="16.4" height="28.4"/>
					</g>
					<g>
						<rect x="586.1" y="473.4" class="st11" width="16.4" height="28.4"/>
					</g>
					<g>
						<rect x="609.3" y="473.4" class="st11" width="16.4" height="28.4"/>
					</g>
					<g>
						<rect x="632.5" y="473.4" class="st11" width="16.4" height="28.4"/>
					</g>
				</g>
			</g>
			<g>
				<g>
					<g>
						<rect x="608.6" y="522.8" class="st11" width="16.4" height="28.4"/>
					</g>
					<g>
						<rect x="631.8" y="522.8" class="st11" width="16.4" height="28.4"/>
					</g>
				</g>
			</g>
			<circle class="st11" cx="604.1" cy="435.9" r="9.2"/>
			<rect x="547.9" y="562.2" class="st12" width="114.5" height="12.5"/>
			<path class="st10" d="M595.8,538.7c0-8.8-7.1-15.9-15.9-15.9c-8.8,0-15.9,7.1-15.9,15.9v35.8h31.8V538.7z"/>
			<g>
				<g>
					<path class="st13" d="M554.6,514.6c0,1.9-1.5,3.4-3.4,3.4c-1.9,0-3.4-1.5-3.4-3.4c0-0.6,0-3.8,0-3.8l6.7,0
						C554.6,510.8,554.6,512.7,554.6,514.6z"/>
					<path class="st14" d="M561.3,514.6c0,1.9-1.5,3.4-3.4,3.4c-1.9,0-3.4-1.5-3.4-3.4c0-0.6,0-3.8,0-3.8l6.7,0
						C561.3,510.8,561.3,512.7,561.3,514.6z"/>
				</g>
				<g>
					<path class="st13" d="M568.1,514.6c0,1.9-1.5,3.4-3.4,3.4c-1.9,0-3.4-1.5-3.4-3.4c0-0.6,0-3.8,0-3.8l6.7,0
						C568.1,510.8,568.1,512.7,568.1,514.6z"/>
					<path class="st14" d="M574.8,514.6c0,1.9-1.5,3.4-3.4,3.4c-1.9,0-3.4-1.5-3.4-3.4c0-0.6,0-3.8,0-3.8l6.7,0
						C574.8,510.8,574.8,512.7,574.8,514.6z"/>
				</g>
				<g>
					<path class="st13" d="M581.6,514.6c0,1.9-1.5,3.4-3.4,3.4s-3.4-1.5-3.4-3.4c0-0.6,0-3.8,0-3.8l6.7,0
						C581.6,510.8,581.6,512.7,581.6,514.6z"/>
					<path class="st14" d="M588.3,514.6c0,1.9-1.5,3.4-3.4,3.4c-1.9,0-3.4-1.5-3.4-3.4c0-0.6,0-3.8,0-3.8l6.7,0
						C588.3,510.8,588.3,512.7,588.3,514.6z"/>
				</g>
				<g>
					<path class="st13" d="M595,514.6c0,1.9-1.5,3.4-3.4,3.4c-1.9,0-3.4-1.5-3.4-3.4c0-0.6,0-3.8,0-3.8l6.7,0
						C595,510.8,595,512.7,595,514.6z"/>
					<path class="st14" d="M601.8,514.6c0,1.9-1.5,3.4-3.4,3.4c-1.9,0-3.4-1.5-3.4-3.4c0-0.6,0-3.8,0-3.8l6.7,0
						C601.8,510.8,601.8,512.7,601.8,514.6z"/>
				</g>
				<g>
					<path class="st13" d="M608.5,514.6c0,1.9-1.5,3.4-3.4,3.4c-1.9,0-3.4-1.5-3.4-3.4c0-0.6,0-3.8,0-3.8l6.7,0
						C608.5,510.8,608.5,512.7,608.5,514.6z"/>
					<path class="st14" d="M615.2,514.6c0,1.9-1.5,3.4-3.4,3.4c-1.9,0-3.4-1.5-3.4-3.4c0-0.6,0-3.8,0-3.8l6.7,0
						C615.2,510.8,615.2,512.7,615.2,514.6z"/>
				</g>
				<g>
					<path class="st13" d="M622,514.6c0,1.9-1.5,3.4-3.4,3.4c-1.9,0-3.4-1.5-3.4-3.4c0-0.6,0-3.8,0-3.8l6.7,0
						C622,510.8,622,512.7,622,514.6z"/>
					<path class="st14" d="M628.7,514.6c0,1.9-1.5,3.4-3.4,3.4c-1.9,0-3.4-1.5-3.4-3.4c0-0.6,0-3.8,0-3.8l6.7,0
						C628.7,510.8,628.7,512.7,628.7,514.6z"/>
				</g>
				<g>
					<path class="st13" d="M635.5,514.6c0,1.9-1.5,3.4-3.4,3.4c-1.9,0-3.4-1.5-3.4-3.4c0-0.6,0-3.8,0-3.8l6.7,0
						C635.5,510.8,635.5,512.7,635.5,514.6z"/>
					<path class="st14" d="M642.2,514.6c0,1.9-1.5,3.4-3.4,3.4c-1.9,0-3.4-1.5-3.4-3.4c0-0.6,0-3.8,0-3.8l6.7,0
						C642.2,510.8,642.2,512.7,642.2,514.6z"/>
				</g>
				<g>
					<path class="st13" d="M648.9,514.6c0,1.9-1.5,3.4-3.4,3.4c-1.9,0-3.4-1.5-3.4-3.4c0-0.6,0-3.8,0-3.8l6.7,0
						C648.9,510.8,648.9,512.7,648.9,514.6z"/>
					<path class="st14" d="M655.7,514.6c0,1.9-1.5,3.4-3.4,3.4c-1.9,0-3.4-1.5-3.4-3.4c0-0.6,0-3.8,0-3.8l6.7,0
						C655.7,510.8,655.7,512.7,655.7,514.6z"/>
				</g>
				<g>
					<path class="st13" d="M662.4,514.6c0,1.9-1.5,3.4-3.4,3.4c-1.9,0-3.4-1.5-3.4-3.4c0-0.6,0-3.8,0-3.8l6.7,0
						C662.4,510.8,662.4,512.7,662.4,514.6z"/>
				</g>
			</g>
			<rect x="547.9" y="509.6" class="st12" width="114.5" height="2.1"/>
		</g>
		<g>
			<g>
				<polygon class="st15" points="385.5,574.7 249.3,574.7 249.3,459.3 316.7,373.2 385.5,459.3 				"/>
				<rect x="249.3" y="563" class="st16" width="136.2" height="11.7"/>
				<g>
					<g>
						<g>
							<rect x="269.3" y="526.1" class="st17" width="21.7" height="22.6"/>
						</g>
						<g>
							<rect x="345.7" y="526.1" class="st17" width="21.7" height="22.6"/>
						</g>
					</g>
				</g>
			</g>
			<circle class="st17" cx="317.9" cy="424.2" r="9.1"/>
			<g>
				<g>
					<rect x="262.6" y="467.2" class="st17" width="23.8" height="24.7"/>
					<rect x="321.9" y="467.2" class="st17" width="23.8" height="24.7"/>
					<rect x="351.4" y="467.2" class="st17" width="23.8" height="24.7"/>
					<rect x="292.1" y="467.2" class="st17" width="23.8" height="24.7"/>
				</g>
			</g>
			<polygon class="st12" points="252.7,563 249.3,563 249.3,459.3 252.7,454.8 			"/>
			<polygon class="st12" points="385.5,563 382.2,563 382.2,454.8 385.5,459.9 			"/>
			<rect x="251.4" y="504.5" class="st10" width="131.1" height="4.4"/>
			<polygon class="st8" points="245.2,465 224,465 317.6,351.5 410.9,464.9 389.5,465 317.2,377.3 			"/>
			<path class="st10" d="M331.8,539.1c0-8.8-7.1-15.9-15.9-15.9c-8.8,0-15.9,7.1-15.9,15.9v35.8h31.8V539.1z"/>
		</g>
		<g>
			<polygon class="st18" points="511.1,574.7 356,574.7 356,428 432.7,321.3 511.1,428 			"/>
			<g>
				<g>
					<rect x="356" y="428" class="st12" width="6.9" height="12.9"/>
					<rect x="356" y="442.9" class="st12" width="11.8" height="12.9"/>
				</g>
				<g>
					<rect x="356" y="457.8" class="st12" width="6.9" height="12.9"/>
					<rect x="356" y="472.6" class="st12" width="11.8" height="12.9"/>
				</g>
				<g>
					<rect x="356" y="502.3" class="st12" width="11.8" height="12.9"/>
				</g>
				<g>
					<rect x="356" y="517.3" class="st12" width="6.9" height="12.9"/>
					<rect x="356" y="532.1" class="st12" width="11.8" height="12.9"/>
				</g>
				<g>
					<rect x="356" y="547" class="st12" width="6.9" height="12.9"/>
				</g>
			</g>
			<g>
				<g>
					<rect x="504.2" y="428" class="st12" width="6.9" height="12.9"/>
					<rect x="499.4" y="442.9" class="st12" width="11.8" height="12.9"/>
				</g>
				<g>
					<rect x="504.2" y="457.8" class="st12" width="6.9" height="12.9"/>
					<rect x="499.4" y="472.6" class="st12" width="11.8" height="12.9"/>
				</g>
				<g>
					<rect x="504.2" y="487.5" class="st12" width="6.9" height="12.9"/>
					<rect x="499.4" y="502.3" class="st12" width="11.8" height="12.9"/>
				</g>
				<g>
					<rect x="504.2" y="517.3" class="st12" width="6.9" height="12.9"/>
					<rect x="499.4" y="532.1" class="st12" width="11.8" height="12.9"/>
				</g>
				<g>
					<rect x="504.2" y="547" class="st12" width="6.9" height="12.9"/>
				</g>
			</g>
			<path class="st19" d="M444.7,378.8c-0.1-5.3-4.5-9.6-9.9-9.6c-5.4,0-9.8,4.3-9.9,9.6h0v16.7h19.8L444.7,378.8L444.7,378.8z"/>
			<g>
				<g>
					<path class="st19" d="M403.9,439.2c-0.1-5.3-4.5-9.6-9.9-9.6c-5.4,0-9.8,4.3-9.9,9.6h0V469h19.8L403.9,439.2L403.9,439.2z"/>
					<path class="st19" d="M490.5,437.9c-0.1-5.3-4.5-9.6-9.9-9.6c-5.4,0-9.8,4.3-9.9,9.6h0v29.7h19.8L490.5,437.9L490.5,437.9z"/>
					<g>
						<path class="st19" d="M489.1,518.3c-0.1-5.3-4.5-9.6-9.9-9.6c-5.4,0-9.8,4.3-9.9,9.6h0v29.7h19.8L489.1,518.3L489.1,518.3z"/>
						<path class="st19" d="M460,518.3c-0.1-5.3-4.5-9.6-9.9-9.6c-5.4,0-9.8,4.3-9.9,9.6h0v29.7H460L460,518.3L460,518.3z"/>
						<path class="st19" d="M430.8,518.3c-0.1-5.3-4.5-9.6-9.9-9.6c-5.4,0-9.8,4.3-9.9,9.6h0v29.7h19.8L430.8,518.3L430.8,518.3z"/>
						<path class="st19" d="M401.7,518.3c-0.1-5.3-4.5-9.6-9.9-9.6c-5.4,0-9.8,4.3-9.9,9.6h0v29.7h19.8L401.7,518.3L401.7,518.3z"/>
					</g>
					<path class="st19" d="M451.5,442.6c-0.2-7.9-8.9-14.3-17-14.3c-8.1,0-16.2,6.4-16.4,14.3h0v44.5h33.4L451.5,442.6L451.5,442.6z
						"/>
				</g>
			</g>
			<g>
				<g>
					<g>
						<g>
							<rect x="486.6" y="462.7" class="st12" width="3.1" height="24.1"/>
							<rect x="480" y="462.7" class="st12" width="2" height="24.1"/>
							<rect x="473.4" y="462.7" class="st12" width="2" height="24.1"/>
							<rect x="466.8" y="462.7" class="st12" width="2" height="24.1"/>
							<rect x="460.1" y="462.7" class="st12" width="2" height="24.1"/>
							<rect x="453.5" y="462.7" class="st12" width="2" height="24.1"/>
							<rect x="446.9" y="462.7" class="st12" width="2" height="24.1"/>
							<rect x="440.3" y="462.7" class="st12" width="2" height="24.1"/>
							<rect x="433.6" y="462.7" class="st12" width="2" height="24.1"/>
							<rect x="427" y="462.7" class="st12" width="2" height="24.1"/>
							<rect x="420.4" y="462.7" class="st12" width="2" height="24.1"/>
							<rect x="413.8" y="462.7" class="st12" width="2" height="24.1"/>
							<rect x="407.1" y="462.7" class="st12" width="2" height="24.1"/>
							<rect x="400.5" y="462.7" class="st12" width="2" height="24.1"/>
							<rect x="393.9" y="462.7" class="st12" width="2" height="24.1"/>
							<rect x="387.3" y="462.7" class="st12" width="2" height="24.1"/>
							<rect x="379.5" y="462.7" class="st12" width="3.1" height="24.1"/>
						</g>
					</g>
					<g>
						<rect x="376.2" y="485.5" class="st12" width="116.9" height="3.9"/>
					</g>
					<g>
						<rect x="376.2" y="462.2" class="st12" width="116.9" height="2"/>
					</g>
				</g>
			</g>
			<polygon class="st10" points="351.3,434.5 327.2,434.5 433.8,296.5 540,434.4 515.7,434.5 433.3,326 			"/>
			<rect x="356" y="487.5" class="st10" width="155.1" height="12.9"/>
			<polyline class="st12" points="356,574.7 356,561.4 511.1,561.4 511.1,574.7 			"/>
		</g>
		<g>
			<path class="st20" d="M545.8,547.4c0-8.8-7.1-15.9-15.9-15.9c0,0-0.1,0-0.1,0c0.1-0.5,0.1-1.1,0.1-1.6c0-7.2-5.9-13.1-13.1-13.1
				c-4.8,0-9,2.6-11.3,6.5c-1.9-2.7-5-4.5-8.5-4.5c-4.7,0-8.7,3.2-10,7.5c-2.1-1.1-4.5-1.7-7.1-1.7c-8.8,0-15.9,7.1-15.9,15.9
				c0,5.4,2.6,10.1,6.7,13c-3.9,1.5-6.7,5.2-6.7,9.7c0,5.7,4.6,10.3,10.3,10.3h60.2c5.7,0,10.3-4.6,10.3-10.3c0-2.4-0.9-4.7-2.3-6.5
				C544.7,554.3,545.8,551,545.8,547.4z"/>
			<g>
				<circle class="st21" cx="522.8" cy="550.6" r="2.2"/>
				<circle class="st21" cx="491.7" cy="535.1" r="2.2"/>
				<circle class="st21" cx="475.2" cy="541.7" r="2.2"/>
				<circle class="st21" cx="480" cy="558.9" r="2.2"/>
				<circle class="st21" cx="494.9" cy="568" r="2.2"/>
				<circle class="st21" cx="499.3" cy="552.1" r="2.2"/>
				<circle class="st21" cx="507.2" cy="536.5" r="2.2"/>
				<circle class="st21" cx="517.7" cy="527.3" r="2.2"/>
				<circle class="st21" cx="534.2" cy="540.9" r="2.2"/>
				<circle class="st21" cx="533.2" cy="566.2" r="2.2"/>
				<circle class="st21" cx="513.6" cy="560.4" r="2.2"/>
			</g>
		</g>
		<g>
			<path class="st20" d="M121.5,555c0-6.3-5.1-11.4-11.4-11.4c0,0,0,0-0.1,0c0-0.4,0.1-0.8,0.1-1.1c0-5.1-4.2-9.3-9.3-9.3
				c-3.4,0-6.4,1.9-8.1,4.6c-1.3-1.9-3.5-3.2-6.1-3.2c-3.4,0-6.2,2.3-7.1,5.4c-1.5-0.8-3.2-1.2-5-1.2c-6.3,0-11.4,5.1-11.4,11.4
				c0,3.8,1.9,7.2,4.8,9.3c-2.8,1-4.8,3.7-4.8,6.9c0,4.1,3.3,7.4,7.4,7.4h43c4.1,0,7.4-3.3,7.4-7.4c0-1.7-0.6-3.3-1.6-4.6
				C120.7,559.8,121.5,557.5,121.5,555z"/>
			<g>
				<circle class="st21" cx="105.1" cy="557.2" r="1.6"/>
				<circle class="st21" cx="82.9" cy="546.2" r="1.6"/>
				<circle class="st21" cx="71.1" cy="550.9" r="1.6"/>
				<circle class="st21" cx="74.5" cy="563.2" r="1.6"/>
				<circle class="st21" cx="85.2" cy="569.7" r="1.6"/>
				<circle class="st21" cx="88.3" cy="558.3" r="1.6"/>
				<circle class="st21" cx="93.9" cy="547.2" r="1.6"/>
				<circle class="st21" cx="101.4" cy="540.6" r="1.6"/>
				<circle class="st21" cx="113.2" cy="550.3" r="1.6"/>
				<circle class="st21" cx="112.5" cy="568.4" r="1.6"/>
				<circle class="st21" cx="98.5" cy="564.2" r="1.6"/>
			</g>
		</g>
		<g>
			<path class="st20" d="M297.3,557.2c0-6-4.9-10.9-10.9-10.9c0,0,0,0-0.1,0c0-0.4,0.1-0.7,0.1-1.1c0-5-4-9-9-9
				c-3.3,0-6.2,1.8-7.8,4.5c-1.3-1.8-3.4-3.1-5.8-3.1c-3.2,0-6,2.2-6.8,5.2c-1.5-0.7-3.1-1.1-4.9-1.1c-6,0-10.9,4.9-10.9,10.9
				c0,3.7,1.8,6.9,4.6,8.9c-2.7,1-4.6,3.6-4.6,6.6c0,3.9,3.2,7.1,7.1,7.1h41.3c3.9,0,7.1-3.2,7.1-7.1c0-1.7-0.6-3.2-1.6-4.4
				C296.5,561.8,297.3,559.6,297.3,557.2z"/>
			<g>
				<circle class="st21" cx="281.5" cy="559.3" r="1.5"/>
				<circle class="st21" cx="260.2" cy="548.7" r="1.5"/>
				<circle class="st21" cx="248.8" cy="553.2" r="1.5"/>
				<circle class="st21" cx="252.1" cy="565" r="1.5"/>
				<circle class="st21" cx="262.4" cy="571.3" r="1.5"/>
				<circle class="st21" cx="265.4" cy="560.4" r="1.5"/>
				<circle class="st21" cx="270.8" cy="549.7" r="1.5"/>
				<circle class="st21" cx="278" cy="543.3" r="1.5"/>
				<circle class="st21" cx="289.3" cy="552.7" r="1.5"/>
				<circle class="st21" cx="288.6" cy="570" r="1.5"/>
				<circle class="st21" cx="275.2" cy="566.1" r="1.5"/>
			</g>
		</g>
		<g>
			<g>
				<rect x="177" y="313.6" class="st8" width="22.9" height="43.2"/>
				<rect x="134.5" y="406.4" class="st9" width="130.5" height="167.3"/>
				<rect x="134.5" y="553.1" class="st12" width="130.5" height="20.5"/>
				<g>
					<rect x="148.8" y="431.8" class="st11" width="25" height="33.2"/>
					<rect x="187.3" y="431.8" class="st11" width="25" height="33.2"/>
					<rect x="225.9" y="431.8" class="st11" width="25" height="33.2"/>
				</g>
				<g>
					<rect x="147.7" y="504.9" class="st11" width="25" height="33.2"/>
					<rect x="186.3" y="504.9" class="st11" width="25" height="33.2"/>
					<rect x="224.8" y="504.9" class="st11" width="25" height="33.2"/>
				</g>
				<g>
					<rect x="134.5" y="340" class="st22" width="130.5" height="70.5"/>
					<g>
						<defs>
							<rect id="SVGID_1_" x="134.5" y="340" width="130.5" height="70.5"/>
						</defs>
						<clipPath id="SVGID_2_">
							<use xlink:href="#SVGID_1_"  style="overflow:visible;"/>
						</clipPath>
						<g class="st23">
							<g>
								<ellipse class="st8" cx="148.5" cy="343.6" rx="4.6" ry="4.7"/>
								<ellipse class="st8" cx="148.5" cy="356.7" rx="4.6" ry="4.7"/>
								<ellipse class="st8" cx="148.5" cy="371.1" rx="4.6" ry="4.7"/>
								<ellipse class="st8" cx="148.5" cy="384.3" rx="4.6" ry="4.7"/>
								<ellipse class="st8" cx="148.5" cy="398.7" rx="4.6" ry="4.7"/>
								<ellipse class="st8" cx="148.5" cy="411.8" rx="4.6" ry="4.7"/>
							</g>
							<g>
								<ellipse class="st8" cx="157.8" cy="350.2" rx="4.6" ry="4.7"/>
								<ellipse class="st8" cx="157.8" cy="363.3" rx="4.6" ry="4.7"/>
								<ellipse class="st8" cx="157.8" cy="377.7" rx="4.6" ry="4.7"/>
								<ellipse class="st8" cx="157.8" cy="390.8" rx="4.6" ry="4.7"/>
								<ellipse class="st8" cx="157.8" cy="405.2" rx="4.6" ry="4.7"/>
								<ellipse class="st8" cx="157.8" cy="418.4" rx="4.6" ry="4.7"/>
							</g>
							<g>
								<ellipse class="st8" cx="167.1" cy="343.6" rx="4.6" ry="4.7"/>
								<ellipse class="st8" cx="167.1" cy="356.7" rx="4.6" ry="4.7"/>
								<ellipse class="st8" cx="167.1" cy="371.1" rx="4.6" ry="4.7"/>
								<ellipse class="st8" cx="167.1" cy="384.3" rx="4.6" ry="4.7"/>
								<ellipse class="st8" cx="167.1" cy="398.7" rx="4.6" ry="4.7"/>
								<ellipse class="st8" cx="167.1" cy="411.8" rx="4.6" ry="4.7"/>
							</g>
							<g>
								<ellipse class="st8" cx="176.5" cy="350.2" rx="4.6" ry="4.7"/>
								<ellipse class="st8" cx="176.5" cy="363.3" rx="4.6" ry="4.7"/>
								<ellipse class="st8" cx="176.5" cy="377.7" rx="4.6" ry="4.7"/>
								<ellipse class="st8" cx="176.5" cy="390.8" rx="4.6" ry="4.7"/>
								<ellipse class="st8" cx="176.5" cy="405.2" rx="4.6" ry="4.7"/>
								<ellipse class="st8" cx="176.5" cy="418.4" rx="4.6" ry="4.7"/>
							</g>
							<g>
								<ellipse class="st8" cx="185.8" cy="343.6" rx="4.6" ry="4.7"/>
								<ellipse class="st8" cx="185.8" cy="356.7" rx="4.6" ry="4.7"/>
								<ellipse class="st8" cx="185.8" cy="371.1" rx="4.6" ry="4.7"/>
								<ellipse class="st8" cx="185.8" cy="384.3" rx="4.6" ry="4.7"/>
								<ellipse class="st8" cx="185.8" cy="398.7" rx="4.6" ry="4.7"/>
								<ellipse class="st8" cx="185.8" cy="411.8" rx="4.6" ry="4.7"/>
							</g>
							<g>
								<ellipse class="st8" cx="195.2" cy="350.2" rx="4.6" ry="4.7"/>
								<ellipse class="st8" cx="195.2" cy="363.3" rx="4.6" ry="4.7"/>
								<ellipse class="st8" cx="195.2" cy="377.7" rx="4.6" ry="4.7"/>
								<ellipse class="st8" cx="195.2" cy="390.8" rx="4.6" ry="4.7"/>
								<ellipse class="st8" cx="195.2" cy="405.2" rx="4.6" ry="4.7"/>
								<ellipse class="st8" cx="195.2" cy="418.4" rx="4.6" ry="4.7"/>
							</g>
							<g>
								<ellipse class="st8" cx="204.5" cy="343.6" rx="4.6" ry="4.7"/>
								<ellipse class="st8" cx="204.5" cy="356.7" rx="4.6" ry="4.7"/>
								<ellipse class="st8" cx="204.5" cy="371.1" rx="4.6" ry="4.7"/>
								<ellipse class="st8" cx="204.5" cy="384.3" rx="4.6" ry="4.7"/>
								<ellipse class="st8" cx="204.5" cy="398.7" rx="4.6" ry="4.7"/>
								<ellipse class="st8" cx="204.5" cy="411.8" rx="4.6" ry="4.7"/>
							</g>
							<g>
								<ellipse class="st8" cx="213.9" cy="350.2" rx="4.6" ry="4.7"/>
								<ellipse class="st8" cx="213.9" cy="363.3" rx="4.6" ry="4.7"/>
								<ellipse class="st8" cx="213.9" cy="377.7" rx="4.6" ry="4.7"/>
								<ellipse class="st8" cx="213.9" cy="390.8" rx="4.6" ry="4.7"/>
								<ellipse class="st8" cx="213.9" cy="405.2" rx="4.6" ry="4.7"/>
								<ellipse class="st8" cx="213.9" cy="418.4" rx="4.6" ry="4.7"/>
							</g>
							<g>
								<ellipse class="st8" cx="223.2" cy="343.6" rx="4.6" ry="4.7"/>
								<ellipse class="st8" cx="223.2" cy="356.7" rx="4.6" ry="4.7"/>
								<ellipse class="st8" cx="223.2" cy="371.1" rx="4.6" ry="4.7"/>
								<ellipse class="st8" cx="223.2" cy="384.3" rx="4.6" ry="4.7"/>
								<ellipse class="st8" cx="223.2" cy="398.7" rx="4.6" ry="4.7"/>
								<ellipse class="st8" cx="223.2" cy="411.8" rx="4.6" ry="4.7"/>
							</g>
							<g>
								<ellipse class="st8" cx="232.6" cy="350.2" rx="4.6" ry="4.7"/>
								<ellipse class="st8" cx="232.6" cy="363.3" rx="4.6" ry="4.7"/>
								<ellipse class="st8" cx="232.6" cy="377.7" rx="4.6" ry="4.7"/>
								<ellipse class="st8" cx="232.6" cy="390.8" rx="4.6" ry="4.7"/>
								<ellipse class="st8" cx="232.6" cy="405.2" rx="4.6" ry="4.7"/>
								<ellipse class="st8" cx="232.6" cy="418.4" rx="4.6" ry="4.7"/>
							</g>
							<g>
								<ellipse class="st8" cx="241.9" cy="343.6" rx="4.6" ry="4.7"/>
								<ellipse class="st8" cx="241.9" cy="356.7" rx="4.6" ry="4.7"/>
								<ellipse class="st8" cx="241.9" cy="371.1" rx="4.6" ry="4.7"/>
								<ellipse class="st8" cx="241.9" cy="384.3" rx="4.6" ry="4.7"/>
								<ellipse class="st8" cx="241.9" cy="398.7" rx="4.6" ry="4.7"/>
								<ellipse class="st8" cx="241.9" cy="411.8" rx="4.6" ry="4.7"/>
							</g>
							<g>
								<ellipse class="st8" cx="251.2" cy="350.2" rx="4.6" ry="4.7"/>
								<ellipse class="st8" cx="251.2" cy="363.3" rx="4.6" ry="4.7"/>
								<ellipse class="st8" cx="251.2" cy="377.7" rx="4.6" ry="4.7"/>
								<ellipse class="st8" cx="251.2" cy="390.8" rx="4.6" ry="4.7"/>
								<ellipse class="st8" cx="251.2" cy="405.2" rx="4.6" ry="4.7"/>
								<ellipse class="st8" cx="251.2" cy="418.4" rx="4.6" ry="4.7"/>
							</g>
						</g>
					</g>
				</g>
				<rect x="134.5" y="334" class="st10" width="10.5" height="76.6"/>
				<rect x="254.5" y="334" class="st10" width="10.5" height="76.6"/>
				<rect x="130.2" y="410.6" class="st10" width="138" height="7.6"/>
			</g>
			<g>
				<g>
					<g>
						<path class="st13" d="M140.8,492.3c0,1.9-1.8,3.4-3.9,3.4c-2.2,0-3.9-1.5-3.9-3.4c0-0.6,0-3.8,0-3.8l7.9,0
							C140.8,488.5,140.8,490.4,140.8,492.3z"/>
						<path class="st14" d="M148.7,492.3c0,1.9-1.8,3.4-3.9,3.4c-2.2,0-3.9-1.5-3.9-3.4c0-0.6,0-3.8,0-3.8l7.9,0
							C148.7,488.5,148.7,490.4,148.7,492.3z"/>
					</g>
					<g>
						<path class="st13" d="M156.5,492.3c0,1.9-1.8,3.4-3.9,3.4c-2.2,0-3.9-1.5-3.9-3.4c0-0.6,0-3.8,0-3.8l7.9,0
							C156.5,488.5,156.5,490.4,156.5,492.3z"/>
						<path class="st14" d="M164.4,492.3c0,1.9-1.8,3.4-3.9,3.4c-2.2,0-3.9-1.5-3.9-3.4c0-0.6,0-3.8,0-3.8l7.9,0
							C164.4,488.5,164.4,490.4,164.4,492.3z"/>
					</g>
					<g>
						<path class="st13" d="M172.2,492.3c0,1.9-1.8,3.4-3.9,3.4c-2.2,0-3.9-1.5-3.9-3.4c0-0.6,0-3.8,0-3.8l7.9,0
							C172.2,488.5,172.2,490.4,172.2,492.3z"/>
						<path class="st14" d="M180.1,492.3c0,1.9-1.8,3.4-3.9,3.4c-2.2,0-3.9-1.5-3.9-3.4c0-0.6,0-3.8,0-3.8l7.9,0
							C180.1,488.5,180.1,490.4,180.1,492.3z"/>
					</g>
					<g>
						<path class="st13" d="M187.9,492.3c0,1.9-1.8,3.4-3.9,3.4c-2.2,0-3.9-1.5-3.9-3.4c0-0.6,0-3.8,0-3.8l7.9,0
							C187.9,488.5,187.9,490.4,187.9,492.3z"/>
						<path class="st14" d="M195.8,492.3c0,1.9-1.8,3.4-3.9,3.4c-2.2,0-3.9-1.5-3.9-3.4c0-0.6,0-3.8,0-3.8l7.9,0
							C195.8,488.5,195.8,490.4,195.8,492.3z"/>
					</g>
					<g>
						<path class="st13" d="M203.7,492.3c0,1.9-1.8,3.4-3.9,3.4c-2.2,0-3.9-1.5-3.9-3.4c0-0.6,0-3.8,0-3.8l7.9,0
							C203.7,488.5,203.7,490.4,203.7,492.3z"/>
						<path class="st14" d="M211.5,492.3c0,1.9-1.8,3.4-3.9,3.4c-2.2,0-3.9-1.5-3.9-3.4c0-0.6,0-3.8,0-3.8l7.9,0
							C211.5,488.5,211.5,490.4,211.5,492.3z"/>
					</g>
					<g>
						<path class="st13" d="M219.4,492.3c0,1.9-1.8,3.4-3.9,3.4c-2.2,0-3.9-1.5-3.9-3.4c0-0.6,0-3.8,0-3.8l7.9,0
							C219.4,488.5,219.4,490.4,219.4,492.3z"/>
						<path class="st14" d="M227.2,492.3c0,1.9-1.8,3.4-3.9,3.4c-2.2,0-3.9-1.5-3.9-3.4c0-0.6,0-3.8,0-3.8l7.9,0
							C227.2,488.5,227.2,490.4,227.2,492.3z"/>
					</g>
					<g>
						<path class="st13" d="M235.1,492.3c0,1.9-1.8,3.4-3.9,3.4c-2.2,0-3.9-1.5-3.9-3.4c0-0.6,0-3.8,0-3.8l7.9,0
							C235.1,488.5,235.1,490.4,235.1,492.3z"/>
						<path class="st14" d="M242.9,492.3c0,1.9-1.8,3.4-3.9,3.4c-2.2,0-3.9-1.5-3.9-3.4c0-0.6,0-3.8,0-3.8l7.8,0
							C242.9,488.5,242.9,490.4,242.9,492.3z"/>
					</g>
					<g>
						<path class="st13" d="M250.8,492.3c0,1.9-1.8,3.4-3.9,3.4c-2.2,0-3.9-1.5-3.9-3.4c0-0.6,0-3.8,0-3.8l7.9,0
							C250.8,488.5,250.8,490.4,250.8,492.3z"/>
						<path class="st14" d="M258.6,492.3c0,1.9-1.8,3.4-3.9,3.4c-2.2,0-3.9-1.5-3.9-3.4c0-0.6,0-3.8,0-3.8l7.9,0
							C258.6,488.5,258.6,490.4,258.6,492.3z"/>
					</g>
					<g>
						<path class="st13" d="M266.5,492.3c0,1.9-1.8,3.4-3.9,3.4c-2.2,0-3.9-1.5-3.9-3.4c0-0.6,0-3.8,0-3.8l7.9,0
							C266.5,488.5,266.5,490.4,266.5,492.3z"/>
					</g>
				</g>
				<g>
					<rect x="133" y="484.3" class="st12" width="133.5" height="4.1"/>
				</g>
			</g>
		</g>
		<circle class="st9" cx="484.2" cy="138" r="55.6"/>
		<path class="st5" d="M335.1,205.1c0.2-1.6,0.4-3.2,0.4-4.8c0-16.9-13.7-30.6-30.6-30.6c-15,0-27.5,10.8-30.1,25
			c-1.2-0.2-2.3-0.3-3.5-0.3c-9.2,0-17.1,6-19.8,14.4c-2.7-8.3-10.5-14.4-19.8-14.4c-11.5,0-20.8,9.3-20.8,20.8c0,2.2,0.4,4.4,1,6.4
			c-9.2,2.1-16.1,10.4-16.1,20.2c0,11.5,9.3,20.8,20.8,20.8c4.2,0,8.2-1.3,11.4-3.4c4.8,10.6,15.5,17.9,27.9,17.9
			c11.6,0,21.7-6.5,26.9-16c4.4,5.7,11.2,9.3,19,9.3c13.2,0,23.9-10.7,23.9-23.9c0-0.4,0-0.7,0-1.1c2.1,0.7,4.3,1.1,6.7,1.1
			c11.5,0,20.8-9.3,20.8-20.8C353.2,215.1,345.3,206.4,335.1,205.1z M288.7,226.4C288.8,226.4,288.8,226.4,288.7,226.4
			c0,0.1,0,0.1-0.1,0.1C288.7,226.4,288.7,226.4,288.7,226.4z"/>
		<path class="st5" d="M591.3,172.1c0.3-1.8,0.4-3.7,0.4-5.6c0-19.9-16.2-36.1-36.1-36.1c-17.7,0-32.4,12.7-35.5,29.5
			c-1.4-0.2-2.8-0.4-4.2-0.4c-10.9,0-20.1,7.1-23.3,17c-3.2-9.8-12.4-17-23.3-17c-13.5,0-24.5,11-24.5,24.5c0,2.6,0.4,5.2,1.2,7.6
			c-10.9,2.5-19,12.2-19,23.9c0,13.5,11,24.5,24.5,24.5c5,0,9.6-1.5,13.5-4c5.7,12.4,18.3,21.1,32.8,21.1c13.7,0,25.6-7.6,31.8-18.9
			c5.2,6.7,13.3,11,22.4,11c15.6,0,28.2-12.6,28.2-28.2c0-0.4,0-0.9,0-1.3c2.5,0.8,5.1,1.3,7.9,1.3c13.5,0,24.5-11,24.5-24.5
			C612.6,183.9,603.3,173.7,591.3,172.1z M536.6,197.2C536.6,197.2,536.7,197.2,536.6,197.2c0,0.1,0,0.1-0.1,0.1
			C536.6,197.2,536.6,197.2,536.6,197.2z"/>
		<g>
			<rect x="143.3" y="547.5" class="st7" width="2.9" height="26.2"/>
			<rect x="142.5" y="547.3" class="st6" width="4.5" height="3.6"/>
		</g>
		<g>
			<rect x="213.2" y="547.6" class="st7" width="2.9" height="26.2"/>
			<rect x="212.3" y="547.4" class="st6" width="4.5" height="3.6"/>
		</g>
		<g>
			<rect x="283" y="547.8" class="st7" width="2.9" height="26.2"/>
			<rect x="282.2" y="547.5" class="st6" width="4.5" height="3.6"/>
		</g>
		<g>
			<rect x="352.8" y="547.9" class="st7" width="2.9" height="26.2"/>
			<rect x="352" y="547.6" class="st6" width="4.5" height="3.6"/>
		</g>
		<g>
			<rect x="422.7" y="548" class="st7" width="2.9" height="26.2"/>
			<rect x="421.8" y="547.8" class="st6" width="4.5" height="3.6"/>
		</g>
		<g>
			<rect x="492.5" y="548.1" class="st7" width="2.9" height="26.2"/>
			<rect x="491.7" y="547.9" class="st6" width="4.5" height="3.6"/>
		</g>
		<g>
			<rect x="562.3" y="548.2" class="st7" width="2.9" height="26.2"/>
			<rect x="561.5" y="548" class="st6" width="4.5" height="3.6"/>
		</g>
		<g>
			<rect x="632.2" y="548.4" class="st7" width="2.9" height="26.2"/>
			<rect x="631.3" y="548.1" class="st6" width="4.5" height="3.6"/>
		</g>
		<g>
			<rect x="702" y="548.5" class="st7" width="2.9" height="26.2"/>
			<rect x="701.2" y="548.2" class="st6" width="4.5" height="3.6"/>
		</g>
		<polygon class="st24" points="728.6,592.2 85.3,592.2 68.2,573.6 749.9,573.6 		"/>
		<g>
			<path class="st6" d="M329.6,458.5c-0.6-5.5-5.3-9.9-11-9.9c-6.1,0-11,4.9-11,11c5.2,0,13,0,18.2,0v113.8h3.9L329.6,458.5
				L329.6,458.5z"/>
			<path class="st6" d="M710.6,458.5c-0.6-5.5-5.3-9.9-11-9.9c-6.1,0-11,4.9-11,11c5.2,0,13,0,18.2,0v113.8h3.9L710.6,458.5
				L710.6,458.5z"/>
			<path class="st6" d="M518.7,458.7c-0.6-5.5-5.3-9.9-11-9.9c-6.1,0-11,4.9-11,11c5.2,0,13,0,18.2,0v113.8h3.9L518.7,458.7
				L518.7,458.7z"/>
			<path class="st6" d="M140.6,458.7c-0.6-5.5-5.3-9.9-11-9.9c-6.1,0-11,4.9-11,11c5.2,0,13,0,18.2,0v113.8h3.9L140.6,458.7
				L140.6,458.7z"/>
		</g>
		<g>
			<g>
				<path class="st25" d="M169.9,557c-2.1,3.9-4.1,6.9-4.3,7.2l-1.5-1c0-0.1,2.1-3.1,4.2-7.1c-1.1-0.5-2.2-0.8-3.5-0.8
					c-4.6,0-8.4,3.8-8.4,8.4c0,4.6,3.8,8.4,8.4,8.4c4.6,0,8.4-3.8,8.4-8.4C173.2,560.9,171.9,558.5,169.9,557z"/>
				<path class="st6" d="M171.8,552.5c0.2-0.4,2.1-5.5,3.8-9.5c0.4-0.7,0.7-0.8,1.2-0.8l0,0.6v-2.1c-2,0-2.7,1.9-2.7,1.9
					c-1.3,2.9-2.2,5.9-3.7,9.2c-4-1.5-7.8-0.9-8.4-0.8c-1.8,0.3-2.6,1.8-1,1.7c6.1-0.9,8.6,0.8,8.6,0.8s-0.3,0.5-0.4,0.8
					c-1.3-0.6-2.8-1-4.3-1c-5.6,0-10.2,4.6-10.2,10.2c0,5.6,4.6,10.2,10.2,10.2c5.6,0,10.2-4.6,10.2-10.2c0-3.4-1.7-6.5-4.3-8.3
					c0.2-0.3,0.3-0.6,0.5-1c0.8,0.3,1.9,1.3,1.9,1.3s3.6,3,3.1,7.9c-0.2,1.2,1.1,1.7,1.4,0c0.2-1.4,0-4.1-0.9-5.4
					c0,0,2.9,2.1,4.4,4.8c0,0.7,0.1,1.2,0.4,1.6v-3.5C180.8,560,178,556.6,171.8,552.5z M173.2,563.6c0,4.6-3.8,8.4-8.4,8.4
					c-4.6,0-8.4-3.8-8.4-8.4c0-4.6,3.8-8.4,8.4-8.4c1.2,0,2.4,0.3,3.5,0.8c-2.1,4-4.2,7-4.2,7.1l1.5,1c0.2-0.3,2.2-3.2,4.3-7.2
					C171.9,558.5,173.2,560.9,173.2,563.6z"/>
				<path class="st18" d="M181,556.7c-0.5,0.2-0.3,0.9,0,0.9c0.2,0,0.4,0,0.6,0v-0.9C181.3,556.8,181.1,556.7,181,556.7z"/>
				<path class="st6" d="M207.5,563.6c0-5.6-4.6-10.2-10.2-10.2c-0.4,0-0.7,0-1.1,0.1h-2.8c0.4-0.2,0.8-0.4,1.3-0.6
					c2-0.6,6.7-0.9,11.3,3.5c1.2,1.2,2.5-0.3,0.8-1.8c-4.2-3.7-9.4-4.4-12.7-3.4c-1.9,0.6-3,1.7-3.5,2.3h-0.4l3.8-6.6
					c0,0,2.6,0,3.3,0c1.5-0.8,0.6-1.8,0-1.9c-0.3,0-5.7,0-6.1,0c-1.6,0.3-0.8,1.9,0,1.9c0.3,0,0.7,0,0.7,0l-8.1,14
					c-0.1,0-0.1,0-0.1,0c0,0-0.1,0-0.1,0l-0.6-3.2c0,0,0.6,0,0.7,0c0.5-0.4,0.2-0.9,0-0.9c-0.1,0-1.2,0-2,0v0.9c0.2,0,0.3,0,0.3,0
					l0.6,3.4c-0.4,0.2-0.5,0.4-0.6,0.6c0,0-0.1-0.2-0.3-0.5v3.5c0.4,0.7,1.1,1,2,1c0.9,0,1.6-0.5,2-1.1h1.5
					c0.5,5.2,4.9,9.3,10.2,9.3C202.9,573.9,207.5,569.3,207.5,563.6z M187.1,562.7h-1.2c-0.1-0.3-0.3-0.7-0.5-0.9l3.9-6.5h2
					C189,557,187.4,559.7,187.1,562.7z M196.3,555.3L196.3,555.3l0.1,7.4H189C189.4,558.8,192.5,555.8,196.3,555.3z M197.3,572
					c-4.3,0-7.9-3.3-8.3-7.4h9.3v-9.2c4.2,0.5,7.4,4,7.4,8.3C205.7,568.2,201.9,572,197.3,572z"/>
			</g>
			<g>
				<g>
					<path class="st25" d="M196.4,555.3L196.4,555.3c-3.9,0.5-7,3.5-7.4,7.4h7.4V555.3z"/>
					<path class="st25" d="M191.3,555.3h-2l-3.9,6.5c0.2,0.3,0.4,0.6,0.5,0.9h1.2C187.4,559.7,189,557,191.3,555.3z"/>
					<path class="st25" d="M169.9,557c-2.1,3.9-4.1,6.9-4.3,7.2l-1.5-1c0-0.1,2.1-3.1,4.2-7.1c-1.1-0.5-2.2-0.8-3.5-0.8
						c-4.6,0-8.4,3.8-8.4,8.4c0,4.6,3.8,8.4,8.4,8.4c4.6,0,8.4-3.8,8.4-8.4C173.2,560.9,171.9,558.5,169.9,557z"/>
					<path class="st25" d="M198.2,555.3v9.2H189c0.5,4.2,4,7.4,8.3,7.4c4.6,0,8.4-3.8,8.4-8.4C205.7,559.3,202.4,555.8,198.2,555.3z
						"/>
					<path class="st26" d="M180.9,542.8C180.9,542.8,180.9,542.8,180.9,542.8l-4,0C177.7,542.9,179,542.8,180.9,542.8z"/>
					<path class="st27" d="M176.9,540.2c1.3,0,2.2,0,4.1,0L176.9,540.2l0,0.5c0,0,0,0,0,0L176.9,540.2z"/>
					<path class="st18" d="M180.9,542.8c0.1-0.1,1.5-1.4,0-2.6c-1.8,0-2.7,0-4.1,0l0,0.5c0,0,0,0,0,0v2.1H180.9z"/>
				</g>
				<circle class="st10" cx="164.8" cy="563.6" r="3.2"/>
				<circle class="st28" cx="164.8" cy="563.6" r="1.2"/>
				<circle class="st10" cx="197.8" cy="563.6" r="3.2"/>
				<circle class="st28" cx="197.8" cy="563.6" r="1.2"/>
				<path class="st18" d="M197.8,560.5c1.8,0,3.2,1.4,3.2,3.2c0,1.7-1.4,3.2-3.2,3.2c-0.2,0-0.3,0-0.5,0l-13.7-1.1
					c-1.3,0-2.3-1-2.3-2.3c0-1.3,1-2.3,2.3-2.3L197.8,560.5 M197.8,559.6L197.8,559.6L197.8,559.6l-14.1,0.6c-1.7,0-3.1,1.4-3.1,3.2
					c0,1.7,1.4,3.1,3.1,3.2l13.6,1.1c0.2,0,0.4,0,0.5,0c2.2,0,4-1.8,4-4S200,559.6,197.8,559.6L197.8,559.6z"/>
			</g>
		</g>
	</g>
</g>
</svg>
