<?xml version="1.0" encoding="utf-8"?>
<!-- Generator: Adobe Illustrator 21.1.0, SVG Export Plug-In . SVG Version: 6.00 Build 0)  -->
<svg version="1.1" xmlns="http://www.w3.org/2000/svg" xmlns:xlink="http://www.w3.org/1999/xlink" x="0px" y="0px"
	 viewBox="0 0 800 800" style="enable-background:new 0 0 800 800;" xml:space="preserve">
<style type="text/css">
	.st0{fill:url(#SVGID_1_);}
	.st1{fill:#1C100B;}
	.st2{fill:#D25400;}
	.st3{fill:#D25400;stroke:#1C100B;stroke-width:5.2812;stroke-miterlimit:10;}
	.st4{fill:#F2A672;}
	.st5{font-family:'WatchwordRegularDemo';}
	.st6{font-size:50px;}
</style>
<g id="Background">
	<radialGradient id="SVGID_1_" cx="400" cy="400" r="400" gradientUnits="userSpaceOnUse">
		<stop  offset="0" style="stop-color:#FFD98D"/>
		<stop  offset="1" style="stop-color:#FFC368"/>
	</radialGradient>
	<rect class="st0" width="800" height="800"/>
	<g id="XMLID_2221_">
		<g id="XMLID_2297_">
			<path id="XMLID_2347_" class="st1" d="M288,781.3V781c-0.3,0.4-0.7,0.7-1,1c-0.3,0.3-0.7,0.4-1.1,0.6c-0.4,0.1-0.8,0.2-1.3,0.2
				c-0.6,0-1.2-0.1-1.7-0.4c-0.5-0.3-1-0.6-1.4-1.1c-0.4-0.5-0.7-1.1-0.9-1.7c-0.2-0.7-0.3-1.4-0.3-2.1c0-1.6,0.4-2.9,1.2-3.8
				c0.8-0.9,1.8-1.4,3.1-1.4c0.7,0,1.4,0.1,1.9,0.4c0.5,0.3,1,0.7,1.5,1.2V770c0-0.5,0.1-0.9,0.3-1.2c0.2-0.3,0.5-0.4,0.9-0.4
				c0.4,0,0.7,0.1,0.9,0.4c0.2,0.3,0.3,0.6,0.3,1.1v11.4c0,0.5-0.1,0.9-0.3,1.1c-0.2,0.2-0.5,0.4-0.9,0.4c-0.4,0-0.6-0.1-0.9-0.4
				C288.1,782.1,288,781.8,288,781.3z M282.9,777.5c0,0.7,0.1,1.3,0.3,1.8c0.2,0.5,0.5,0.9,0.9,1.1c0.4,0.2,0.8,0.4,1.2,0.4
				c0.5,0,0.9-0.1,1.2-0.4c0.4-0.2,0.7-0.6,0.9-1.1c0.2-0.5,0.3-1.1,0.3-1.8c0-0.7-0.1-1.3-0.3-1.8c-0.2-0.5-0.5-0.9-0.9-1.1
				c-0.4-0.3-0.8-0.4-1.3-0.4c-0.5,0-0.9,0.1-1.3,0.4c-0.4,0.3-0.7,0.7-0.9,1.2C283,776.2,282.9,776.8,282.9,777.5z"/>
			<path id="XMLID_2341_" class="st1" d="M299.5,778.1h-5.1c0,0.6,0.1,1.1,0.4,1.6c0.2,0.4,0.5,0.8,0.9,1c0.4,0.2,0.8,0.3,1.3,0.3
				c0.3,0,0.6,0,0.9-0.1c0.3-0.1,0.5-0.2,0.7-0.3c0.2-0.2,0.5-0.3,0.7-0.5c0.2-0.2,0.5-0.4,0.8-0.7c0.1-0.1,0.3-0.2,0.6-0.2
				c0.3,0,0.5,0.1,0.6,0.2c0.2,0.1,0.2,0.3,0.2,0.6c0,0.2-0.1,0.5-0.3,0.8c-0.2,0.3-0.5,0.6-0.8,0.9c-0.4,0.3-0.8,0.5-1.4,0.7
				c-0.6,0.2-1.2,0.3-1.9,0.3c-1.7,0-3-0.5-3.9-1.4c-0.9-0.9-1.4-2.2-1.4-3.9c0-0.8,0.1-1.5,0.3-2.1c0.2-0.7,0.6-1.2,1-1.7
				c0.4-0.5,1-0.8,1.6-1.1c0.6-0.2,1.3-0.4,2.1-0.4c1,0,1.9,0.2,2.6,0.6c0.7,0.4,1.3,1,1.6,1.7c0.4,0.7,0.5,1.4,0.5,2.1
				c0,0.7-0.2,1.1-0.6,1.3C300.7,778,300.1,778.1,299.5,778.1z M294.4,776.7h4.7c-0.1-0.9-0.3-1.6-0.7-2c-0.4-0.4-1-0.7-1.6-0.7
				c-0.6,0-1.2,0.2-1.6,0.7C294.7,775.1,294.5,775.8,294.4,776.7z"/>
			<path id="XMLID_2337_" class="st1" d="M311.3,779.4c0,0.7-0.2,1.3-0.5,1.8c-0.3,0.5-0.9,0.9-1.5,1.2c-0.7,0.3-1.5,0.4-2.5,0.4
				c-0.9,0-1.7-0.1-2.4-0.4c-0.7-0.3-1.2-0.6-1.5-1.1c-0.3-0.4-0.5-0.9-0.5-1.3c0-0.3,0.1-0.5,0.3-0.7c0.2-0.2,0.5-0.3,0.8-0.3
				c0.3,0,0.5,0.1,0.6,0.2s0.3,0.3,0.4,0.6c0.3,0.5,0.6,0.8,1,1c0.4,0.2,0.9,0.3,1.5,0.3c0.5,0,0.9-0.1,1.3-0.3
				c0.3-0.2,0.5-0.5,0.5-0.8c0-0.5-0.2-0.8-0.5-1c-0.3-0.2-0.9-0.4-1.7-0.6c-0.9-0.2-1.6-0.5-2.2-0.7c-0.6-0.2-1-0.6-1.3-1
				c-0.3-0.4-0.5-0.9-0.5-1.5c0-0.5,0.2-1,0.5-1.5c0.3-0.5,0.8-0.8,1.4-1.1c0.6-0.3,1.3-0.4,2.2-0.4c0.7,0,1.3,0.1,1.8,0.2
				c0.5,0.1,1,0.3,1.3,0.6c0.4,0.2,0.6,0.5,0.8,0.8c0.2,0.3,0.3,0.6,0.3,0.8c0,0.3-0.1,0.5-0.3,0.7c-0.2,0.2-0.5,0.3-0.9,0.3
				c-0.3,0-0.5-0.1-0.7-0.2c-0.2-0.2-0.4-0.4-0.6-0.7c-0.2-0.3-0.4-0.5-0.7-0.6c-0.3-0.2-0.6-0.2-1.1-0.2c-0.5,0-0.9,0.1-1.2,0.3
				c-0.3,0.2-0.5,0.4-0.5,0.7c0,0.3,0.1,0.5,0.3,0.7c0.2,0.2,0.5,0.3,0.9,0.4c0.4,0.1,0.9,0.3,1.6,0.4c0.8,0.2,1.5,0.4,2,0.7
				c0.5,0.3,0.9,0.6,1.2,1C311.1,778.5,311.3,778.9,311.3,779.4z"/>
			<path id="XMLID_2331_" class="st1" d="M313.9,771c-0.4,0-0.7-0.1-0.9-0.3c-0.3-0.2-0.4-0.5-0.4-0.9c0-0.4,0.1-0.7,0.4-0.9
				c0.3-0.2,0.6-0.4,0.9-0.4c0.3,0,0.6,0.1,0.9,0.3c0.3,0.2,0.4,0.5,0.4,0.9c0,0.4-0.1,0.7-0.4,0.9C314.6,770.9,314.3,771,313.9,771
				z M315.2,773.7v7.5c0,0.5-0.1,0.9-0.4,1.2c-0.2,0.3-0.6,0.4-0.9,0.4c-0.4,0-0.7-0.1-0.9-0.4c-0.2-0.3-0.4-0.7-0.4-1.2v-7.4
				c0-0.5,0.1-0.9,0.4-1.2c0.2-0.3,0.5-0.4,0.9-0.4c0.4,0,0.7,0.1,0.9,0.4C315.1,772.9,315.2,773.2,315.2,773.7z"/>
			<path id="XMLID_2325_" class="st1" d="M326.6,774.1v7.5c0,0.9-0.1,1.6-0.3,2.2c-0.2,0.6-0.5,1.1-0.9,1.5
				c-0.4,0.4-0.9,0.7-1.6,0.9c-0.7,0.2-1.5,0.3-2.4,0.3c-0.9,0-1.7-0.1-2.4-0.4c-0.7-0.3-1.2-0.6-1.6-1c-0.4-0.4-0.6-0.8-0.6-1.2
				c0-0.3,0.1-0.6,0.3-0.8c0.2-0.2,0.5-0.3,0.8-0.3c0.4,0,0.7,0.2,1,0.5c0.1,0.2,0.3,0.3,0.4,0.5c0.1,0.2,0.3,0.3,0.5,0.4
				c0.2,0.1,0.4,0.2,0.7,0.3c0.3,0.1,0.5,0.1,0.9,0.1c0.7,0,1.2-0.1,1.6-0.3c0.4-0.2,0.6-0.4,0.8-0.8c0.1-0.3,0.2-0.7,0.3-1.1
				c0-0.4,0-1,0.1-1.8c-0.4,0.6-0.9,1-1.4,1.3c-0.5,0.3-1.1,0.4-1.9,0.4c-0.9,0-1.6-0.2-2.3-0.7c-0.6-0.4-1.1-1.1-1.5-1.9
				c-0.3-0.8-0.5-1.7-0.5-2.8c0-0.8,0.1-1.5,0.3-2.1c0.2-0.6,0.5-1.2,0.9-1.6c0.4-0.4,0.8-0.8,1.4-1c0.5-0.2,1.1-0.3,1.7-0.3
				c0.7,0,1.4,0.1,1.9,0.4c0.5,0.3,1,0.7,1.5,1.3v-0.4c0-0.4,0.1-0.8,0.3-1c0.2-0.2,0.5-0.4,0.9-0.4c0.5,0,0.8,0.2,1,0.5
				C326.5,773,326.6,773.5,326.6,774.1z M319,777.4c0,1.1,0.2,1.8,0.7,2.4c0.5,0.5,1.1,0.8,1.8,0.8c0.4,0,0.8-0.1,1.2-0.3
				c0.4-0.2,0.7-0.6,0.9-1c0.2-0.5,0.4-1,0.4-1.7c0-1.1-0.2-1.9-0.7-2.5c-0.5-0.6-1.1-0.9-1.8-0.9c-0.7,0-1.3,0.3-1.8,0.8
				C319.3,775.6,319,776.4,319,777.4z"/>
			<path id="XMLID_2321_" class="st1" d="M330.7,773.7v0.3c0.5-0.6,1-1,1.5-1.3c0.5-0.3,1.2-0.4,1.9-0.4c0.7,0,1.3,0.2,1.8,0.4
				c0.5,0.3,0.9,0.7,1.2,1.3c0.2,0.3,0.3,0.7,0.3,1c0.1,0.4,0.1,0.8,0.1,1.4v4.8c0,0.5-0.1,0.9-0.4,1.2c-0.2,0.3-0.5,0.4-0.9,0.4
				c-0.4,0-0.7-0.1-0.9-0.4c-0.2-0.3-0.4-0.7-0.4-1.2v-4.3c0-0.9-0.1-1.5-0.4-2c-0.2-0.5-0.7-0.7-1.4-0.7c-0.5,0-0.9,0.1-1.3,0.4
				c-0.4,0.3-0.7,0.7-0.8,1.1c-0.1,0.4-0.2,1.1-0.2,2.2v3.2c0,0.5-0.1,0.9-0.4,1.2c-0.2,0.3-0.6,0.4-0.9,0.4c-0.4,0-0.7-0.1-0.9-0.4
				c-0.2-0.3-0.4-0.7-0.4-1.2v-7.5c0-0.5,0.1-0.9,0.3-1.1c0.2-0.2,0.5-0.4,0.9-0.4c0.2,0,0.4,0.1,0.6,0.2c0.2,0.1,0.3,0.3,0.4,0.5
				C330.6,773.1,330.7,773.3,330.7,773.7z"/>
			<path id="XMLID_2315_" class="st1" d="M346.5,778.1h-5.1c0,0.6,0.1,1.1,0.4,1.6c0.2,0.4,0.5,0.8,0.9,1c0.4,0.2,0.8,0.3,1.3,0.3
				c0.3,0,0.6,0,0.9-0.1c0.3-0.1,0.5-0.2,0.7-0.3c0.2-0.2,0.5-0.3,0.7-0.5c0.2-0.2,0.5-0.4,0.8-0.7c0.1-0.1,0.3-0.2,0.6-0.2
				c0.3,0,0.5,0.1,0.6,0.2c0.2,0.1,0.2,0.3,0.2,0.6c0,0.2-0.1,0.5-0.3,0.8c-0.2,0.3-0.5,0.6-0.8,0.9c-0.4,0.3-0.8,0.5-1.4,0.7
				c-0.6,0.2-1.2,0.3-1.9,0.3c-1.7,0-3-0.5-3.9-1.4c-0.9-0.9-1.4-2.2-1.4-3.9c0-0.8,0.1-1.5,0.3-2.1c0.2-0.7,0.6-1.2,1-1.7
				c0.4-0.5,1-0.8,1.6-1.1c0.6-0.2,1.3-0.4,2.1-0.4c1,0,1.9,0.2,2.6,0.6c0.7,0.4,1.3,1,1.6,1.7c0.4,0.7,0.5,1.4,0.5,2.1
				c0,0.7-0.2,1.1-0.6,1.3C347.7,778,347.1,778.1,346.5,778.1z M341.4,776.7h4.7c-0.1-0.9-0.3-1.6-0.7-2c-0.4-0.4-1-0.7-1.6-0.7
				c-0.6,0-1.2,0.2-1.6,0.7C341.7,775.1,341.5,775.8,341.4,776.7z"/>
			<path id="XMLID_2309_" class="st1" d="M357,781.3V781c-0.3,0.4-0.7,0.7-1,1c-0.3,0.3-0.7,0.4-1.1,0.6c-0.4,0.1-0.8,0.2-1.3,0.2
				c-0.6,0-1.2-0.1-1.7-0.4c-0.5-0.3-1-0.6-1.4-1.1c-0.4-0.5-0.7-1.1-0.9-1.7c-0.2-0.7-0.3-1.4-0.3-2.1c0-1.6,0.4-2.9,1.2-3.8
				c0.8-0.9,1.8-1.4,3.1-1.4c0.7,0,1.4,0.1,1.9,0.4s1,0.7,1.5,1.2V770c0-0.5,0.1-0.9,0.3-1.2c0.2-0.3,0.5-0.4,0.9-0.4
				c0.4,0,0.7,0.1,0.9,0.4c0.2,0.3,0.3,0.6,0.3,1.1v11.4c0,0.5-0.1,0.9-0.3,1.1c-0.2,0.2-0.5,0.4-0.9,0.4c-0.4,0-0.6-0.1-0.9-0.4
				C357.1,782.1,357,781.8,357,781.3z M351.9,777.5c0,0.7,0.1,1.3,0.3,1.8c0.2,0.5,0.5,0.9,0.9,1.1c0.4,0.2,0.8,0.4,1.2,0.4
				c0.5,0,0.9-0.1,1.2-0.4c0.4-0.2,0.7-0.6,0.9-1.1c0.2-0.5,0.3-1.1,0.3-1.8c0-0.7-0.1-1.3-0.3-1.8c-0.2-0.5-0.5-0.9-0.9-1.1
				c-0.4-0.3-0.8-0.4-1.3-0.4c-0.5,0-0.9,0.1-1.3,0.4c-0.4,0.3-0.7,0.7-0.9,1.2C352,776.2,351.9,776.8,351.9,777.5z"/>
			<path id="XMLID_2303_" class="st1" d="M367.6,769.9v4c0.5-0.5,1-0.9,1.5-1.2c0.5-0.3,1.1-0.4,1.9-0.4c0.9,0,1.6,0.2,2.3,0.6
				c0.6,0.4,1.2,1,1.5,1.8c0.4,0.8,0.5,1.7,0.5,2.8c0,0.8-0.1,1.5-0.3,2.2c-0.2,0.7-0.5,1.2-0.9,1.7c-0.4,0.5-0.8,0.9-1.4,1.1
				c-0.5,0.3-1.1,0.4-1.8,0.4c-0.4,0-0.8,0-1.1-0.1c-0.4-0.1-0.7-0.2-0.9-0.4c-0.2-0.2-0.5-0.3-0.6-0.5c-0.2-0.2-0.4-0.4-0.7-0.7
				v0.3c0,0.5-0.1,0.9-0.4,1.1c-0.2,0.2-0.5,0.4-0.9,0.4c-0.4,0-0.7-0.1-0.9-0.4c-0.2-0.3-0.3-0.6-0.3-1.1V770
				c0-0.5,0.1-0.9,0.3-1.2c0.2-0.3,0.5-0.4,0.9-0.4c0.4,0,0.7,0.1,0.9,0.4C367.5,769,367.6,769.4,367.6,769.9z M367.7,777.6
				c0,1,0.2,1.8,0.7,2.4c0.5,0.6,1.1,0.8,1.9,0.8c0.7,0,1.2-0.3,1.7-0.9c0.5-0.6,0.7-1.4,0.7-2.4c0-0.7-0.1-1.3-0.3-1.8
				c-0.2-0.5-0.5-0.9-0.8-1.1c-0.4-0.3-0.8-0.4-1.3-0.4c-0.5,0-0.9,0.1-1.3,0.4c-0.4,0.3-0.7,0.7-0.9,1.2
				C367.9,776.2,367.7,776.9,367.7,777.6z"/>
			<path id="XMLID_2299_" class="st1" d="M378.7,783.1l0.2-0.6l-3.2-8c-0.2-0.5-0.3-0.8-0.3-1c0-0.2,0.1-0.4,0.2-0.6
				c0.1-0.2,0.3-0.3,0.5-0.5c0.2-0.1,0.4-0.2,0.6-0.2c0.4,0,0.7,0.1,0.8,0.4c0.2,0.2,0.4,0.6,0.5,1l2.2,6.4l2.1-5.9
				c0.2-0.5,0.3-0.9,0.4-1.1c0.1-0.3,0.3-0.5,0.4-0.5c0.1-0.1,0.4-0.1,0.6-0.1c0.2,0,0.4,0.1,0.6,0.2c0.2,0.1,0.3,0.2,0.4,0.4
				c0.1,0.2,0.1,0.4,0.1,0.6c0,0.1-0.1,0.3-0.1,0.5c-0.1,0.2-0.1,0.4-0.2,0.7l-3.4,8.9c-0.3,0.8-0.6,1.4-0.9,1.8
				c-0.3,0.4-0.6,0.8-1.1,1c-0.5,0.2-1.1,0.4-1.9,0.4c-0.8,0-1.3-0.1-1.7-0.2c-0.4-0.2-0.6-0.5-0.6-0.9c0-0.3,0.1-0.5,0.3-0.7
				c0.2-0.2,0.4-0.2,0.8-0.2c0.1,0,0.3,0,0.4,0.1c0.2,0,0.3,0.1,0.4,0.1c0.3,0,0.5,0,0.7-0.1c0.2-0.1,0.3-0.2,0.5-0.5
				C378.3,783.8,378.5,783.5,378.7,783.1z"/>
		</g>
		<g id="XMLID_2254_">
			<path id="XMLID_2295_" class="st1" d="M416.2,772.4h0.6v-0.8c0-0.8,0.1-1.5,0.3-1.9c0.2-0.5,0.6-0.8,1-1c0.5-0.2,1.2-0.3,2-0.3
				c1.5,0,2.3,0.4,2.3,1.1c0,0.2-0.1,0.4-0.2,0.6c-0.2,0.2-0.3,0.3-0.6,0.3c-0.1,0-0.3,0-0.5-0.1c-0.2,0-0.5-0.1-0.6-0.1
				c-0.5,0-0.8,0.1-0.9,0.4c-0.1,0.3-0.2,0.7-0.2,1.2v0.6h0.6c1,0,1.5,0.3,1.5,0.9c0,0.4-0.1,0.7-0.4,0.8c-0.3,0.1-0.6,0.2-1.1,0.2
				h-0.6v6.9c0,0.5-0.1,0.9-0.4,1.2c-0.2,0.3-0.6,0.4-0.9,0.4c-0.4,0-0.7-0.1-0.9-0.4c-0.2-0.3-0.4-0.7-0.4-1.2v-6.9h-0.7
				c-0.4,0-0.7-0.1-0.9-0.3c-0.2-0.2-0.3-0.4-0.3-0.7C414.9,772.8,415.4,772.4,416.2,772.4"/>
			<path id="XMLID_2293_" class="st1" d="M424.7,779v2.2c0,0.5-0.1,0.9-0.4,1.2c-0.2,0.3-0.6,0.4-0.9,0.4c-0.4,0-0.7-0.1-0.9-0.4
				c-0.2-0.3-0.4-0.7-0.4-1.2V774c0-1.2,0.4-1.7,1.3-1.7c0.4,0,0.7,0.1,0.9,0.4c0.2,0.3,0.3,0.7,0.3,1.2c0.3-0.5,0.6-0.9,0.9-1.2
				c0.3-0.3,0.8-0.4,1.3-0.4c0.5,0,1.1,0.1,1.6,0.4c0.5,0.3,0.8,0.6,0.8,1.1c0,0.3-0.1,0.6-0.3,0.8c-0.2,0.2-0.5,0.3-0.7,0.3
				c-0.1,0-0.3-0.1-0.7-0.2c-0.4-0.1-0.7-0.2-1-0.2c-0.4,0-0.7,0.1-0.9,0.3c-0.2,0.2-0.4,0.5-0.6,0.9c-0.1,0.4-0.2,0.9-0.3,1.4
				C424.7,777.6,424.7,778.2,424.7,779"/>
			<path id="XMLID_2285_" class="st1" d="M434.1,781c0.3,0,0.6,0,0.8-0.1c0.3-0.1,0.5-0.2,0.7-0.3c0.2-0.2,0.5-0.3,0.7-0.5
				c0.2-0.2,0.5-0.4,0.8-0.7c0.1-0.1,0.3-0.2,0.6-0.2c0.3,0,0.5,0.1,0.6,0.2c0.2,0.1,0.2,0.3,0.2,0.6c0,0.2-0.1,0.5-0.3,0.8
				c-0.2,0.3-0.5,0.6-0.8,0.9c-0.4,0.3-0.8,0.5-1.4,0.7c-0.6,0.2-1.2,0.3-1.9,0.3c-1.7,0-3-0.5-3.9-1.4c-0.9-1-1.4-2.2-1.4-3.9
				c0-0.8,0.1-1.5,0.3-2.1c0.2-0.7,0.6-1.2,1-1.7c0.4-0.5,1-0.8,1.6-1.1c0.6-0.2,1.3-0.4,2.1-0.4c1,0,1.9,0.2,2.6,0.6
				c0.7,0.4,1.3,1,1.6,1.7c0.4,0.7,0.5,1.4,0.5,2.1c0,0.6-0.2,1.1-0.6,1.3c-0.4,0.2-0.9,0.3-1.6,0.3 M436.6,778.1h-5.1
				c0,0.6,0.1,1.1,0.4,1.6c0.2,0.4,0.5,0.8,0.9,1c0.4,0.2,0.8,0.3,1.3,0.3 M431.6,776.7h4.7c-0.1-0.9-0.3-1.5-0.7-2
				c-0.4-0.4-1-0.7-1.6-0.7c-0.6,0-1.2,0.2-1.6,0.7C431.9,775.1,431.7,775.8,431.6,776.7"/>
			<path id="XMLID_2279_" class="st1" d="M447.4,778.1h-5.1c0,0.6,0.1,1.1,0.4,1.6c0.2,0.4,0.5,0.8,0.9,1c0.4,0.2,0.8,0.3,1.3,0.3
				c0.3,0,0.6,0,0.8-0.1c0.3-0.1,0.5-0.2,0.8-0.3c0.2-0.2,0.5-0.3,0.7-0.5c0.2-0.2,0.5-0.4,0.8-0.7c0.1-0.1,0.3-0.2,0.6-0.2
				c0.3,0,0.5,0.1,0.7,0.2c0.2,0.1,0.2,0.3,0.2,0.6c0,0.2-0.1,0.5-0.3,0.8c-0.2,0.3-0.5,0.6-0.8,0.9c-0.4,0.3-0.8,0.5-1.4,0.7
				c-0.6,0.2-1.2,0.3-1.9,0.3c-1.7,0-3-0.5-3.9-1.4c-0.9-1-1.4-2.2-1.4-3.9c0-0.8,0.1-1.5,0.3-2.1c0.2-0.7,0.6-1.2,1-1.7
				c0.4-0.5,1-0.8,1.6-1.1c0.6-0.2,1.4-0.4,2.1-0.4c1,0,1.9,0.2,2.6,0.6c0.7,0.4,1.3,1,1.6,1.7c0.4,0.7,0.5,1.4,0.5,2.1
				c0,0.6-0.2,1.1-0.6,1.3C448.6,778,448.1,778.1,447.4,778.1 M442.4,776.7h4.7c-0.1-0.9-0.3-1.5-0.7-2c-0.4-0.4-1-0.7-1.6-0.7
				c-0.6,0-1.2,0.2-1.6,0.7C442.7,775.1,442.4,775.8,442.4,776.7"/>
			<path id="XMLID_2274_" class="st1" d="M453.1,773.7v0.3c0.5-0.6,1-1,1.5-1.3c0.5-0.3,1.1-0.4,1.8-0.4c0.8,0,1.5,0.2,2.2,0.6
				c0.7,0.4,1.2,1,1.6,1.8c0.4,0.8,0.6,1.7,0.6,2.8c0,0.8-0.1,1.5-0.3,2.2c-0.2,0.7-0.5,1.2-0.9,1.7c-0.4,0.4-0.9,0.8-1.4,1
				c-0.5,0.2-1.1,0.4-1.7,0.4c-0.7,0-1.4-0.1-1.9-0.4c-0.5-0.3-1-0.7-1.4-1.3v3.9c0,1.1-0.4,1.7-1.2,1.7c-0.5,0-0.8-0.1-1-0.4
				c-0.2-0.3-0.2-0.7-0.2-1.3v-11.2c0-0.5,0.1-0.9,0.3-1.1c0.2-0.2,0.5-0.4,0.9-0.4c0.4,0,0.7,0.1,0.9,0.4
				C453,772.8,453.1,773.2,453.1,773.7 M458.2,777.4c0-0.7-0.1-1.3-0.3-1.8c-0.2-0.5-0.5-0.9-0.9-1.1c-0.4-0.3-0.8-0.4-1.2-0.4
				c-0.7,0-1.3,0.3-1.8,0.8c-0.5,0.6-0.7,1.4-0.7,2.5c0,1,0.2,1.8,0.7,2.4c0.5,0.6,1.1,0.9,1.8,0.9c0.4,0,0.8-0.1,1.2-0.4
				c0.4-0.3,0.7-0.6,0.9-1.1C458.1,778.8,458.2,778.2,458.2,777.4"/>
			<path id="XMLID_2268_" class="st1" d="M463.4,771c-0.4,0-0.7-0.1-0.9-0.3c-0.3-0.2-0.4-0.5-0.4-0.9c0-0.4,0.1-0.7,0.4-0.9
				c0.3-0.2,0.6-0.4,0.9-0.4c0.3,0,0.6,0.1,0.9,0.3c0.3,0.2,0.4,0.5,0.4,0.9c0,0.4-0.1,0.7-0.4,0.9C464.1,770.9,463.8,771,463.4,771
				 M464.7,773.7v7.5c0,0.5-0.1,0.9-0.4,1.2c-0.2,0.3-0.6,0.4-0.9,0.4c-0.4,0-0.7-0.1-0.9-0.4c-0.2-0.3-0.4-0.7-0.4-1.2v-7.4
				c0-0.5,0.1-0.9,0.4-1.2c0.2-0.3,0.5-0.4,0.9-0.4c0.4,0,0.7,0.1,0.9,0.4C464.6,772.9,464.7,773.2,464.7,773.7"/>
			<path id="XMLID_2266_" class="st1" d="M473.1,781.6l-2.3-3.8l-1.4,1.3v2.1c0,0.5-0.1,0.9-0.4,1.1c-0.3,0.3-0.6,0.4-0.9,0.4
				c-0.4,0-0.7-0.1-0.9-0.4c-0.2-0.3-0.3-0.7-0.3-1.2v-11.1c0-0.6,0.1-1,0.3-1.3c0.2-0.3,0.5-0.5,1-0.5c0.4,0,0.7,0.1,0.9,0.4
				c0.2,0.3,0.4,0.7,0.4,1.2v6.3l2.9-3.1c0.4-0.4,0.6-0.6,0.8-0.8c0.2-0.1,0.4-0.2,0.7-0.2c0.3,0,0.6,0.1,0.8,0.3
				c0.2,0.2,0.3,0.5,0.3,0.8c0,0.4-0.4,0.9-1.1,1.5l-1.4,1.3l2.7,4.2c0.2,0.3,0.3,0.5,0.4,0.7c0.1,0.2,0.1,0.3,0.1,0.5
				c0,0.4-0.1,0.7-0.3,1c-0.2,0.2-0.5,0.4-0.9,0.4c-0.3,0-0.6-0.1-0.7-0.3C473.6,782.3,473.3,782,473.1,781.6"/>
			<path id="XMLID_2264_" class="st1" d="M478.7,782.8c-0.4,0-0.7-0.1-1-0.4c-0.3-0.2-0.4-0.6-0.4-1.1c0-0.4,0.1-0.7,0.4-1
				c0.3-0.3,0.6-0.4,1-0.4c0.4,0,0.7,0.1,1,0.4c0.3,0.3,0.4,0.6,0.4,1c0,0.5-0.1,0.8-0.4,1.1C479.4,782.6,479.1,782.8,478.7,782.8"
				/>
			<path id="XMLID_2262_" class="st1" d="M491.6,779.6c0,0.3-0.1,0.7-0.3,1c-0.2,0.4-0.5,0.7-0.9,1.1c-0.4,0.3-0.9,0.6-1.5,0.8
				c-0.6,0.2-1.3,0.3-2,0.3c-1.6,0-2.9-0.5-3.8-1.4c-0.9-0.9-1.3-2.2-1.3-3.8c0-1.1,0.2-2,0.6-2.8c0.4-0.8,1-1.4,1.8-1.9
				c0.8-0.4,1.7-0.7,2.8-0.7c0.7,0,1.3,0.1,1.9,0.3c0.6,0.2,1,0.5,1.4,0.8c0.4,0.3,0.7,0.6,0.9,1c0.2,0.4,0.3,0.7,0.3,1
				c0,0.3-0.1,0.6-0.3,0.8c-0.2,0.2-0.5,0.3-0.8,0.3c-0.2,0-0.4-0.1-0.5-0.2c-0.1-0.1-0.3-0.3-0.5-0.5c-0.3-0.5-0.6-0.8-1-1.1
				c-0.3-0.2-0.8-0.4-1.3-0.4c-0.8,0-1.4,0.3-1.9,0.9c-0.5,0.6-0.7,1.4-0.7,2.5c0,0.5,0.1,0.9,0.2,1.3c0.1,0.4,0.3,0.8,0.5,1
				c0.2,0.3,0.5,0.5,0.8,0.7c0.3,0.2,0.7,0.2,1.1,0.2c0.5,0,1-0.1,1.3-0.4c0.4-0.2,0.7-0.6,1-1.1c0.2-0.3,0.3-0.5,0.5-0.7
				c0.2-0.2,0.4-0.2,0.7-0.2c0.3,0,0.6,0.1,0.8,0.4C491.5,779,491.6,779.3,491.6,779.6"/>
			<path id="XMLID_2257_" class="st1" d="M502.8,777.5c0,0.8-0.1,1.5-0.4,2.1c-0.2,0.7-0.6,1.2-1,1.7c-0.5,0.5-1,0.8-1.6,1.1
				c-0.6,0.2-1.3,0.4-2.1,0.4c-0.8,0-1.5-0.1-2.1-0.4c-0.6-0.2-1.2-0.6-1.6-1.1c-0.5-0.5-0.8-1-1.1-1.7c-0.2-0.6-0.3-1.4-0.3-2.1
				c0-0.8,0.1-1.5,0.4-2.2c0.2-0.7,0.6-1.2,1-1.7c0.5-0.5,1-0.8,1.6-1.1c0.6-0.2,1.3-0.4,2.1-0.4c0.8,0,1.5,0.1,2.1,0.4
				c0.6,0.3,1.2,0.6,1.6,1.1c0.5,0.5,0.8,1,1,1.7C502.7,776,502.8,776.7,502.8,777.5 M500.2,777.5c0-1.1-0.2-1.9-0.7-2.5
				c-0.5-0.6-1.1-0.9-1.9-0.9c-0.5,0-1,0.1-1.3,0.4s-0.7,0.6-0.9,1.2c-0.2,0.5-0.3,1.1-0.3,1.8c0,0.7,0.1,1.3,0.3,1.8
				c0.2,0.5,0.5,0.9,0.9,1.2c0.4,0.3,0.8,0.4,1.4,0.4c0.8,0,1.4-0.3,1.9-0.9C499.9,779.4,500.2,778.5,500.2,777.5"/>
			<path id="XMLID_2256_" class="st1" d="M512.7,777.7v3.4c0,0.5-0.1,1-0.4,1.2c-0.2,0.3-0.6,0.4-1,0.4c-0.4,0-0.7-0.1-1-0.4
				c-0.2-0.3-0.4-0.7-0.4-1.2V777c0-0.7,0-1.2-0.1-1.5c0-0.4-0.2-0.7-0.4-0.9c-0.2-0.2-0.5-0.4-0.9-0.4c-0.8,0-1.4,0.3-1.7,0.9
				c-0.3,0.6-0.4,1.4-0.4,2.5v3.5c0,0.5-0.1,0.9-0.4,1.2c-0.2,0.3-0.6,0.4-1,0.4c-0.4,0-0.7-0.1-1-0.4c-0.3-0.3-0.4-0.7-0.4-1.2
				v-7.4c0-0.5,0.1-0.9,0.3-1.1c0.2-0.3,0.5-0.4,0.9-0.4c0.4,0,0.7,0.1,0.9,0.4c0.2,0.2,0.4,0.6,0.4,1v0.2c0.5-0.5,0.9-0.9,1.4-1.2
				c0.5-0.3,1.1-0.4,1.7-0.4c0.7,0,1.2,0.1,1.7,0.4c0.5,0.3,0.9,0.7,1.2,1.2c0.4-0.5,0.9-0.9,1.4-1.2c0.5-0.3,1.1-0.4,1.7-0.4
				c0.7,0,1.3,0.1,1.8,0.4c0.5,0.3,0.9,0.7,1.1,1.2c0.2,0.5,0.3,1.2,0.3,2.2v5.1c0,0.5-0.1,1-0.4,1.2c-0.2,0.3-0.6,0.4-1,0.4
				c-0.4,0-0.7-0.1-1-0.4c-0.2-0.3-0.4-0.7-0.4-1.2v-4.4c0-0.6,0-1-0.1-1.3c0-0.3-0.2-0.6-0.4-0.8c-0.2-0.2-0.5-0.3-1-0.3
				c-0.3,0-0.7,0.1-1,0.3c-0.3,0.2-0.5,0.5-0.7,0.8C512.8,775.8,512.7,776.6,512.7,777.7"/>
		</g>
		<g id="XMLID_2222_">
			<path id="XMLID_2252_" class="st1" d="M392,776.9C392,776.9,392,776.9,392,776.9C392,776.9,392,776.9,392,776.9z"/>
			<path id="XMLID_2250_" class="st1" d="M392.1,777.7C392.1,777.7,392.1,777.7,392.1,777.7c0-0.2-0.1-0.5-0.1-0.7
				C392,777.2,392.1,777.5,392.1,777.7z"/>
			<path id="XMLID_2249_" class="st1" d="M393,780.1C393,780.1,392.9,780.1,393,780.1C392.9,780.1,393,780.1,393,780.1z"/>
			<path id="XMLID_2248_" class="st1" d="M392.9,779.9c0,0,0-0.1-0.1-0.1C392.8,779.9,392.9,779.9,392.9,779.9z"/>
			<path id="XMLID_2247_" class="st1" d="M392.3,778.6c0.1,0.4,0.3,0.8,0.5,1.2C392.6,779.4,392.5,779,392.3,778.6
				C392.3,778.6,392.3,778.6,392.3,778.6z"/>
			<path id="XMLID_2246_" class="st1" d="M402,766.9c0.5,0,0.9,0,1.3,0.1l0.1-0.8c0,0-1.2-0.4-2.7-0.2l-0.1-0.4
				c0.5-0.1,0.8-0.5,0.8-1c0-0.6-0.5-1.1-1.1-1.1c-0.6,0-1.1,0.5-1.1,1.1c0,0.5,0.4,0.9,0.8,1l0.1,0.5c-1.6,0.2-2.9,0.9-2.9,0.9
				l0.2,0.7c1-0.3,1.8-0.5,2.6-0.6C401,767,401.5,766.9,402,766.9z"/>
			<path id="XMLID_2244_" class="st1" d="M392.9,770.8L392.9,770.8c0-0.1,0.1-0.1,0.1-0.2l-0.3-0.2l-0.5-0.4c0,0-0.8,0.7-1.4,2
				c0,0-0.1-0.1-0.1-0.1c-0.2-0.2-0.4-0.3-0.8-0.3c0,0,0,0,0,0c-0.2,0-0.3-0.1-0.4-0.1c0.1-0.1,0.1-0.3,0.1-0.4
				c0-0.4-0.3-0.7-0.7-0.7c-0.4,0-0.7,0.3-0.7,0.7c0,0.4,0.3,0.7,0.7,0.7c0.1,0,0.1,0,0.2,0c0.2,0.2,0.4,0.3,0.8,0.3
				c0.2,0,0.3,0,0.4,0.2c0.1,0.1,0.1,0.3,0.2,0.4c0,0,0,0,0,0c-0.4,1.2-0.3,2.7-0.3,2.7l1.1,0c0-0.5,0.1-1.5,0.4-2.2
				C392.3,771.7,392.9,770.8,392.9,770.8z"/>
			<path id="XMLID_2242_" class="st1" d="M411.2,767.8c-0.4,0-0.7,0.3-0.7,0.7c0,0.1,0,0.1,0,0.2c-0.2,0.2-0.3,0.4-0.3,0.8
				c0,0.2,0,0.3-0.2,0.4c-0.1,0.1-0.2,0.1-0.3,0.1c-0.8-1.1-1.8-1.8-1.8-1.8l-0.8,0.8c0.6,0.5,1.2,1.2,1.7,2c0.4,0.6,0.8,1.3,1.1,2
				l1-0.5c0,0-0.5-1.2-1.1-2.2c0.1,0,0.2-0.1,0.3-0.2c0.2-0.2,0.3-0.4,0.3-0.8c0-0.2,0.1-0.3,0.1-0.4c0.1,0.1,0.3,0.1,0.4,0.1
				c0.4,0,0.7-0.3,0.7-0.7C411.9,768.1,411.6,767.8,411.2,767.8z"/>
			<path id="XMLID_2234_" class="st1" d="M408.5,777c-1.4,0.7-3.7,1.6-6.8,2c-1.2,0.2-2.4,0.2-3.4,0.2c-1.4,0-2.6-0.1-3.6-0.2
				c-1.1-0.1-1.9-0.3-2.4-0.4c0.1,0.4,0.3,0.8,0.5,1.2c0,0,0,0,0,0c0,0,0,0.1,0.1,0.1c0,0,0,0.1,0.1,0.1c0,0,0,0,0,0
				c0.3,0.6,0.7,1.1,1.1,1.5c1.4,1.6,2.9,1.8,2.9,1.8l0,0l0,0c0,0,1.3,0.4,3.3,0.4c1.9,0,3.9-0.4,5.7-1.2c1.3-0.7,2.6-1.7,3.3-2.7
				c0.5-0.7,0.8-1.5,1.1-2.3c0.1-0.4,0.2-1.1,0.1-1.8C410,776.2,409.4,776.6,408.5,777z"/>
			<path id="XMLID_2224_" class="st1" d="M393.4,771.1c0,0.1-0.7,0.9-1.1,2.3c-0.4,1-0.3,2.4-0.3,2.5v0c0,0.3,0,0.7,0.1,1
				c0,0,0,0,0,0c0,0,0,0.1,0,0.1c0,0.2,0.1,0.5,0.1,0.7c0.7,0.2,4.9,1.2,9.5,0.5c2.9-0.4,5.2-1.3,6.5-1.9c1.1-0.5,1.8-1,2.1-1.2
				c-0.3-1-1-2.6-1.7-3.6c-2-2.9-4.2-3.6-5.3-3.8c-0.4-0.1-0.8-0.1-1.2-0.1c-0.4,0-1,0-1.7,0.1c-0.7,0.1-1.6,0.3-2.5,0.6
				c-1.3,0.5-2.6,1.2-3.5,2l0,0C394,770.4,393.7,770.7,393.4,771.1z M405.7,770.5c1,0,1.7,0.8,1.7,1.7c0,1-0.8,1.7-1.7,1.7
				c-1,0-1.7-0.8-1.7-1.7C403.9,771.2,404.7,770.5,405.7,770.5z M397.4,770.4c1.6,0,2.8,1.3,2.8,2.8c0,1.6-1.3,2.8-2.8,2.8
				c-1.6,0-2.8-1.3-2.8-2.8C394.6,771.6,395.9,770.4,397.4,770.4z"/>
		</g>
	</g>
</g>
<g id="Objects">
	<g>
		<path class="st2" d="M306.7,365c8.6,4.2,13.6,13,12.6,22.2l-8.1,79.7h28.3l-8.1-79.7c-0.9-9.2,4.1-18,12.6-22.2
			c10.6-5.2,17.7-16.2,17.7-36.6c0-30.9-19.9-71.4-36.4-71.4c-15.6,0-36.4,40.5-36.4,71.4C289,348.8,296.1,359.8,306.7,365z"/>
		<path class="st2" d="M394.5,365c8.6,4.2,13.6,13,12.6,22.2l-8.1,79.7h28.3l-8.1-79.7c-0.9-9.2,4.1-18,12.6-22.2
			c10.6-5.2,17.7-16.2,17.7-36.6v-66.6c0-2.6-2.2-4.8-4.9-4.8c-2.9,0-5.2,2.2-5.2,5v61.8c0,2.8-2.3,5-5.2,5c-2.9,0-5.2-2.3-5.2-5
			V262c0-2.8-2.3-5-5.2-5h-0.1c-2.9,0-5.2,2.2-5.2,5v61.8c0,2.8-2.3,5-5.2,5c-2.9,0-5.2-2.3-5.2-5V262c0-2.8-2.3-5-5.2-5h-0.1
			c-2.9,0-5.2,2.2-5.2,5v61.8c0,2.8-2.3,5-5.2,5c-2.9,0-5.2-2.3-5.2-5V262c0-2.8-2.3-5-5.2-5c-2.7,0-4.9,2.1-4.9,4.8v66.6
			C376.8,348.8,383.9,359.8,394.5,365z"/>
		<path class="st2" d="M483.7,409.1l-5.9,57.8h28.3l-6.8-67.1L499,259.9c0-2.8-2.3-5-5.2-5c-2.3,0-4.3,1.4-5,3.5l-23.2,70.3
			c-7.3,22-2.4,46.1,12.8,63.9C482.4,397.2,484.3,403.1,483.7,409.1z"/>
	</g>
	<g>
		<path class="st1" d="M278.7,430.9c0-3.8-2.7-7.1-6.5-8.1c-43.3-11-73.6-48.8-73.6-91.9c0-52.4,44.3-95,98.8-95
			c6.8,0,13.6,0.7,20.2,2c2.3,0.5,4.7,0,6.7-1.3c2-1.3,3.3-3.2,3.7-5.5c7.9-42.6,46.3-73.5,91.4-73.5c51.2,0,92.8,40,92.8,89.3
			c0,1.6-0.1,3.4-0.2,5.5c-0.3,4.4,3.1,8.3,7.7,8.8c47.8,5.3,83.9,44.3,83.9,90.7c0,42.7-30.2,79.2-73.3,88.9
			c-3.9,0.9-6.7,4.3-6.7,8.2v17.3H541v-10.8c47.5-13.6,80.1-55.2,80.1-103.5c0-52.3-38.8-96.6-91.4-106.2
			c-0.7-57.9-49.9-104.9-110.3-104.9c-50.6,0-94.2,32.8-106.7,79.2c-5-0.6-10.1-1-15.2-1c-64.1,0-116.3,50.1-116.3,111.8
			c0,48.5,32.6,91.3,80.1,106.3v29h17.4V430.9z"/>
		<rect x="202.7" y="482.4" class="st1" width="405.6" height="149.7"/>
	</g>
	<polygon class="st3" points="168.1,557.2 203,523.6 238,557.2 203,590.8 	"/>
	<polygon class="st3" points="572.1,557.2 607.1,523.6 642,557.2 607.1,590.8 	"/>
	<g>
		<polygon class="st1" points="229.6,640.2 235,655.1 251.4,655.4 238.3,664.9 243.1,680 229.6,670.9 216.2,680 221,664.9 
			207.9,655.4 224.3,655.1 		"/>
		<polygon class="st1" points="279.2,640.2 284.5,655.1 301,655.4 287.8,664.9 292.6,680 279.2,670.9 265.7,680 270.6,664.9 
			257.4,655.4 273.8,655.1 		"/>
		<polygon class="st1" points="328.7,640.2 334.1,655.1 350.5,655.4 337.3,664.9 342.2,680 328.7,670.9 315.3,680 320.1,664.9 
			307,655.4 323.4,655.1 		"/>
		<polygon class="st1" points="378.3,640.2 383.6,655.1 400,655.4 386.9,664.9 391.7,680 378.3,670.9 364.8,680 369.6,664.9 
			356.5,655.4 372.9,655.1 		"/>
		<polygon class="st1" points="427.8,640.2 433.1,655.1 449.6,655.4 436.4,664.9 441.3,680 427.8,670.9 414.4,680 419.2,664.9 
			406,655.4 422.5,655.1 		"/>
		<polygon class="st1" points="477.4,640.2 482.7,655.1 499.1,655.4 486,664.9 490.8,680 477.4,670.9 463.9,680 468.7,664.9 
			455.6,655.4 472,655.1 		"/>
		<polygon class="st1" points="526.9,640.2 532.2,655.1 548.7,655.4 535.5,664.9 540.4,680 526.9,670.9 513.5,680 518.3,664.9 
			505.1,655.4 521.6,655.1 		"/>
		<polygon class="st1" points="576.5,640.2 581.8,655.1 598.2,655.4 585.1,664.9 589.9,680 576.5,670.9 563,680 567.8,664.9 
			554.7,655.4 571.1,655.1 		"/>
	</g>
	<text transform="matrix(1 0 0 1 261.8076 547)"><tspan x="0" y="0" class="st4 st5 st6">RESTAURANT</tspan><tspan x="44.5" y="60" class="st4 st5 st6">REVIEWS</tspan></text>
</g>
</svg>
